<?xml version="1.0" encoding="UTF-8"?>
<svg id="Layer_1" xmlns="http://www.w3.org/2000/svg" version="1.1" xmlns:xlink="http://www.w3.org/1999/xlink" viewBox="0 0 1000 1000">
  <!-- Generator: Adobe Illustrator 29.8.3, SVG Export Plug-In . SVG Version: 2.1.1 Build 3)  -->
  <defs>
    <radialGradient id="radial-gradient" cx="448.02" cy="324.67" fx="448.02" fy="324.67" r="52.67" gradientTransform="translate(210.33 971.41) rotate(-22.5) scale(1 -1)" gradientUnits="userSpaceOnUse">
      <stop offset="0" stop-color="#66d3fa"/>
      <stop offset="1" stop-color="#007acc"/>
    </radialGradient>
  </defs>
  <rect width="1000" height="1000" display="none" fill="#0d1326" stroke="#0d1326" stroke-width="2"/>
  <path d="M850,496c-.37,0-.71.07-1.05.16l-99.49-240.19c1.2-.69,2.03-1.97,2.03-3.46,0-2.21-1.79-4-4-4-1.48,0-2.77.82-3.46,2.03l-240.19-99.49c.09-.34.16-.68.16-1.05,0-2.21-1.79-4-4-4s-4,1.79-4,4c0,.37.07.71.16,1.05l-240.19,99.49c-.69-1.2-1.97-2.03-3.46-2.03-2.21,0-4,1.79-4,4,0,1.48.82,2.77,2.03,3.46l-99.49,240.19c-.34-.09-.68-.16-1.05-.16-2.21,0-4,1.79-4,4s1.79,4,4,4c.37,0,.71-.07,1.05-.16l99.49,240.19c-1.2.69-2.03,1.97-2.03,3.46,0,2.21,1.79,4,4,4,1.48,0,2.77-.82,3.46-2.03l240.19,99.49c-.09.34-.16.68-.16,1.05,0,2.21,1.79,4,4,4s4-1.79,4-4c0-.37-.07-.71-.16-1.05l240.19-99.49c.69,1.2,1.97,2.03,3.46,2.03,2.21,0,4-1.79,4-4,0-1.48-.82-2.77-2.03-3.46l99.49-240.19c.34.09.68.16,1.05.16,2.21,0,4-1.79,4-4s-1.79-4-4-4ZM744.03,745.52l-170.89-70.79,28.32-68.37c.34.09.68.16,1.05.16,2.21,0,4-1.79,4-4,0-.37-.07-.71-.16-1.05l68.37-28.32,70.79,170.89c-.62.35-1.13.87-1.48,1.48ZM500,846c-.37,0-.71.07-1.05.16l-70.78-170.89,68.37-28.32c.69,1.2,1.97,2.03,3.46,2.03s2.77-.82,3.46-2.03l68.37,28.32-70.78,170.89c-.34-.09-.68-.16-1.05-.16ZM254.48,744.03l70.78-170.9,68.38,28.32c-.09.34-.16.68-.16,1.05,0,2.21,1.79,4,4,4,.37,0,.71-.07,1.05-.16l28.32,68.37-170.89,70.79c-.35-.62-.87-1.13-1.48-1.48ZM153.84,498.95l170.88-70.78,28.32,68.37c-1.2.69-2.03,1.97-2.03,3.46s.82,2.77,2.03,3.46l-28.32,68.37-170.88-70.78c.09-.34.16-.68.16-1.05s-.07-.71-.16-1.05ZM255.97,254.48l170.9,70.78-28.32,68.38c-.34-.09-.68-.16-1.05-.16-2.21,0-4,1.79-4,4,0,.37.07.71.16,1.05l-68.38,28.32-70.78-170.9c.62-.35,1.13-.87,1.48-1.48ZM500,154c.37,0,.71-.07,1.05-.16l70.78,170.88-68.37,28.32c-.69-1.2-1.97-2.03-3.46-2.03s-2.77.82-3.46,2.03l-68.37-28.32,70.78-170.88c.34.09.68.16,1.05.16ZM745.52,255.97l-70.79,170.89-68.37-28.32c.09-.34.16-.68.16-1.05,0-2.21-1.79-4-4-4-.37,0-.71.07-1.05.16l-28.32-68.38,170.9-70.78c.35.62.87,1.13,1.48,1.48ZM500,640.97c-.37,0-.71.07-1.05.16l-28.32-68.37,29.37-12.16,29.37,12.17-28.32,68.37c-.34-.09-.68-.16-1.05-.16ZM500,359.02c.37,0,.71-.07,1.05-.16l28.32,68.38-29.38,12.17-29.37-12.17,28.32-68.38c.34.09.68.16,1.05.16ZM600.54,400.95l-28.32,68.37-29.37-12.16-12.17-29.37,68.37-28.32c.35.62.87,1.13,1.48,1.48ZM641.13,501.05l-68.37,28.32-12.17-29.37,12.16-29.37,68.37,28.32c-.09.34-.16.68-.16,1.05s.07.71.16,1.05ZM358.86,498.95l68.38-28.32,12.17,29.37-12.17,29.38-68.38-28.32c.09-.34.16-.68.16-1.05s-.07-.71-.16-1.05ZM428.17,470.24l28.45-11.78-16.66,40.23-11.78-28.45ZM439.95,501.3l16.67,40.24-28.45-11.78,11.78-28.45ZM440.49,500l17.43-42.08,42.08-17.43,42.08,17.43,17.43,42.07-17.43,42.08-42.08,17.43-42.07-17.43-17.43-42.08ZM543.39,458.46l28.44,11.78-11.78,28.44-16.66-40.23ZM560.05,501.3l11.78,28.45-28.45,11.78,16.66-40.23ZM541.54,456.62l-40.24-16.67,28.45-11.78,11.78,28.45ZM498.69,439.95l-40.23,16.66,11.78-28.45,28.45,11.78ZM457.15,457.15l-29.37,12.17-28.32-68.37c.62-.35,1.13-.87,1.48-1.48l68.37,28.32-12.17,29.37ZM397.49,401.49c.37,0,.71-.07,1.05-.16l28.32,68.37-68.38,28.32c-.69-1.2-1.97-2.03-3.46-2.03-.37,0-.71.07-1.05.16l-28.32-68.37,68.38-28.32c.69,1.2,1.97,2.03,3.46,2.03ZM355.02,504c1.48,0,2.77-.82,3.46-2.03l68.38,28.32-28.32,68.37c-.34-.09-.68-.16-1.05-.16-1.48,0-2.77.82-3.46,2.03l-68.38-28.32,28.32-68.37c.34.09.68.16,1.05.16ZM399.46,599.05l28.32-68.37,29.37,12.17,12.16,29.37-68.37,28.32c-.35-.62-.87-1.13-1.48-1.48ZM458.46,543.39l40.23,16.66-28.44,11.78-11.78-28.44ZM501.3,560.05l40.23-16.66-11.78,28.45-28.45-11.78ZM542.84,542.84l29.37-12.17,28.32,68.37c-.62.35-1.13.87-1.48,1.48l-68.37-28.32,12.17-29.37ZM602.51,598.51c-.37,0-.71.07-1.05.16l-28.32-68.37,68.37-28.32c.69,1.2,1.97,2.03,3.46,2.03.37,0,.71-.07,1.05-.16l28.32,68.37-68.38,28.32c-.69-1.2-1.97-2.03-3.46-2.03ZM644.97,496c-1.48,0-2.77.82-3.46,2.03l-68.37-28.32,28.32-68.37c.34.09.68.16,1.05.16,1.48,0,2.77-.82,3.46-2.03l68.38,28.32-28.32,68.37c-.34-.09-.68-.16-1.05-.16ZM600.54,394.03c-1.2.69-2.03,1.97-2.03,3.46,0,.37.07.71.16,1.05l-68.37,28.32-28.32-68.38c1.2-.69,2.03-1.97,2.03-3.46,0-.37-.07-.71-.16-1.05l68.37-28.32,28.32,68.38ZM496.16,353.97c-.09.34-.16.68-.16,1.05,0,1.48.82,2.77,2.03,3.46l-28.32,68.38-68.37-28.32c.09-.34.16-.68.16-1.05,0-1.48-.82-2.77-2.03-3.46l28.32-68.38,68.37,28.32ZM399.46,605.97c1.2-.69,2.03-1.97,2.03-3.46,0-.37-.07-.71-.16-1.05l68.37-28.32,28.32,68.37c-1.2.69-2.03,1.97-2.03,3.46,0,.37.07.71.16,1.05l-68.37,28.32-28.32-68.38ZM503.84,646.02c.09-.34.16-.68.16-1.05,0-1.48-.82-2.77-2.03-3.46l28.32-68.37,68.37,28.32c-.09.34-.16.68-.16,1.05,0,1.48.82,2.77,2.03,3.46l-28.32,68.38-68.37-28.32ZM646.94,503.46c1.2-.69,2.03-1.97,2.03-3.46s-.82-2.77-2.03-3.46l28.32-68.37,170.89,70.78c-.09.34-.16.68-.16,1.05s.07.71.16,1.05l-170.89,70.78-28.32-68.37ZM848.03,496.54c-.62.35-1.13.87-1.48,1.48l-170.89-70.78,70.79-170.89c.34.09.68.16,1.05.16s.71-.07,1.05-.16l99.49,240.19ZM743.65,251.46c-.09.34-.16.68-.16,1.05s.07.71.16,1.05l-170.89,70.78-70.78-170.89c.62-.35,1.13-.87,1.48-1.48l240.19,99.49ZM496.54,151.97c.35.62.87,1.13,1.48,1.48l-70.78,170.89-170.89-70.78c.09-.34.16-.68.16-1.05s-.07-.71-.16-1.05l240.19-99.49ZM251.46,256.35c.34.09.68.16,1.05.16s.71-.07,1.05-.16l70.78,170.89-170.89,70.78c-.35-.62-.87-1.13-1.48-1.48l99.49-240.19ZM151.97,503.46c.62-.35,1.13-.87,1.48-1.48l170.89,70.78-70.78,170.89c-.34-.09-.68-.16-1.05-.16s-.71.07-1.05.16l-99.49-240.19ZM256.35,748.54c.09-.34.16-.68.16-1.05s-.07-.71-.16-1.05l170.89-70.79,70.78,170.89c-.62.35-1.13.87-1.48,1.48l-240.19-99.49ZM503.46,848.03c-.35-.62-.87-1.13-1.48-1.48l70.78-170.89,170.89,70.79c-.09.34-.16.68-.16,1.05s.07.71.16,1.05l-240.19,99.49ZM748.54,743.65c-.34-.09-.68-.16-1.05-.16s-.71.07-1.05.16l-70.79-170.89,170.89-70.78c.35.62.87,1.13,1.48,1.48l-99.49,240.19Z" fill="#66b3ff" opacity=".7"/>
  <g>
    <polygon points="746.85 747.2 499.65 849.84 397.85 603.48 645.05 500.84 746.85 747.2" display="none" fill="#009e60" opacity=".4"/>
    <path d="M747.49,743.49c-.37,0-.71.07-1.05.16l-99.5-240.19c1.2-.69,2.03-1.97,2.03-3.46,0-2.21-1.79-4-4-4-1.48,0-2.77.82-3.46,2.03l-240.18-99.49c.09-.34.16-.68.16-1.05,0-2.21-1.79-4-4-4s-4,1.79-4,4c0,.37.07.71.16,1.05l-240.19,99.49c-.69-1.2-1.97-2.03-3.46-2.03-2.21,0-4,1.79-4,4s1.79,4,4,4c.37,0,.71-.07,1.05-.16l99.49,240.19c-1.2.69-2.03,1.97-2.03,3.46,0,2.21,1.79,4,4,4,1.48,0,2.77-.82,3.46-2.03l240.19,99.49c-.09.34-.16.68-.16,1.05,0,2.21,1.79,4,4,4s4-1.79,4-4c0-.37-.07-.71-.16-1.05l240.19-99.49c.69,1.2,1.97,2.03,3.46,2.03,2.21,0,4-1.79,4-4s-1.79-4-4-4ZM745.52,744.03c-.62.35-1.13.87-1.48,1.48l-240.19-99.5c.09-.34.16-.68.16-1.05,0-2.21-1.79-4-4-4-.37,0-.71.07-1.05.16l-28.32-68.37,170.88-70.78c.69,1.2,1.97,2.03,3.46,2.03.37,0,.71-.07,1.05-.16l99.5,240.19ZM401.49,602.51c0-.37-.07-.71-.16-1.05l68.37-28.32,28.32,68.37c-1.2.69-2.03,1.97-2.03,3.46,0,.37.07.71.16,1.05l-68.37,28.32-28.32-68.38c1.2-.69,2.03-1.97,2.03-3.46ZM641.13,498.95c-.09.34-.16.68-.16,1.05s.07.71.16,1.05l-170.88,70.78-70.78-170.88c.62-.35,1.13-.87,1.48-1.48l240.18,99.49ZM394.03,399.46c.69,1.2,1.97,2.03,3.46,2.03.37,0,.71-.07,1.05-.16l70.78,170.88-68.37,28.32c-.69-1.2-1.97-2.03-3.46-2.03s-2.77.82-3.46,2.03l-240.19-99.49c.09-.34.16-.68.16-1.05s-.07-.71-.16-1.05l240.19-99.49ZM151.97,503.46c.62-.35,1.13-.87,1.48-1.48l240.19,99.49c-.09.34-.16.68-.16,1.05,0,2.21,1.79,4,4,4,.37,0,.71-.07,1.05-.16l28.32,68.37-170.89,70.79c-.69-1.2-1.97-2.03-3.46-2.03-.37,0-.71.07-1.05.16l-99.49-240.19ZM256.35,748.54c.09-.34.16-.68.16-1.05s-.07-.71-.16-1.05l170.89-70.79,70.78,170.89c-.62.35-1.13.87-1.48,1.48l-240.19-99.49ZM503.46,848.03c-.69-1.2-1.97-2.03-3.46-2.03-.37,0-.71.07-1.05.16l-70.78-170.89,68.37-28.32c.69,1.2,1.97,2.03,3.46,2.03s2.77-.82,3.46-2.03l240.19,99.5c-.09.34-.16.68-.16,1.05s.07.71.16,1.05l-240.19,99.49Z" fill="#009e60"/>
  </g>
  <g>
    <polygon points="499.75 849.55 252.37 747.33 354.59 501.14 601.97 603.36 499.75 849.55" display="none" fill="#7f4fc9" opacity=".4"/>
    <path d="M602.51,598.51c-.37,0-.71.07-1.05.16l-99.49-240.19c1.2-.69,2.03-1.97,2.03-3.46,0-2.21-1.79-4-4-4-1.48,0-2.77.82-3.46,2.03l-240.19-99.49c.09-.34.16-.68.16-1.05,0-2.21-1.79-4-4-4s-4,1.79-4,4c0,1.48.82,2.77,2.03,3.46l-99.49,240.19c-.34-.09-.68-.16-1.05-.16-2.21,0-4,1.79-4,4s1.79,4,4,4c.37,0,.71-.07,1.05-.16l99.49,240.19c-1.2.69-2.03,1.97-2.03,3.46,0,2.21,1.79,4,4,4,1.48,0,2.77-.82,3.46-2.03l240.19,99.49c-.09.34-.16.68-.16,1.05,0,2.21,1.79,4,4,4s4-1.79,4-4c0-1.48-.82-2.77-2.03-3.46l99.49-240.19c.34.09.68.16,1.05.16,2.21,0,4-1.79,4-4s-1.79-4-4-4ZM600.54,599.05c-.62.35-1.13.87-1.48,1.48l-170.89-70.78,70.78-170.89c.34.09.68.16,1.05.16s.71-.07,1.05-.16l99.49,240.19ZM496.16,353.97c-.09.34-.16.68-.16,1.05,0,1.48.82,2.77,2.03,3.46l-70.78,170.9-68.38-28.32c.09-.34.16-.68.16-1.05,0-2.21-1.79-4-4-4-.37,0-.71.07-1.05.16l-99.49-240.19c.62-.35,1.13-.87,1.48-1.48l240.19,99.49ZM397.49,598.51c-1.48,0-2.77.82-3.46,2.03l-68.38-28.32,28.32-68.37c.34.09.68.16,1.05.16,1.48,0,2.77-.82,3.46-2.03l68.38,28.32-28.32,68.37c-.34-.09-.68-.16-1.05-.16ZM251.46,256.35c.34.09.68.16,1.05.16s.71-.07,1.05-.16l99.49,240.19c-1.2.69-2.03,1.97-2.03,3.46s.82,2.77,2.03,3.46l-28.32,68.37-170.88-70.78c.09-.34.16-.68.16-1.05,0-1.48-.82-2.77-2.03-3.46l99.49-240.19ZM151.97,503.46c.62-.35,1.13-.87,1.48-1.48l170.89,70.78-70.78,170.89c-.34-.09-.68-.16-1.05-.16s-.71.07-1.05.16l-99.49-240.19ZM256.35,748.54c.09-.34.16-.68.16-1.05,0-1.48-.82-2.77-2.03-3.46l70.78-170.9,68.38,28.32c-.09.34-.16.68-.16,1.05,0,2.21,1.79,4,4,4,.37,0,.71-.07,1.05-.16l99.49,240.19c-.62.35-1.13.87-1.48,1.48l-240.19-99.49ZM501.05,846.16c-.34-.09-.68-.16-1.05-.16s-.71.07-1.05.16l-99.49-240.19c1.2-.69,2.03-1.97,2.03-3.46s-.82-2.77-2.03-3.46l28.32-68.37,170.88,70.78c-.09.34-.16.68-.16,1.05,0,1.48.82,2.77,2.03,3.46l-99.49,240.19Z" fill="#7f4fc9"/>
  </g>
  <g>
    <polygon points="398.23 602.37 150.86 500.15 253.07 253.96 500.45 356.18 398.23 602.37" display="none" fill="#007fff" opacity=".4"/>
    <path d="M747.49,248.51c-1.48,0-2.77.82-3.46,2.03l-240.19-99.49c.09-.34.16-.68.16-1.05,0-2.21-1.79-4-4-4s-4,1.79-4,4c0,.37.07.71.16,1.05l-240.19,99.49c-.69-1.2-1.97-2.03-3.46-2.03-2.21,0-4,1.79-4,4,0,1.48.82,2.77,2.03,3.46l-99.49,240.19c-.34-.09-.68-.16-1.05-.16-2.21,0-4,1.79-4,4s1.79,4,4,4c1.48,0,2.77-.82,3.46-2.03l240.19,99.49c-.09.34-.16.68-.16,1.05,0,2.21,1.79,4,4,4s4-1.79,4-4c0-.37-.07-.71-.16-1.05l240.18-99.49c.69,1.2,1.97,2.03,3.46,2.03,2.21,0,4-1.79,4-4,0-1.48-.82-2.77-2.03-3.46l99.5-240.19c.34.09.68.16,1.05.16,2.21,0,4-1.79,4-4s-1.79-4-4-4ZM743.65,251.46c-.09.34-.16.68-.16,1.05s.07.71.16,1.05l-240.19,99.49c-.69-1.2-1.97-2.03-3.46-2.03s-2.77.82-3.46,2.03l-68.37-28.32,70.78-170.88c.34.09.68.16,1.05.16,1.48,0,2.77-.82,3.46-2.03l240.19,99.49ZM399.46,394.03l28.32-68.38,68.37,28.32c-.09.34-.16.68-.16,1.05,0,1.48.82,2.77,2.03,3.46l-28.32,68.38-68.37-28.32c.09-.34.16-.68.16-1.05,0-1.48-.82-2.77-2.03-3.46ZM496.54,151.97c.35.62.87,1.13,1.48,1.48l-70.78,170.89-170.89-70.78c.09-.34.16-.68.16-1.05s-.07-.71-.16-1.05l240.19-99.49ZM251.46,256.35c.34.09.68.16,1.05.16,1.48,0,2.77-.82,3.46-2.03l170.9,70.78-28.32,68.38c-.34-.09-.68-.16-1.05-.16-2.21,0-4,1.79-4,4,0,.37.07.71.16,1.05l-240.19,99.49c-.35-.62-.87-1.13-1.48-1.48l99.49-240.19ZM153.84,501.05c.09-.34.16-.68.16-1.05s-.07-.71-.16-1.05l240.19-99.49c.69,1.2,1.97,2.03,3.46,2.03s2.77-.82,3.46-2.03l68.37,28.32-70.78,170.88c-.34-.09-.68-.16-1.05-.16-1.48,0-2.77.82-3.46,2.03l-240.19-99.49ZM400.95,600.54c-.35-.62-.87-1.13-1.48-1.48l70.78-170.88,170.88,70.78c-.09.34-.16.68-.16,1.05s.07.71.16,1.05l-240.18,99.49ZM646.02,496.16c-.34-.09-.68-.16-1.05-.16-1.48,0-2.77.82-3.46,2.03l-170.89-70.78,28.32-68.38c.34.09.68.16,1.05.16,2.21,0,4-1.79,4-4,0-.37-.07-.71-.16-1.05l240.19-99.49c.35.62.87,1.13,1.48,1.48l-99.5,240.19Z" fill="#007fff"/>
  </g>
  <g>
    <polygon points="850.15 499.03 602.95 601.67 501.15 355.31 748.35 252.67 850.15 499.03" display="none" fill="#f28500" opacity=".4"/>
    <path d="M850,496c-.37,0-.71.07-1.05.16l-99.49-240.19c1.2-.69,2.03-1.97,2.03-3.46,0-2.21-1.79-4-4-4-1.48,0-2.77.82-3.46,2.03l-240.19-99.49c.09-.34.16-.68.16-1.05,0-2.21-1.79-4-4-4s-4,1.79-4,4c0,.37.07.71.16,1.05l-240.19,99.49c-.69-1.2-1.97-2.03-3.46-2.03-2.21,0-4,1.79-4,4s1.79,4,4,4c.37,0,.71-.07,1.05-.16l99.49,240.19c-1.2.69-2.03,1.97-2.03,3.46,0,2.21,1.79,4,4,4,1.48,0,2.77-.82,3.46-2.03l240.19,99.49c-.09.34-.16.68-.16,1.05,0,2.21,1.79,4,4,4s4-1.79,4-4c0-.37-.07-.71-.16-1.05l240.19-99.49c.69,1.2,1.97,2.03,3.46,2.03,2.21,0,4-1.79,4-4s-1.79-4-4-4ZM848.03,496.54c-.62.35-1.13.87-1.48,1.48l-240.19-99.49c.09-.34.16-.68.16-1.05,0-2.21-1.79-4-4-4-.37,0-.71.07-1.05.16l-28.32-68.38,170.9-70.78c.69,1.2,1.97,2.03,3.46,2.03.37,0,.71-.07,1.05-.16l99.49,240.19ZM504,355.02c0-.37-.07-.71-.16-1.05l68.37-28.32,28.32,68.38c-1.2.69-2.03,1.97-2.03,3.46,0,.37.07.71.16,1.05l-68.37,28.32-28.32-68.38c1.2-.69,2.03-1.97,2.03-3.46ZM743.65,251.46c-.09.34-.16.68-.16,1.05s.07.71.16,1.05l-170.89,70.78-70.78-170.89c.62-.35,1.13-.87,1.48-1.48l240.19,99.49ZM496.54,151.97c.69,1.2,1.97,2.03,3.46,2.03.37,0,.71-.07,1.05-.16l70.78,170.88-68.37,28.32c-.69-1.2-1.97-2.03-3.46-2.03s-2.77.82-3.46,2.03l-240.19-99.49c.09-.34.16-.68.16-1.05s-.07-.71-.16-1.05l240.19-99.49ZM254.48,255.97c.62-.35,1.13-.87,1.48-1.48l240.19,99.49c-.09.34-.16.68-.16,1.05,0,2.21,1.79,4,4,4,.37,0,.71-.07,1.05-.16l28.32,68.38-170.9,70.78c-.69-1.2-1.97-2.03-3.46-2.03-.37,0-.71.07-1.05.16l-99.49-240.19ZM358.86,501.05c.09-.34.16-.68.16-1.05s-.07-.71-.16-1.05l170.89-70.78,70.78,170.89c-.62.35-1.13.87-1.48,1.48l-240.19-99.49ZM605.97,600.54c-.69-1.2-1.97-2.03-3.46-2.03-.37,0-.71.07-1.05.16l-70.78-170.88,68.37-28.32c.69,1.2,1.97,2.03,3.46,2.03s2.77-.82,3.46-2.03l240.19,99.49c-.09.34-.16.68-.16,1.05s.07.71.16,1.05l-240.19,99.49Z" fill="#f28500"/>
  </g>
  <polygon points="500 443 459.69 459.69 443 500 459.69 540.31 500 557 540.31 540.31 557 500 540.31 459.69 500 443" fill="url(#radial-gradient)" stroke="#66d3fa" stroke-width="3"/>
  <metadata><?xpacket begin="﻿" id="W5M0MpCehiHzreSzNTczkc9d"?>
<x:xmpmeta xmlns:x="adobe:ns:meta/" x:xmptk="Adobe XMP Core 9.1-c003 1.000000, 0000/00/00-00:00:00        ">
   <rdf:RDF xmlns:rdf="http://www.w3.org/1999/02/22-rdf-syntax-ns#">
      <rdf:Description rdf:about=""
            xmlns:xmp="http://ns.adobe.com/xap/1.0/"
            xmlns:xmpGImg="http://ns.adobe.com/xap/1.0/g/img/"
            xmlns:xmpTPg="http://ns.adobe.com/xap/1.0/t/pg/"
            xmlns:stDim="http://ns.adobe.com/xap/1.0/sType/Dimensions#"
            xmlns:xmpG="http://ns.adobe.com/xap/1.0/g/"
            xmlns:dc="http://purl.org/dc/elements/1.1/"
            xmlns:xmpMM="http://ns.adobe.com/xap/1.0/mm/"
            xmlns:stRef="http://ns.adobe.com/xap/1.0/sType/ResourceRef#"
            xmlns:stEvt="http://ns.adobe.com/xap/1.0/sType/ResourceEvent#">
         <xmp:CreatorTool>Adobe Illustrator 29.8 (Windows)</xmp:CreatorTool>
         <xmp:CreateDate>2025-12-11T01:21:33+08:00</xmp:CreateDate>
         <xmp:MetadataDate>2025-12-11T01:21:33+08:00</xmp:MetadataDate>
         <xmp:ModifyDate>2025-12-11T01:21:33+08:00</xmp:ModifyDate>
         <xmp:Thumbnails>
            <rdf:Alt>
               <rdf:li rdf:parseType="Resource">
                  <xmpGImg:width>256</xmpGImg:width>
                  <xmpGImg:height>256</xmpGImg:height>
                  <xmpGImg:format>JPEG</xmpGImg:format>
                  <xmpGImg:image>/9j/4AAQSkZJRgABAgEAAAAAAAD/7QAsUGhvdG9zaG9wIDMuMAA4QklNA+0AAAAAABAAAAAAAAEA&#xA;AQAAAAAAAQAB/+4ADkFkb2JlAGTAAAAAAf/bAIQABgQEBAUEBgUFBgkGBQYJCwgGBggLDAoKCwoK&#xA;DBAMDAwMDAwQDA4PEA8ODBMTFBQTExwbGxscHx8fHx8fHx8fHwEHBwcNDA0YEBAYGhURFRofHx8f&#xA;Hx8fHx8fHx8fHx8fHx8fHx8fHx8fHx8fHx8fHx8fHx8fHx8fHx8fHx8fHx8f/8AAEQgBAAEAAwER&#xA;AAIRAQMRAf/EAaIAAAAHAQEBAQEAAAAAAAAAAAQFAwIGAQAHCAkKCwEAAgIDAQEBAQEAAAAAAAAA&#xA;AQACAwQFBgcICQoLEAACAQMDAgQCBgcDBAIGAnMBAgMRBAAFIRIxQVEGE2EicYEUMpGhBxWxQiPB&#xA;UtHhMxZi8CRygvElQzRTkqKyY3PCNUQnk6OzNhdUZHTD0uIIJoMJChgZhJRFRqS0VtNVKBry4/PE&#xA;1OT0ZXWFlaW1xdXl9WZ2hpamtsbW5vY3R1dnd4eXp7fH1+f3OEhYaHiImKi4yNjo+Ck5SVlpeYmZ&#xA;qbnJ2en5KjpKWmp6ipqqusra6voRAAICAQIDBQUEBQYECAMDbQEAAhEDBCESMUEFURNhIgZxgZEy&#xA;obHwFMHR4SNCFVJicvEzJDRDghaSUyWiY7LCB3PSNeJEgxdUkwgJChgZJjZFGidkdFU38qOzwygp&#xA;0+PzhJSktMTU5PRldYWVpbXF1eX1RlZmdoaWprbG1ub2R1dnd4eXp7fH1+f3OEhYaHiImKi4yNjo&#xA;+DlJWWl5iZmpucnZ6fkqOkpaanqKmqq6ytrq+v/aAAwDAQACEQMRAD8A9U4q7FXYq7FXYq7FXYq7&#xA;FXYq7FXYq7FXYq7FXYq7FXYq7FXYq7FXYq7FXYq7FXYq7FXYq7FXYq7FXYq7FXYq7FXYq7FXYq7F&#xA;XYq7FXYq7FXYq7FXYq7FXYq7FXYq7FXYq7FXYq7FXYq7FXYq7FXYq7FXYq7FXYq7FXYq7FXYq7FX&#xA;Yq7FXYq7FXYq7FXYq7FXYq7FXYq7FXYq7FXYq7FXYq7FXYq7FXYq7FXYq7FXYq7FXYq7FXYq7FXY&#xA;q7FXYq7FXYq7FXYq7FXYq7FXYq7FXYq7FXYq7FXYq7FXYq7FXYq7FXYq7FXYq7FXYq7FXYq7FXYq&#xA;7FXYq7FXYq7FXYq7FXYq7FXYq7FXYq7FXYqg9V1jTdKtmuL6dIUAJVWI5PxFSEXqx+WRnMRFllGJ&#xA;JoO0vWNO1S3E9jOsykAsoI5py6B16qfngx5IzAMTsVnAxNHmjMmxdirsVdirsVdirsVdirsVdirs&#xA;VdirsVdirsVdirsVdirsVdirsVdirsVdirsVdirsVdiqWza/YrMbe1D390po8FqBIUP/ABY5Kxx9&#xA;P22GRMx03ZCKz0NevQDcTppsJ6w21JZiCO80i8F+SofZsFE+X4/H612Qt3pOnx3Ntp9vDWa9YyXt&#xA;w5aSZraAqzq8rlmYO/poVJ+yTTpmXpoiAlk7th7zy+Qs/AONqCZEQ79z7h+vYfFVi0nT5p5rW4hp&#xA;NakNa3CExzLBKSyhJUKuoV+a0B6D3zX44izE9OXuP4r3BzZk0Jd/3hV9DXrIE286alCOkNzSKYAD&#xA;tNGvBvkyD3bLaI8/x+P1tey+HX7Fphb3QewumNEgugIy5/4rcFo5Ov7DHCJjrspimWSYuxV2KuxV&#xA;2KuxV2KuxV2KuxV2KuxV2KuxV2KuxV2KuxV2KuxV2KuxV2KqVzdWtrEZrqZIIRQGSVgignpuxAwE&#xA;gc1AtL/0ve3Yppdk0iMNru6rbw7ioIVgZX+hKH+bI8RPIMqb/Qklya6rdveKa/6Mg9C2oabGNSWc&#xA;bdJHYe2PBfP8fjzXi7kxhghgiWGCNYokFEjQBVA8ABsMmAxX4qlmkn61c3mpndZX+r2prUejbkry&#xA;H+vKXNe68cyc/pjGHdufef1Cvjbj4fUTPv2HuH7b+FKuon0J7a+6LG3oznt6UxAr/sXCmvYVzAy7&#xA;ES+HwP7a+FuZDcGP42R2XNayaCGeJoZ41licUeNwGUjwIOxxIVLv0JJbGulXb2ain+jOPXtqCuwj&#xA;YhkG/SN1HtkOCuX4/Hky4u9r9L3toKapZNGije7ta3EOwqSVUCVPpSg/mx4iOYWkwtrq1uohNazJ&#xA;PCagSRMHUkdd1JGSBB5MSKVcKuxV2KuxV2KuxV2KuxV2KuxV2KuxV2KuxV2KuxV2KuxVL7nX9LhY&#xA;RrN9ZuGXmltbAzSsKVB4pyoD/M1B75EyANdU0pE+YLw0UJpduf2m4z3J3H7IrCn3v8sG58vx+O9O&#xA;wVrXQ9PgmFy6tdXg6XVyxlkHX7HL4Y+vRAo9sIiAglH5JDsVdiqB1q5mhsTHbNxvLphb2rdSJJNu&#xA;dP8AitaufYZfp4AyuX0x3Pw/Xy+LTnkRGh9R2H48uaKtreG2toraFeMMCLHEvWioOKjf2GVTmZSM&#xA;jzLZCIiAByDc8Mc8MkEo5RyqUdfFWFCMhKIkCDyLOJINhD6ZPJJahJjyuYGMM58XTbl/s1o305DF&#xA;Ikb8xsfx582WQAHbkUXljB2KuxVAXWh6fPMblFa1vD1urZjFIen2+PwydOjhh7ZExBSCog+YLM0Y&#xA;JqluP2l4wXI3P7JpC/3p8sG48/x+O5OxVbXXtMnf0jL9XuQvJ7W4BhlApUng9KgfzLUe+ESBNdUE&#xA;JhkkOxV2KuxV2KuxV2KuxV2KuxV2KuxV2KuxV2KpX5lu3ttHmWEK13dUtLNHpxaa4PppUHqqluTf&#xA;5IOZGlxiUxf0jc+4bn9Q82rNMxjtz5D3pNoPl2bTJLuw02+ltZbaRZAsoE8M0MtSjvGSpDVVo/3b&#xA;J9mpzXYMUcYMIDhANge/7ft6budmyGdTlvY+0fgfNNBrWo2S/wC5iwZI1A5XtlyuYahSSWQAToNv&#xA;5CB/Nl9tHCOiZ2d9ZXsAns547iEmgkiYOtR2qK74QbQRSthQ7FXYqlif6Zrrsd4dMTgoI2+szqGY&#xA;790hKgH/ACzmSfRi85/7kfrP+5Djj1ZPKH3n9Q+9M8xnIdiqBb/RtWVukV8vAin+7ogWB+bRg1/1&#xA;RlJ9M/633j9n3NvOP9X7v7fvR2XNTsVdiqldXlpaQma6mSCEbGSRgi1PapwEgc1AtLzq1/dj/cXZ&#xA;MyEfDd3fK3i6VBVCDM/X+QA/zZHiJ5BlSV65oLanJaWGo3cl1JcSGVkjAghiihoXdIwWJJLLH8bt&#xA;TnUZI6SGXHPxfVGuXL1Hly7t5e8MfzM8c4+HtK/sHP8A4n4p9pUxksY1cBZoawzKvQPGeLUHYGlR&#xA;7ZDFImO/Pr72eSIB25IvLGDsVdirsVdirsVdirsVdirsVdirsVdirsVSZib/AMzqg3ttGj5t1obu&#xA;5UqvbrHAWr/xkGZf0YfPIf8AYj9cv9y0fVk8o/ef1D71TVgLS+stU2CK31S7bb+6uGARiTT7EwT5&#xA;AtmBPYg/D5/t/S5uPcGPx+X7P0JrljSlt75f025ma5RWtL5hQ3tqxhmPT7bLtIPhGzhh7YDEc2Qk&#xA;VGvmWxO4j1i3r1HG3ulUsetf3EhCn/ivpg3Hn+Px3LsfL8fjvV7DzBpt5Ktvza2vWFfqVyphn6Em&#xA;iPTmBQ7pUe+GwpiUXfXcVnZzXctTHAjSMB1PEVoPc9BlmPGZyER1askxCJkeijpFpLa2EaT0N1IW&#xA;muiOhmlYvJT2DNRfamT1GQSmSPp5D3DYMcEDGO/PmfeeaMyltdiqG1K2e4tHWKgnQiSAnoJIzySv&#xA;sSKH2yvLEmO3Pp72eOVHfkqWtzHc20VxHXhKocA9RUVofcd8lCQkAR1RKNGkNea3p9rKbfm092BX&#xA;6pbqZZtxUVRK8Qf5moPfEyA2RRUa+YLw7BNLgr1PGe5Ir7fuYzT/AIyYPUfL8fjvTsFW00Owt5lu&#xA;GVrm8UUF3csZZR1rxLbIN+iAD2wiI59UWUfkkJZpYF1e3mpHdGb6ran/AIqgYh2/2Uxf5qFzJzem&#xA;MYf5x95/UK+NuPh9UjP4D3D9t/Yqj/R9WI6RXy8h/wAZohQ/S8dP+AzA+mflL7x+sfc5nOPu+7+3&#xA;70dlzW7FXYq7FXYq7FXYq7FXYq7FXYq7FXYqo3t3BZWc95OSsFtG80rAVISNSzGg9hk8cDOQiOZN&#xA;MZSEQSeQQXl2zuLfTFku14394zXd6O4lmPL0+rVES0jXfooy3VTEp1H6Y7D3Dr8efvLDDEiO/M7n&#xA;8eXJHXlrDd2k1rMKwzo0cgGx4uKGn35jSiCKLfGRiQRzCF0S7muLBVuGDXlszW12R3liPEtSg2cU&#xA;cexGRxkkb82WWIEtuR3CPybW7FVC+0+xv4DBe28dzCTX05VDAGhFRXod+uJCQaY5f6Rfpf29hpN6&#xA;7QxgXktleM00K+iyegvqbzrzkXkKuR8J27ZfiiYQMwf6Pzvi+zbrzGzTkkJyESP6Xy5fb7uSZf4i&#xA;+qnjrFpJp9DQ3X99aGr8VProPgBqP71UzG4u/wDH482/hvkm0M0U0SSwuskTgMkiEMrA9CCNjkmL&#xA;pZYoo2kldY40BZ3YgKAOpJPTFUs/Tv1k8dKtnvq7C4/urUUahPrMPjHX+7V8hx3y3/H45Wy4e9BW&#xA;ml3sl3NaaldssTg3MdpaM0MR9Rm9UeoP3zcXapo4HxDbtlMIkSMSfMfHn57H72yRuIPw/Hw+5PLS&#xA;ys7OEQ2kCQRA14RqFFfE07++ZAAHJptWwq7FUDrN1NBYstu3G8uGFvaEitJZTxDU7hN3b2By/TwE&#xA;pb/SNz7h+vl7y055kR2+o7D3n9XNE2lrDaWsNrCKQwIscYO54oKDf6MryTMpGR5lshARiAOQUtTg&#xA;kltC0IrcQETQDxdN+Pb7Yqh9jlGWJMduY3H48+TbjNHfkVeCaOeCOeM1jlVXQ9KqwqMlGQkAR1Yy&#xA;FGivySHYq7FXYq7FXYq7FXYq7FXYq7FXYqkuuUvb/T9GFGSV/rl6Nv7i1ZWVSD/POYxTuobMvT+i&#xA;Msnd6R75fqjfxpoy+oiPxPuH7a+1OsxG92KpWa2evg7+hqiUPWguYFr8qyQ/8m8r5S9/3/2fc3fV&#xA;Dzj9x/UfvTTLGl2KuxVLND/0hJ9Ubc378oD4WyfDBT2ZayfNjmTqfTUP5vP+t1/V8HH0/quf877u&#xA;n6/imeYzkMa8xaVZ6fZTX2l87DU5nSK3FqwjSa4mb04hLEaxMOclWYryAqa5LHp/ENA8OxN93Umu&#xA;RO3X3LLNwCyOLlt+i+YVdC0y1vLSG71EvfahCzRzm5YOsc8TcJPTjH7tfiSqsF5EUNcxsMSYjiPF&#xA;Lr7x5N2ahI8O0enuLIMvaUDqv7lYr8dbRuUp/wCKW2l/4EfH/scpzbVL+b93X9fwbMe/p7/v6fq+&#xA;KOy5rdirsVSwf6XrpPWDTEp3obmda/fHD/yczJ+jF5z/ANyP1n/cuP8AVk8ofef1D/dJnmM5DsVQ&#xA;On/uLm5sTsqN68H/ABjmJJH+xkDfIUynHsTH4j4/tv4U2T3AP42/Yjsua3Yq7FXYq7FXYq7FXYq7&#xA;FXYq7FXYqk3l6t3Lfa02630gjs96j6pbckiI2G0jtJKD4OMy9V6RHH/N5/1jz+W0fg0YdyZ9/L3D&#xA;8E/FOcxG92KoHW7OW609/QAN3Ay3FpWg/fRHmgqeganFvYnIZASNubZikBLfl1RFldw3lnDdwkmK&#xA;dFkSvWjCtD7+OSibFsZRMSQeithYsT8zecNM+p/U7EzXwupo7O6urGKS4jt0ncRuzSRBl50NFVSW&#xA;5EbZsdJpiJcU6jwiwJGrPQb+fwrq6zV62HDwxuVkAmIJq9uY6+XO2QaXqWl31sH02eKaGOiFYiP3&#xA;ZA+wy9UIH7JAzCywnE+obudhywmPQQR+PkjMrbUlkP6Q8zRxA1t9GT1pPA3VwpSMdOscPMkV/bU5&#xA;lj0YSeuTb/NHP5mv9KWg+rJXSP3n9n3hVjP1LX5IyaQaonqp4C4gUK46ftxcSN/2GzAG0vf9/wDZ&#xA;9zmn1Q/q/cf2/eE1yxpUbu5s4Iibp0SN/h4vT4qj7IH7VfDITlEDdlGJJ2SrRdatxbC2uRLbeg7W&#xA;8M1yjRLKkZ4owZwByK0qDvWu2Y2nziuGQMaNDiFWOh+I+Pk35sW9xIle+29d6d5mOMpXl1FaWk11&#xA;MSIoEaR6bmiipoPHJ44GchEcyxnMRiZHkEPo1pNbWCC4AF3MWnu6UI9WU83UEdVWvFfYDLNRMSnt&#xA;9I2HuH6+Z82vBAxjv9R3PvP4pG5Q3OxVA6n+5e3vx0t2Kznp+5loHPyVgrn2XKcu1S7vuP4B+Dbj&#xA;3uPf9/42R2XNTsVdirsVdirsVdirsVdirsVdiqVeZZ5104Wdq5S81KRbO2da1QyAmSQe8UKvIP8A&#xA;VzJ0kRx8Uvph6j8OQ+JofFpzk8NDnLb8e4bpjb28NtbxW8CCOCFFjijXoqqKKB8gMolIyJJ5ltAA&#xA;FBUyKXYqhtQ1PT9Og9e+uY7aKtA0rBatSvFa/abwA3ycMcpmoi2vJljAXIgBjmmapqrXl3pul2fo&#xA;ws73VrcagHg4xSsOfG34rLJSYuaNw2I36YwxxhIiZ86jvz578ufv5hcmaeSIlCPkTLblyPDz5d/D&#xA;yKZDy0l0eetXUmqHvbuPTtBvWgtk+Fx/xlLn3y38xw/QOH7/AJ/qpo/K8X94ePy5R/0v67TG7063&#xA;uNOksAPSgeP0kEYC+mAKKUHQcNivhlFm7b54hKHDyFJbDpun61aw3l5AItUjDQzXVuzQzxyxFo5E&#xA;SaMrJw58qDlQjLYZpQ2B27uY+RaI4o5YiUh6+VjY2NjuN6U7t9f0S0mujcR6rp9tG0sq3NILlUjX&#xA;kxEsa+lJsDQGNfdstgIZZCNcMj3bj5HcfM+5EvFxAm+OI79j8xsfkPeoeV9YskiEGoF7HWtQle5n&#xA;tbtXidpJGoscTP8ADKI41VB6ZOwFQDlmrxkn0+rHEUCO4dT3WbO/ejT6iPKXpnLodvl0PwRmv3UT&#xA;wcbTlcalZyLPBDAGdg6HdHKbIJELIeXY981GbIOQ3kOg/G1+btcMd99onv8AxvXNEW0moalbRXCy&#xA;raWs6CSP0qSSsjiqnm44LsdxxPzwjjmLvhHluf1fYfexkIwNVZCsLO1s1aaGPlcsAgmkJkkYsQFB&#xA;diW417VpluLDEH9PX5tWTLKkSkMawCEjmnHiwbfkO9fnk5Hi5sYikJ+ilh3sJWtD2iX4of8AkUdl&#xA;/wBhxyjwa+k8P3fL9VNviX9W/wB/z/XaW6ld3j3lpp93BziV1urqS2DSVjhNY6x0Lpym4Gg5bA79&#xA;cycOSWOMpyH9EEd557c+V8rqxu0ZYRnIRB8yD5ct+XOudcindtdW1zH6lvKsqVoShBofA06H2yqM&#xA;xIWDbbKJHNVyTF2KrZY45Y3ikUNG4Kup6EEUIwEAiikGkLpUkhtTBMxae1YwSserFQCrH3dCrfTl&#xA;eEmqPMbfj3jdnkG9jkd0ZlrW7FXYq7FXYq7FXYq7FXYq7FUltv8AT/MtxckVt9JT6pAdiDcTBZZ2&#xA;/wBinpqD7uMy5+jCB1nufcNh9tn5NEfVkJ6R2+PX9H2p1mI3pXeeY9Nt7hrSIve36fasrRfWlWtP&#xA;7ynwRdesjKMuhp5EWdo952/t+FuPPVQieEeqXcNz8e740pcPM9+avJHo1saEJGFubsjfq7gwRnpU&#xA;BZP9bJXij/TPyH6z/sfcwrNP+gPnL/iR/sveiNP8v6XYzfWY4jLekcWvbhmmuCKUI9WQswH+StF9&#xA;sjPPKQrp3DYfJsx6aEDYFy7zufmf7Fmu1tvq2qrt9Rf/AEgjkf8ARpaLNUDsnwydP2Mxcm1S7vu/&#xA;G/wc3Fvce/7+n6vimmWNLsVSkzQ6brEwmdYrTUE9cO5Cqs8IVJKsafbj4ED/ACWOMpACz0aIAjLQ&#xA;/j3+I5/MV8ixv8w/OemWGnW8cyO9rLKks5ZCqyxQsG9Naip5ycAfh4leW/hm9mY55ZE4xyHM7AE/&#xA;adrIra63ae0tRDBAcZ5nkNzt9g35/c8x8z/mz5h16J7W3iWCzelUZQQab/Y37ivxMwzdabsXHDfI&#xA;TI/Ifj3kvOavtzJkHDACEfmfn+oBT8ufmj5o0NVikb1rZa/u2HNNx/vslSKeEboPY5fl7KwSFRHD&#xA;7tvx8i4+DtfPjNmXF/W3/b9r03yN+YGm3Wmy+pBLFaRyPIksSNNFFHIxbhJwHqJxbnuU4qtPi8ed&#xA;y9nyxTMLB6jpYP2bHoDdVs9Th7VhmgMhBHSXUAj3b7jeyKu92Z293aX7xzWk0dxbIOayxMHRmaqi&#xA;jKSNhWvzyiUTAURRcqM4z3ibCMyptdiqWaJ/pH1jVG3+uv8A6Od/95oqrDSvZ/ilH+vmTqfTWP8A&#xA;m8/6x5/LaPwcfT+q5/zuXuHL9fxRVzptpcP6rIUnAoJ4yY5APDmtCR7HbMKWKJN9e/q5cchG3RS4&#xA;6tbfZZb6IVqHpFN9BUCNj7UX55Gpx/pfYf1fcy9J/o/d+v718Gp2skghctBct0gmHBz/AKtfhf8A&#xA;2JOSjlBNcj3H8b/BicZAvmEXljBAy/6PqsUo/u7xfRk9pIwXjP0ryBP+qMpPpmD/ADtvj0/T9jYN&#xA;413fj8fFHZc1uxV2KuxV2KuxV2KuxV2Kpfr+t2WiaTc6lduqxwISiswTm9PgjUnux2GX6bTyzZBC&#xA;PX8X8GrNmjjiZS5BJ9D1C7TS4LXSrNtQnIMl1qMpa2s3nlZpJnV3UySK0hJX042WhAqMyNREGZMj&#xA;wjoOcqGw8uXebcXFmPCBjjxefKN9fM/AEI46DeXwrrV/JOjVBsrTla21CKUbixmk715ScT/LlPji&#xA;P0CvM7n9Q+V+bZ+XlP8AvJX5D0j9Z+deSa2lnaWcC29pBHbW6V4QxKqIKmpoqgDrlEpmRsmy5MIR&#xA;iKiKHkq5Fk7FVssUcsbxSKHjkUq6MKgqRQgjFINJLpGr29vbNp1zMZb/AE9zbNGoMkzoorFJwXk3&#xA;xxlSW6VrmNDPEekm5R6cz5fY5GTDI+oD0y37h5/ajueq3P2EWxiP7UlJZiPZVPpr7Hk3yydzl/RH&#xA;zP6vv9zVUR5/d+PkhNU0cC1N3CHutStGFxbvIxZ2aM8mjUbInqLVPhAG+ShhiDZ3Pefxt8GnUTkY&#xA;enat6HWunnfLd4T+aPmRNf8AMpWB+dpGF9I0ArGtRH868nkFezjwzt+ztP4WIXz/AEn8AfB4ntbV&#xA;eNm2+kIPStKWRRtl05uvAVdS0lY0NRghNJCYflX5gXRPMwglbjbXFQ9aUCtQP16Uorn2XNd21p+P&#xA;GMg5w+4/i/g7nsHU8GU4zyn/ALocv0j4vbW8tWErG8jElhqMzepLdWjelIWJ5ASAVjl49KSKwzQn&#xA;USHp+qI6H9HUfCnpPysT6h6ZHqNvn0PxBaEnmfT6CWNNZtx/uyHjb3QG/WNz6Mh6VIdPZcaxS5eg&#xA;/MfrHyPvReaHMcY8tpfLkfnH3Ia+8y6bfQppdrcGDU79xbLaShre6jVhylkEcgV/giDFWA4lqUOW&#xA;4dNKJ4yLhDe+Y8h3bmtu5ryaqExwA1OW1HaXmaO/LrytkMccccaxxqEjQBUQCgAAoABmESSbLnAA&#xA;CguwJdiqyaCGeMxTxrLG32kcBlPzBwSiJCiLCRIg2EINOng/3huWjUdIJqzRU9qkOvtRqDwyrwiP&#xA;pPz3H6/tryZ8YP1D9CHv7mZrSSG8gNtJs0NyhMsCyIQ0bFlAZQGAJ5KB75XkkTGpCvPmL6fgimcI&#xA;i7Bv7CjdN1CDULKK7gYMkqgkAhuLftKSO6nbLcOWOSIlHkWvJjMJGJROWsHYq7FXYq7FXYq7FXYq&#xA;l+v6JZa3pNzpt2itHOhCsyh+D0+GRQe6ncZbhzSxyEomiGvLijONSFhI9D0q8Ol291o16+mzKDHd&#xA;aZKGurJZ4WaOZFjkYSxhZAQvpSqtADQ5k5M4MqyR4vMbS/UfiCfNpjhIHoPD5cx+z4FHHzHfaepG&#xA;u6dJbooJa/s+V3a0VQSzcVE8fevKPiP5jkPy8Z/3cr8j6T+o/O/JPjmP1ivMbj9Y+XxTizvbK9t1&#xA;ubK4jubd68JoXWRDQ0NGUkdcxpwlE1IUfNvjMSFg2FbIsnYqtkkjjjaSRgkaAs7E0AAFSScIF7Kk&#xA;en6FZ3lu2o3MLQ6heubgzxlobiNXHGOPmhVhxi4hl6Fq7YM+HHxmgL5WOZrzHP8AU2xzzAq9u7mP&#xA;kiTHr9lUxyJqkA/Yl4wXAG3R1HpP32Kp/rZXUh5/f+r7k3CX9H7R+v7/AHILWfMStYtY25lstXvX&#xA;W0topkZHRpX4NKhFUcRLWSqsRtSu+ZOklA5Bx8hvR610875bXzaNRjmI+ne9rHS+vl37vF/zS8sR&#xA;aB5jSS2ThZyqoiFa0Sh4e+3FkHsozqOy9UcsCJH1A/e8P2rpfBzGvpO4Qek6kkag1zLnBwQVbVNU&#xA;SVCSd8jCFKSmf5T+WYdb8wT3l1H6lnaoyEHYMXFCNt+h/HMPtfMI4eD+ds7XsTAZ5xP+Zv8AHo9b&#xA;0/zPBHbCwk9W/wBYtGNtPb2yNJIWjfgsjsaRxiQDnykZR132zl8GKUo2dq2s/juo7d71+pzwjKo+&#xA;q9wBv+wUbG5HJECPzPqFDLImjW5/3XDxuLojfrI49GM9KgI/s2X3ijy9Z+Q/WfmPc49Zp8zwDy3l&#xA;8+Q+Uvehr7y1ptjCmqWtuZ9TsHFyt3KWuLqRVHGWMSSFn+OIsFUHiGpQYDqZyHDdRPQbD5DZryaW&#xA;EBxgXOO9neXmLO/LpytkMckckayRsHjcBkcGoIIqCDmO5wIIsLsUuxVZNPDBGZZ5FijX7TuQqj5k&#xA;4JSERZNBIiSaCEGozz/7w2zSKek81YYqe1QXb2otD45V4pP0j57D9f2V5s+AD6j+lTnsZWiZ76c3&#xA;BOyW6AxQlmNFBVSWYE9ebEe2SjhMj6zf2D8e8oll4R6Qi7Kyt7O2S3t41jjT9lFCgk7k0HiclGEY&#xA;7RAiO4MTKR3kbPmr5JDsVdirsVdirsVdirsVdiqS23+geZbi2Jpb6sn1uAbAC4hCxzr/ALJPTYD2&#xA;c5cfVAH+bt+r9P2MBsfenWUs0ovvK2lXNy17CHsNRf7V9ZN6Mrbg/vKfBL9npIrDMiGqnEcJ9Ue4&#xA;7j4d3wponp4k2Npd42/t+Kj6nmzTiA8ceuWuwDxFbW8Aqa8kci3lNKbho/8AVydYZ/0D84/8UP8A&#xA;Ze9F5Y/0x8j+o/YitN8y6RqE31aOUw34HJrC5VoLkClSfSkCsQP5lqvvleTTTgLIuPeNx8x/ayhn&#xA;jI117jsfk7Wv9I+r6WN/rrn6wN/95oqNNWnZ/hjP+vgw7XLu+/p+v4NyZ5SrsVSFra21jzBcG4iS&#xA;4sdKj+rLHIFdGupwskpKmv8AdxemAaftMMypgRwiJ55N/wDNGw+Zv5BphInJY/h+8/sr5lI/PPkP&#xA;Tr/TYR60sdrHIkbxu7SxxJIwXmnI814vwJ+LiF5fD416TPPBPigfgdx+Ps8mntLBDPAeIOR5jYi/&#xA;sO/Pr5vMfMn5YeY9Aje4RhLaJSsvKqCtB9ui03NKuqjOh03bOOe0xwn5j8e8B5zV9h5MY4oETj8j&#xA;8v1EteXfy08za6izFfTtmr+9J4R7dvUIYncUrGjj3GX5e1MMBYPF7t/x8w4+HsjUTNGPD/W2/b9j&#xA;1Typ+XVjpmnNazXUs1s7Nyt4maCJ6bcpOB9STvsz8CP2c0mr7QlOVgAH5/s+y/N6DR9lxxxIJJB+&#xA;A/WfnXkncVpaaPq8C2sMdtY6gn1cxRKsaLPEGkjIVaD44+YO37K5qZyJnZN8X3/2fcHd44AY+GIr&#xA;h+4/t+8p1k2t2KpZon+jfWNLbb6k/wDo43/3mlq0NK9k+KIf6mEuPp/TcP5vL3Hl+r4Iq51K0t39&#xA;JnLzkVEEYMkhHjwWpA9ztlUssQa693Vy44yd+ily1a5+yq2MRrUvSWb6ApMan3q3yyNzl/R+0/q+&#xA;9l6R/S+79f3L4NMtY5BM4ae5XpPMebj/AFa/Cn+xAyUcQBvme8/jb4MTkJFcgi8sYKLfvLpV/ZhH&#xA;Nv8AWaoX8K/hkxtH3sDufcrZBm7FXYq7FXYq7FXYq7FXYq7FUq8y29w2nC8tVL3mmyLeW8a9XMYI&#xA;kjHXeSJnQfPLcRF0eR2Yz5Jjb3ENzbxXEDiSGZFkikHRlYVUj5g5WRRosgVTArsVQupaTpmp2/1f&#xA;ULWK6h6qsqhuJpTkpO6tvsRvlmPLKBuJILCeOMxUhbG9O0jWY7y71HSb/wBaBXe2trTUme4DRxsO&#xA;fC45GaOswkFW9Tam2wzMyZoECM40eZMdvs5Hav5vvavCnH6T8Jb/AG8/vTFfNSWp9PXbSXSG6fWX&#xA;IlsjViBS6T4Ur/xaEPtlX5Xi/uzx+X8X+l/4m1/MV9Y4fu+f66TG/wBWtLPSZtU5Ca3ji9aMxkN6&#xA;gIqgQ9CXJAXxrlOLCZzEORJr3f2Ns8gEeLolllfWGg2EFjfTiXVpQ1xc21urTTyTTM0szpDEpfhz&#xA;LUPGgGX5YyyyMoj0chewobDc7XTjjLDEBGR9fOhufPYb03cjzBrFtLbi3j0qxnQxyNc0nuWR1owE&#xA;UbelH1NCZH91yFY4czxny2Hz5n5D3sZeLlBFcET37n5DYfM+5T8vaJYlRcX4e+1iykeGW6u2aV1k&#xA;Q1DxK3wQh0KuPTA2IrXBPPIih6Y9w/T1PxtGmwR5y9U4mrO/y7r57I3UNFsmc3Ftzs7+ZgBc2zem&#xA;zMTWsij4JKCp+NTtmMMQJvl7vx99uxOaQFcx5/jb4U0ja5p6KkkSalbIAA8FIbgADasbn036bkOv&#xA;suQMpjn6vv8Ax8vcyEYHl6ftH6/v96y7u7PWLOa0tJhHqUYWaCCZTFKksREkbNHIOfHnSppQjBKQ&#xA;mKHNlGJgQSPSmFhqEF5p8N8p4RSxiRgxA4bfEreBU1ByYkCLapQIlSl+lVm2sImuz2lX4Yf+Rp2b&#xA;/Ycsr8a/pHF93z/VbLw6+rb7/l+ukt1K0vEvLTULufhEzra3UdsWjpHMaR1kqHfjNwFRx2J264Rj&#xA;lL6j8B+vn9zRlnGEhIDyJPny25c653zKd21rbW0fp28SxJWpCACp8TTqffJxgIigKbZSJ5quSYux&#xA;VpmVVLMaKoqSewGIFqSp2qsI+bijynmwPUV6D6FoMnM713MYDb3quQZOxV2KuxV2KuxV2KuxV2Ku&#xA;xV2KpN5eraS32jNstjIJLPag+qXPJ4gNztG6yRAeCDLcu9S7/vH4thHbZOcqZuxVBaxdzW1g5tyB&#xA;dzFYLWu49WU8EYjuFryb2By3DEGW/Ibn3KiLO1itLSG1hBEUCLGldzRRQV98hORkST1VVyKsM82e&#xA;TdLjsG1DTkmsRZzRXt5Z2MslvFcR27iRwY4iq+pxUlWUBuQG+bLTa+YNSqVgxBkLIvbmfu5eTg59&#xA;FCQsXGjZ4TV1+OfNk+lafpNlaqNMhiit5QJOcQB9So2dnFS5I/aJNcwcmSUj6i5OLFCAqIoIzK21&#xA;LH/0PXUkG0Opp6T+AuIVLIfm8XIE/wCQow9HHPpyX0n94/WL+QRo/eXRP7MI4j/XYVP3LT78lyj7&#xA;23nL3K2QZoXUbHTru3K38UckMdX5SU+Cg3YN1UgdwcBgJbVbKMzHkUo8t6FbCxFzcerOt1LJdW9v&#xA;cu8qwpM5dBxcn46GrE78q75V+ShjkRZlv/Ebo9a+PLr5t+XVSnWwG1bbX+PkyHLnGUry1iu7Sa1m&#xA;BMU6NG9NjRhQ0PjiGM4CUTE8ih9Gu5rmwT6wQbuEtBd02HrRHi7AdgxHJfYjCQ14JmUd/qGx94Ru&#xA;Budiqjc/GY4O0hq/+ou5+80H05OG1lhLfZWyDN2KuxV2KuxV2KuxV2KuxV2KuxV2KpLrlLK/0/WR&#xA;RUif6nenb+4umVVYk/yTiM17KWy7HuDH4/L9jCWxtOspZuxVLT/peuAdYNMSvehuJ1p98cP/ACcy&#xA;76YecvuH6z9ypllKuxV2KpN5aJtkutFf7WlycLcb72knx29K9kWsXzQ5bl3qXf8Af1/X8WEO7uTn&#xA;KmaQa9qUN1Y3FvpaPqGpQn1LdLcBkS4gbmgklJESfGoDKWqRXbJAOFqcolEiHqmOVd47zyHzV9N1&#xA;uBYIYtSifTL6WheG5oFMsm5WOYExP8R2CtX2wy3Ns8WcUBMcEj39/keRTjIOUlut/v0g0xdzfvxm&#xA;HhbJ8U1fZlpH82GXYdrl/N+/p+v4KmWUq7FXYqlg/wBE10jcQamle9BcwLT75If+TeHo4/05PKf3&#xA;j9Y/3KZ4HIdiqjB8ckk3Yngn+qm34tX8MnLYAMI7klWyDN2KuxV2KuxV2KuxV2KuxV2KuxV2KqN7&#xA;aQXlnPZzgtBcxvDKoNCUkUqwqPY4YyINhBFoLy7eXFxpix3bcr+zZrS9Pcywnj6nRaCVaSLt0YZP&#xA;LEA7cjv+PuRA7I67uYbW1muZjSGBGkkI3PFRU7ZGMTIgDqyQ2jWs0FirXC8bu4JuLoA1pLKeRWvc&#xA;Jsi+wGTzSBltyGw/H2qjsqV2KqV1eWlpEZrqZIIgac5GCip6Cp740xnOMRcjQYzqmpXiatZanp1o&#xA;6wTcdPubm5Roo2E7r6DcKiY+nMeIqgHxnfvl8BcTE+/9f2fc45yykbiPidvs5/Z8U4/Qn1n4tUuH&#xA;va9bf+6tutaeip+Me0rPlNsvy/F9Z4vLkPl+u0xjjjjjWONQkaABEUAAAdAAMDeAAKDpI45I2jkU&#xA;PG4IdGAIIPUEHFSARRS79CfVvi0u4eyp0t/72261p6LH4B7RMmG2j8vw/QeHy5j5fqpLbDUrz9IX&#xA;N/qNo7Qx1s4Lq1UzRqIWPrNwH75ecgoaIR8A375dkFRER7/1fZ96+LKP1D4jf7Of2H3sgtby0u4h&#xA;NazJPETTnGwYVHUVHfKKboTjIXE2FXFk7FUDrNrNPYs1uvK8t2FxaAmlZYjyC17B90b2JwhpzwJj&#xA;t9Q3HvH6+SJtLqG7tYbqE1hnRZIydjxcVG304GyExKII5F1y7LEQn945CJ822r9HXJQFndZHZURF&#xA;RFRdlUBVHsNsBNm0gU3gS7FXYq7FXYq7FXYq7FXYq7FXYq7FXYqkzA2HmdXG1trEfButBd2yll79&#xA;ZIA1f+MYy36oecfuP7fvYcpe9W1Sl1e2emjdGb61dD/iqBgUH+ylKfNQ2Sx+mJl8B8f2foZpnlCo&#xA;G61mxgma3VmuLxaE2luDLKK9OQX7AP8AM5A98NNM88Qa5y7huf2fFSprt31KaZAT24z3JFff9zGf&#xA;+RmOzH95L+gPmf1D/ZK1po1hbTC4CGa7Ap9bnYyy0IoQrvXip/lWg9sSWUMEYm+cu87n8e5U1Owg&#xA;1HT7mxnr6VzG0bEUqOQpyWv7S9QfHDCRiQQ2yFikPoF/Ne6XFJcUF7EWt71VpQXELGOWgHYsvJf8&#xA;kjJZI1LbkiBsJjlbJ2KoPV7uW1sJHhobmQrDag9DNKQkdfYM1W9q5ZigJS35dfcqtY2kVnZw2sVT&#xA;HAiopPU8RSp9z1ORnMyJJ6qoXejWFzMbgoYbsin1uBjFLQCgDOlOSj+Vqj2wAtM8EZG+Uu8bH8e9&#xA;Rprtp0KanAD34wXIFfb9zIf+ReOzH95H+mPkf1H/AGKra6zYzzLbszW941SLS4BilNOvEN9sD+ZC&#xA;R740yhniTXKXcdj+34I7A3JZpdLW9vNNOyK31q1H/FU7Euv+xmD/ACUrhLj4fTIw+I9x/bfwpGj9&#xA;5dH+WEU/2bD+C/ryXKPvbecvcrZBm7FXYq7FXYq7FXYq7FXYq7FXYq7FXYq7FUs8yWclzpExhKrd&#xA;23G6s3enFZoD6iVJ6KxXi3+STlmKVS35MZjZJvLXmVNbS51XSbaS6N1J6StLSCKGOEUSORzyJJLM&#xA;/wACvTlQ5dqMZxkQPT7z+K+DXLJK+ERJPyHz/Vac/ou9uhXUrxmQ9bW15QRf7JwTM3/BhT/LmNbH&#xA;wZS+s/AbD9f215I61tLW0hENrCkEI3EcahFqeuwpgboQjEUBQVcWTsVdiqTJWw8zSIdrbWYxIhJN&#xA;Bd2yhGHTrJAFIFf91tlv1Q/q/cf2/ew5S96c5UzdiqWN/peuIo3h0xObEHb6xMpVRt3SEtUf5Yy4&#xA;emHnL7h+37lTPKVdirsVUrq0tbuEw3UKTwncxyKHWo6bGuLGcIyFEWED+i721FdNvGVB0tbrlPF/&#xA;sXJEy/8ABlR/Lhtp8GUfoPwO4/X9teSUeYPMKaQbTU9Wt3svqsvpSTJ+/hkinorqrqAw4sEf40Un&#xA;jQVrhAcXU6nwqnMcNGu8EH8A7gctmS2i0gViQWf42I6Etuae3hjM2XYQ5KuRZOxV2KuxV2KuxV2K&#xA;uxV2KuxV2KuxV2KuxV2KpZeeW9IuZBMIfq12q8EvLVjBMq0oBzj4llH8rVX2yyOWQ26MTAKJXzPY&#xA;GqNHrFsP2X4212BUftKBBIfbjH88Pol/RPzH6/vR6h5q1n5i0y4uFtJGazv26WV2phlJ3/u+Xwyg&#xA;cT8UZYe+CWIgXzHl+PvSJhM8rZOxV2KpZ5js7i400y2i87+ydbuyXpyli39PqP71OUZ9myzFIA78&#xA;jsxmNkdZ3cF5aQXdu3OC4jWWF6EVR1DKaH2OQlEg0Ug23c3ENtbS3MzcYYUaSRutFQVJ29hjGJJA&#xA;HVKF0a2mhshJcLxu7pjcXS9SHk34V/4rWiD2GWZpAy25DYfjz5qjsqV2KuxVA3OtWMMxt0Zrm7HW&#xA;1t1MsgPbnT4Ywa9XKj3w00zzxBrnLuG/9nxpSprt2fiZNMgPZeM9yR/rGsMZ+iT547Mf3kv6A+Z/&#xA;UP8AZKttomnQSet6Xr3JXi1zOTLKQeo5vUhT/KtB7Y2yhggDdWe87lHYG52KuxV2KuxV2KuxV2Ku&#xA;xV2KuxV2KuxV2KuxV2KuxV2KqN3ZWd5AYLyCO5gYgtFMiyISNxVWBGGMiDYQRaV/oO/shXRtQeJF&#xA;G1lecrqDpQBWZhOntSQqP5ct8QH6h8tv2MeEjk3/AIhltDx1mxksVFf9MjP1m0oKbmVFV4xvuZY0&#xA;Hvg8K/pN/Yfx7l4q5prb3FvcwpPbypNDIKxyxsGVh4hhUHKyCNizBVMCpLoIFjeX+jGipBJ9bsgA&#xA;APq10zNxFP8AfcwkWlNl45dk3Al8PiP2MI7bK+rD61c2mmjdZX+sXIpUejbkNxP+vIUFO68sOL0g&#xA;y+A95/Zf2M0zyhVk00MMTSzOsUSCryOQqgeJJ2GKJSAFnkl/6ZkudtLtXu1NKXLn0LbfuJGBZwex&#xA;jRh74aaPHMvoHF58h8+vwBd+iry631K8eRD1tbatvD9LKTK3vV+J/lxtfBlL65fAbD9f215I+2tb&#xA;a1iENtCkEK1KxxqEUV3Oy0GBujARFAUFTFk7FXYq7FXYq7FXYq7FXYq7FXYq7FXYq7FXYq7FXYq7&#xA;FXYq7FXYq7FXYqlVx5a05rhrqzMmm3jnlJcWbCMufGSMhopDv1dDloymqO482PAFL6z5lsKC5t01&#xA;a3HWe0pDcAAftQSNwb3KyD2TDUJcjw+/9f7PiiyPNA6hrmlvd2mq2s4E+nsYtRtZA0U6Wlyyo7PD&#xA;IokVUkEcnIgDipod8nHHKjE9eXvDEyHNFWmq2CXFzqFxLWW8ISzt0DSTNbQEorJEgZ2DOXfkB9ki&#xA;vTI5RQEe7n7z+AFnmjHYnfu5n5c0X6+uXe0EK6fCf923FJZiP8mKNuC+xZz7rlOzDiyS5DhHnufk&#xA;P1/BfDodksy3FyXvrpDySe6IcqfFEAWOM+6KMbTHTxuz6j5/ih8AmGBvdirsVdirsVdirsVdirsV&#xA;dirsVdirsVdirsVdirsVdirsVdirsVdirsVdirsVdirsVdiqA1rQdJ1q0a11K2S4jZWVWYDmnIUJ&#xA;jfqp9xlmPLKBuJQQCu0jRdM0izS0sIFhiRVQkD424CgLt1Y07nIzmZEk9WMccY3Q5o3Is3Yq7FXY&#xA;q7FXYq7FXYq7FXYq7FXYq7FXYq7FXYq7FXYq7FXYq7FXYq7FXYq7FXYq7FXYq7FXYq7FXYq7FXYq&#xA;7FXYq7FXYq7FXYq7FXYq7FXYq7FXYq7FXYq7FXYq7FXYq7FXYq7FXYq7FXYq7FXYq7FXYq7FXYq7&#xA;FXYq7FXYq7FXYq7FXYq7FXYq7FXYq7FXYq7FXYq7FXYq7FXYq7FXYq7FXYq7FXYq7FXYq7FXYq7F&#xA;XYq7FXYq7FXYq7FXYq7FXYq7FXYq7FXYq7FXYq7FXYq7FXYq7FXYq7FXYq7FXYq7FXYq7FXYq7FX&#xA;Yq7FXYq7FXYq7FXYq7FXYq7FXYq7FXYq7FXYq7FXYq7FX//Z</xmpGImg:image>
               </rdf:li>
            </rdf:Alt>
         </xmp:Thumbnails>
         <xmpTPg:MaxPageSize rdf:parseType="Resource">
            <stDim:w>1000.000000</stDim:w>
            <stDim:h>1000.000000</stDim:h>
            <stDim:unit>Pixels</stDim:unit>
         </xmpTPg:MaxPageSize>
         <xmpTPg:NPages>1</xmpTPg:NPages>
         <xmpTPg:HasVisibleTransparency>True</xmpTPg:HasVisibleTransparency>
         <xmpTPg:HasVisibleOverprint>False</xmpTPg:HasVisibleOverprint>
         <xmpTPg:PlateNames>
            <rdf:Seq>
               <rdf:li>Cyan</rdf:li>
               <rdf:li>Magenta</rdf:li>
               <rdf:li>Yellow</rdf:li>
               <rdf:li>Black</rdf:li>
            </rdf:Seq>
         </xmpTPg:PlateNames>
         <xmpTPg:SwatchGroups>
            <rdf:Seq>
               <rdf:li rdf:parseType="Resource">
                  <xmpG:groupName>Default Swatch Group</xmpG:groupName>
                  <xmpG:groupType>0</xmpG:groupType>
               </rdf:li>
            </rdf:Seq>
         </xmpTPg:SwatchGroups>
         <dc:format>image/svg+xml</dc:format>
         <xmpMM:DerivedFrom rdf:parseType="Resource">
            <stRef:instanceID>xmp.iid:13be3721-8a12-cb49-9277-af9d0ba72242</stRef:instanceID>
            <stRef:documentID>xmp.did:13be3721-8a12-cb49-9277-af9d0ba72242</stRef:documentID>
            <stRef:originalDocumentID>xmp.did:13be3721-8a12-cb49-9277-af9d0ba72242</stRef:originalDocumentID>
         </xmpMM:DerivedFrom>
         <xmpMM:DocumentID>xmp.did:80bd30fe-cf89-1847-b89d-8835b5c36954</xmpMM:DocumentID>
         <xmpMM:InstanceID>xmp.iid:80bd30fe-cf89-1847-b89d-8835b5c36954</xmpMM:InstanceID>
         <xmpMM:OriginalDocumentID>xmp.did:13be3721-8a12-cb49-9277-af9d0ba72242</xmpMM:OriginalDocumentID>
         <xmpMM:History>
            <rdf:Seq>
               <rdf:li rdf:parseType="Resource">
                  <stEvt:action>saved</stEvt:action>
                  <stEvt:instanceID>xmp.iid:13be3721-8a12-cb49-9277-af9d0ba72242</stEvt:instanceID>
                  <stEvt:when>2025-12-11T01:18:02+08:00</stEvt:when>
                  <stEvt:softwareAgent>Adobe Illustrator 29.8 (Windows)</stEvt:softwareAgent>
                  <stEvt:changed>/</stEvt:changed>
               </rdf:li>
               <rdf:li rdf:parseType="Resource">
                  <stEvt:action>saved</stEvt:action>
                  <stEvt:instanceID>xmp.iid:80bd30fe-cf89-1847-b89d-8835b5c36954</stEvt:instanceID>
                  <stEvt:when>2025-12-11T01:21:33+08:00</stEvt:when>
                  <stEvt:softwareAgent>Adobe Illustrator 29.8 (Windows)</stEvt:softwareAgent>
                  <stEvt:changed>/</stEvt:changed>
               </rdf:li>
            </rdf:Seq>
         </xmpMM:History>
      </rdf:Description>
   </rdf:RDF>
</x:xmpmeta>
                                                                                                    
                                                                                                    
                                                                                                    
                                                                                                    
                                                                                                    
                                                                                                    
                                                                                                    
                                                                                                    
                                                                                                    
                                                                                                    
                                                                                                    
                                                                                                    
                                                                                                    
                                                                                                    
                                                                                                    
                                                                                                    
                                                                                                    
                                                                                                    
                                                                                                    
                                                                                                    
                           
<?xpacket end="w"?>
  </metadata>
</svg>