<?xml version="1.0" encoding="UTF-8"?>
<svg id="Layer_1" xmlns="http://www.w3.org/2000/svg" version="1.1" xmlns:xlink="http://www.w3.org/1999/xlink" viewBox="0 0 1000 1000">
  <!-- Generator: Adobe Illustrator 29.8.3, SVG Export Plug-In . SVG Version: 2.1.1 Build 3)  -->
  <defs>
    <radialGradient id="radial-gradient" cx="448.02" cy="324.67" fx="448.02" fy="324.67" r="52.67" gradientTransform="translate(210.33 971.41) rotate(-22.5) scale(1 -1)" gradientUnits="userSpaceOnUse">
      <stop offset="0" stop-color="#66d3fa"/>
      <stop offset="1" stop-color="#007acc"/>
    </radialGradient>
  </defs>
  <rect width="1000" height="1000" display="none" fill="#0d1326" stroke="#0d1326" stroke-width="2"/>
  <path d="M850,496c-.37,0-.71.07-1.05.16l-99.49-240.19c1.2-.69,2.03-1.97,2.03-3.46,0-2.21-1.79-4-4-4-1.48,0-2.77.82-3.46,2.03l-240.19-99.49c.09-.34.16-.68.16-1.05,0-2.21-1.79-4-4-4s-4,1.79-4,4c0,.37.07.71.16,1.05l-240.19,99.49c-.69-1.2-1.97-2.03-3.46-2.03-2.21,0-4,1.79-4,4,0,1.48.82,2.77,2.03,3.46l-99.49,240.19c-.34-.09-.68-.16-1.05-.16-2.21,0-4,1.79-4,4s1.79,4,4,4c.37,0,.71-.07,1.05-.16l99.49,240.19c-1.2.69-2.03,1.97-2.03,3.46,0,2.21,1.79,4,4,4,1.48,0,2.77-.82,3.46-2.03l240.19,99.49c-.09.34-.16.68-.16,1.05,0,2.21,1.79,4,4,4s4-1.79,4-4c0-.37-.07-.71-.16-1.05l240.19-99.49c.69,1.2,1.97,2.03,3.46,2.03,2.21,0,4-1.79,4-4,0-1.48-.82-2.77-2.03-3.46l99.49-240.19c.34.09.68.16,1.05.16,2.21,0,4-1.79,4-4s-1.79-4-4-4ZM744.03,745.52l-170.89-70.79,28.32-68.37c.34.09.68.16,1.05.16,2.21,0,4-1.79,4-4,0-.37-.07-.71-.16-1.05l68.37-28.32,70.79,170.89c-.62.35-1.13.87-1.48,1.48ZM500,846c-.37,0-.71.07-1.05.16l-70.78-170.89,68.37-28.32c.69,1.2,1.97,2.03,3.46,2.03s2.77-.82,3.46-2.03l68.37,28.32-70.78,170.89c-.34-.09-.68-.16-1.05-.16ZM254.48,744.03l70.78-170.9,68.38,28.32c-.09.34-.16.68-.16,1.05,0,2.21,1.79,4,4,4,.37,0,.71-.07,1.05-.16l28.32,68.37-170.89,70.79c-.35-.62-.87-1.13-1.48-1.48ZM153.84,498.95l170.88-70.78,28.32,68.37c-1.2.69-2.03,1.97-2.03,3.46s.82,2.77,2.03,3.46l-28.32,68.37-170.88-70.78c.09-.34.16-.68.16-1.05s-.07-.71-.16-1.05ZM255.97,254.48l170.9,70.78-28.32,68.38c-.34-.09-.68-.16-1.05-.16-2.21,0-4,1.79-4,4,0,.37.07.71.16,1.05l-68.38,28.32-70.78-170.9c.62-.35,1.13-.87,1.48-1.48ZM500,154c.37,0,.71-.07,1.05-.16l70.78,170.88-68.37,28.32c-.69-1.2-1.97-2.03-3.46-2.03s-2.77.82-3.46,2.03l-68.37-28.32,70.78-170.88c.34.09.68.16,1.05.16ZM745.52,255.97l-70.79,170.89-68.37-28.32c.09-.34.16-.68.16-1.05,0-2.21-1.79-4-4-4-.37,0-.71.07-1.05.16l-28.32-68.38,170.9-70.78c.35.62.87,1.13,1.48,1.48ZM500,640.97c-.37,0-.71.07-1.05.16l-28.32-68.37,29.37-12.16,29.37,12.17-28.32,68.37c-.34-.09-.68-.16-1.05-.16ZM500,359.02c.37,0,.71-.07,1.05-.16l28.32,68.38-29.38,12.17-29.37-12.17,28.32-68.38c.34.09.68.16,1.05.16ZM600.54,400.95l-28.32,68.37-29.37-12.16-12.17-29.37,68.37-28.32c.35.62.87,1.13,1.48,1.48ZM641.13,501.05l-68.37,28.32-12.17-29.37,12.16-29.37,68.37,28.32c-.09.34-.16.68-.16,1.05s.07.71.16,1.05ZM358.86,498.95l68.38-28.32,12.17,29.37-12.17,29.38-68.38-28.32c.09-.34.16-.68.16-1.05s-.07-.71-.16-1.05ZM428.17,470.24l28.45-11.78-16.66,40.23-11.78-28.45ZM439.95,501.3l16.67,40.24-28.45-11.78,11.78-28.45ZM440.49,500l17.43-42.08,42.08-17.43,42.08,17.43,17.43,42.07-17.43,42.08-42.08,17.43-42.07-17.43-17.43-42.08ZM543.39,458.46l28.44,11.78-11.78,28.44-16.66-40.23ZM560.05,501.3l11.78,28.45-28.45,11.78,16.66-40.23ZM541.54,456.62l-40.24-16.67,28.45-11.78,11.78,28.45ZM498.69,439.95l-40.23,16.66,11.78-28.45,28.45,11.78ZM457.15,457.15l-29.37,12.17-28.32-68.37c.62-.35,1.13-.87,1.48-1.48l68.37,28.32-12.17,29.37ZM397.49,401.49c.37,0,.71-.07,1.05-.16l28.32,68.37-68.38,28.32c-.69-1.2-1.97-2.03-3.46-2.03-.37,0-.71.07-1.05.16l-28.32-68.37,68.38-28.32c.69,1.2,1.97,2.03,3.46,2.03ZM355.02,504c1.48,0,2.77-.82,3.46-2.03l68.38,28.32-28.32,68.37c-.34-.09-.68-.16-1.05-.16-1.48,0-2.77.82-3.46,2.03l-68.38-28.32,28.32-68.37c.34.09.68.16,1.05.16ZM399.46,599.05l28.32-68.37,29.37,12.17,12.16,29.37-68.37,28.32c-.35-.62-.87-1.13-1.48-1.48ZM458.46,543.39l40.23,16.66-28.44,11.78-11.78-28.44ZM501.3,560.05l40.23-16.66-11.78,28.45-28.45-11.78ZM542.84,542.84l29.37-12.17,28.32,68.37c-.62.35-1.13.87-1.48,1.48l-68.37-28.32,12.17-29.37ZM602.51,598.51c-.37,0-.71.07-1.05.16l-28.32-68.37,68.37-28.32c.69,1.2,1.97,2.03,3.46,2.03.37,0,.71-.07,1.05-.16l28.32,68.37-68.38,28.32c-.69-1.2-1.97-2.03-3.46-2.03ZM644.97,496c-1.48,0-2.77.82-3.46,2.03l-68.37-28.32,28.32-68.37c.34.09.68.16,1.05.16,1.48,0,2.77-.82,3.46-2.03l68.38,28.32-28.32,68.37c-.34-.09-.68-.16-1.05-.16ZM600.54,394.03c-1.2.69-2.03,1.97-2.03,3.46,0,.37.07.71.16,1.05l-68.37,28.32-28.32-68.38c1.2-.69,2.03-1.97,2.03-3.46,0-.37-.07-.71-.16-1.05l68.37-28.32,28.32,68.38ZM496.16,353.97c-.09.34-.16.68-.16,1.05,0,1.48.82,2.77,2.03,3.46l-28.32,68.38-68.37-28.32c.09-.34.16-.68.16-1.05,0-1.48-.82-2.77-2.03-3.46l28.32-68.38,68.37,28.32ZM399.46,605.97c1.2-.69,2.03-1.97,2.03-3.46,0-.37-.07-.71-.16-1.05l68.37-28.32,28.32,68.37c-1.2.69-2.03,1.97-2.03,3.46,0,.37.07.71.16,1.05l-68.37,28.32-28.32-68.38ZM503.84,646.02c.09-.34.16-.68.16-1.05,0-1.48-.82-2.77-2.03-3.46l28.32-68.37,68.37,28.32c-.09.34-.16.68-.16,1.05,0,1.48.82,2.77,2.03,3.46l-28.32,68.38-68.37-28.32ZM646.94,503.46c1.2-.69,2.03-1.97,2.03-3.46s-.82-2.77-2.03-3.46l28.32-68.37,170.89,70.78c-.09.34-.16.68-.16,1.05s.07.71.16,1.05l-170.89,70.78-28.32-68.37ZM848.03,496.54c-.62.35-1.13.87-1.48,1.48l-170.89-70.78,70.79-170.89c.34.09.68.16,1.05.16s.71-.07,1.05-.16l99.49,240.19ZM743.65,251.46c-.09.34-.16.68-.16,1.05s.07.71.16,1.05l-170.89,70.78-70.78-170.89c.62-.35,1.13-.87,1.48-1.48l240.19,99.49ZM496.54,151.97c.35.62.87,1.13,1.48,1.48l-70.78,170.89-170.89-70.78c.09-.34.16-.68.16-1.05s-.07-.71-.16-1.05l240.19-99.49ZM251.46,256.35c.34.09.68.16,1.05.16s.71-.07,1.05-.16l70.78,170.89-170.89,70.78c-.35-.62-.87-1.13-1.48-1.48l99.49-240.19ZM151.97,503.46c.62-.35,1.13-.87,1.48-1.48l170.89,70.78-70.78,170.89c-.34-.09-.68-.16-1.05-.16s-.71.07-1.05.16l-99.49-240.19ZM256.35,748.54c.09-.34.16-.68.16-1.05s-.07-.71-.16-1.05l170.89-70.79,70.78,170.89c-.62.35-1.13.87-1.48,1.48l-240.19-99.49ZM503.46,848.03c-.35-.62-.87-1.13-1.48-1.48l70.78-170.89,170.89,70.79c-.09.34-.16.68-.16,1.05s.07.71.16,1.05l-240.19,99.49ZM748.54,743.65c-.34-.09-.68-.16-1.05-.16s-.71.07-1.05.16l-70.79-170.89,170.89-70.78c.35.62.87,1.13,1.48,1.48l-99.49,240.19Z" fill="#66b3ff" opacity=".7"/>
  <g>
    <polygon points="746.85 747.2 499.65 849.84 397.85 603.48 645.05 500.84 746.85 747.2" fill="#009e60" opacity=".4"/>
    <path d="M747.49,743.49c-.37,0-.71.07-1.05.16l-99.5-240.19c1.2-.69,2.03-1.97,2.03-3.46,0-2.21-1.79-4-4-4-1.48,0-2.77.82-3.46,2.03l-240.18-99.49c.09-.34.16-.68.16-1.05,0-2.21-1.79-4-4-4s-4,1.79-4,4c0,.37.07.71.16,1.05l-240.19,99.49c-.69-1.2-1.97-2.03-3.46-2.03-2.21,0-4,1.79-4,4s1.79,4,4,4c.37,0,.71-.07,1.05-.16l99.49,240.19c-1.2.69-2.03,1.97-2.03,3.46,0,2.21,1.79,4,4,4,1.48,0,2.77-.82,3.46-2.03l240.19,99.49c-.09.34-.16.68-.16,1.05,0,2.21,1.79,4,4,4s4-1.79,4-4c0-.37-.07-.71-.16-1.05l240.19-99.49c.69,1.2,1.97,2.03,3.46,2.03,2.21,0,4-1.79,4-4s-1.79-4-4-4ZM745.52,744.03c-.62.35-1.13.87-1.48,1.48l-240.19-99.5c.09-.34.16-.68.16-1.05,0-2.21-1.79-4-4-4-.37,0-.71.07-1.05.16l-28.32-68.37,170.88-70.78c.69,1.2,1.97,2.03,3.46,2.03.37,0,.71-.07,1.05-.16l99.5,240.19ZM401.49,602.51c0-.37-.07-.71-.16-1.05l68.37-28.32,28.32,68.37c-1.2.69-2.03,1.97-2.03,3.46,0,.37.07.71.16,1.05l-68.37,28.32-28.32-68.38c1.2-.69,2.03-1.97,2.03-3.46ZM641.13,498.95c-.09.34-.16.68-.16,1.05s.07.71.16,1.05l-170.88,70.78-70.78-170.88c.62-.35,1.13-.87,1.48-1.48l240.18,99.49ZM394.03,399.46c.69,1.2,1.97,2.03,3.46,2.03.37,0,.71-.07,1.05-.16l70.78,170.88-68.37,28.32c-.69-1.2-1.97-2.03-3.46-2.03s-2.77.82-3.46,2.03l-240.19-99.49c.09-.34.16-.68.16-1.05s-.07-.71-.16-1.05l240.19-99.49ZM151.97,503.46c.62-.35,1.13-.87,1.48-1.48l240.19,99.49c-.09.34-.16.68-.16,1.05,0,2.21,1.79,4,4,4,.37,0,.71-.07,1.05-.16l28.32,68.37-170.89,70.79c-.69-1.2-1.97-2.03-3.46-2.03-.37,0-.71.07-1.05.16l-99.49-240.19ZM256.35,748.54c.09-.34.16-.68.16-1.05s-.07-.71-.16-1.05l170.89-70.79,70.78,170.89c-.62.35-1.13.87-1.48,1.48l-240.19-99.49ZM503.46,848.03c-.69-1.2-1.97-2.03-3.46-2.03-.37,0-.71.07-1.05.16l-70.78-170.89,68.37-28.32c.69,1.2,1.97,2.03,3.46,2.03s2.77-.82,3.46-2.03l240.19,99.5c-.09.34-.16.68-.16,1.05s.07.71.16,1.05l-240.19,99.49Z" fill="#009e60"/>
  </g>
  <g display="none">
    <polygon points="499.75 849.55 252.37 747.33 354.59 501.14 601.97 603.36 499.75 849.55" fill="#7f4fc9" opacity=".4"/>
    <path d="M602.51,598.51c-.37,0-.71.07-1.05.16l-99.49-240.19c1.2-.69,2.03-1.97,2.03-3.46,0-2.21-1.79-4-4-4-1.48,0-2.77.82-3.46,2.03l-240.19-99.49c.09-.34.16-.68.16-1.05,0-2.21-1.79-4-4-4s-4,1.79-4,4c0,1.48.82,2.77,2.03,3.46l-99.49,240.19c-.34-.09-.68-.16-1.05-.16-2.21,0-4,1.79-4,4s1.79,4,4,4c.37,0,.71-.07,1.05-.16l99.49,240.19c-1.2.69-2.03,1.97-2.03,3.46,0,2.21,1.79,4,4,4,1.48,0,2.77-.82,3.46-2.03l240.19,99.49c-.09.34-.16.68-.16,1.05,0,2.21,1.79,4,4,4s4-1.79,4-4c0-1.48-.82-2.77-2.03-3.46l99.49-240.19c.34.09.68.16,1.05.16,2.21,0,4-1.79,4-4s-1.79-4-4-4ZM600.54,599.05c-.62.35-1.13.87-1.48,1.48l-170.89-70.78,70.78-170.89c.34.09.68.16,1.05.16s.71-.07,1.05-.16l99.49,240.19ZM496.16,353.97c-.09.34-.16.68-.16,1.05,0,1.48.82,2.77,2.03,3.46l-70.78,170.9-68.38-28.32c.09-.34.16-.68.16-1.05,0-2.21-1.79-4-4-4-.37,0-.71.07-1.05.16l-99.49-240.19c.62-.35,1.13-.87,1.48-1.48l240.19,99.49ZM397.49,598.51c-1.48,0-2.77.82-3.46,2.03l-68.38-28.32,28.32-68.37c.34.09.68.16,1.05.16,1.48,0,2.77-.82,3.46-2.03l68.38,28.32-28.32,68.37c-.34-.09-.68-.16-1.05-.16ZM251.46,256.35c.34.09.68.16,1.05.16s.71-.07,1.05-.16l99.49,240.19c-1.2.69-2.03,1.97-2.03,3.46s.82,2.77,2.03,3.46l-28.32,68.37-170.88-70.78c.09-.34.16-.68.16-1.05,0-1.48-.82-2.77-2.03-3.46l99.49-240.19ZM151.97,503.46c.62-.35,1.13-.87,1.48-1.48l170.89,70.78-70.78,170.89c-.34-.09-.68-.16-1.05-.16s-.71.07-1.05.16l-99.49-240.19ZM256.35,748.54c.09-.34.16-.68.16-1.05,0-1.48-.82-2.77-2.03-3.46l70.78-170.9,68.38,28.32c-.09.34-.16.68-.16,1.05,0,2.21,1.79,4,4,4,.37,0,.71-.07,1.05-.16l99.49,240.19c-.62.35-1.13.87-1.48,1.48l-240.19-99.49ZM501.05,846.16c-.34-.09-.68-.16-1.05-.16s-.71.07-1.05.16l-99.49-240.19c1.2-.69,2.03-1.97,2.03-3.46s-.82-2.77-2.03-3.46l28.32-68.37,170.88,70.78c-.09.34-.16.68-.16,1.05,0,1.48.82,2.77,2.03,3.46l-99.49,240.19Z" fill="#7f4fc9"/>
  </g>
  <g display="none">
    <polygon points="398.23 602.37 150.86 500.15 253.07 253.96 500.45 356.18 398.23 602.37" fill="#007fff" opacity=".4"/>
    <path d="M747.49,248.51c-1.48,0-2.77.82-3.46,2.03l-240.19-99.49c.09-.34.16-.68.16-1.05,0-2.21-1.79-4-4-4s-4,1.79-4,4c0,.37.07.71.16,1.05l-240.19,99.49c-.69-1.2-1.97-2.03-3.46-2.03-2.21,0-4,1.79-4,4,0,1.48.82,2.77,2.03,3.46l-99.49,240.19c-.34-.09-.68-.16-1.05-.16-2.21,0-4,1.79-4,4s1.79,4,4,4c1.48,0,2.77-.82,3.46-2.03l240.19,99.49c-.09.34-.16.68-.16,1.05,0,2.21,1.79,4,4,4s4-1.79,4-4c0-.37-.07-.71-.16-1.05l240.18-99.49c.69,1.2,1.97,2.03,3.46,2.03,2.21,0,4-1.79,4-4,0-1.48-.82-2.77-2.03-3.46l99.5-240.19c.34.09.68.16,1.05.16,2.21,0,4-1.79,4-4s-1.79-4-4-4ZM743.65,251.46c-.09.34-.16.68-.16,1.05s.07.71.16,1.05l-240.19,99.49c-.69-1.2-1.97-2.03-3.46-2.03s-2.77.82-3.46,2.03l-68.37-28.32,70.78-170.88c.34.09.68.16,1.05.16,1.48,0,2.77-.82,3.46-2.03l240.19,99.49ZM399.46,394.03l28.32-68.38,68.37,28.32c-.09.34-.16.68-.16,1.05,0,1.48.82,2.77,2.03,3.46l-28.32,68.38-68.37-28.32c.09-.34.16-.68.16-1.05,0-1.48-.82-2.77-2.03-3.46ZM496.54,151.97c.35.62.87,1.13,1.48,1.48l-70.78,170.89-170.89-70.78c.09-.34.16-.68.16-1.05s-.07-.71-.16-1.05l240.19-99.49ZM251.46,256.35c.34.09.68.16,1.05.16,1.48,0,2.77-.82,3.46-2.03l170.9,70.78-28.32,68.38c-.34-.09-.68-.16-1.05-.16-2.21,0-4,1.79-4,4,0,.37.07.71.16,1.05l-240.19,99.49c-.35-.62-.87-1.13-1.48-1.48l99.49-240.19ZM153.84,501.05c.09-.34.16-.68.16-1.05s-.07-.71-.16-1.05l240.19-99.49c.69,1.2,1.97,2.03,3.46,2.03s2.77-.82,3.46-2.03l68.37,28.32-70.78,170.88c-.34-.09-.68-.16-1.05-.16-1.48,0-2.77.82-3.46,2.03l-240.19-99.49ZM400.95,600.54c-.35-.62-.87-1.13-1.48-1.48l70.78-170.88,170.88,70.78c-.09.34-.16.68-.16,1.05s.07.71.16,1.05l-240.18,99.49ZM646.02,496.16c-.34-.09-.68-.16-1.05-.16-1.48,0-2.77.82-3.46,2.03l-170.89-70.78,28.32-68.38c.34.09.68.16,1.05.16,2.21,0,4-1.79,4-4,0-.37-.07-.71-.16-1.05l240.19-99.49c.35.62.87,1.13,1.48,1.48l-99.5,240.19Z" fill="#007fff"/>
  </g>
  <g display="none">
    <polygon points="850.15 499.03 602.95 601.67 501.15 355.31 748.35 252.67 850.15 499.03" fill="#f28500" opacity=".4"/>
    <path d="M850,496c-.37,0-.71.07-1.05.16l-99.49-240.19c1.2-.69,2.03-1.97,2.03-3.46,0-2.21-1.79-4-4-4-1.48,0-2.77.82-3.46,2.03l-240.19-99.49c.09-.34.16-.68.16-1.05,0-2.21-1.79-4-4-4s-4,1.79-4,4c0,.37.07.71.16,1.05l-240.19,99.49c-.69-1.2-1.97-2.03-3.46-2.03-2.21,0-4,1.79-4,4s1.79,4,4,4c.37,0,.71-.07,1.05-.16l99.49,240.19c-1.2.69-2.03,1.97-2.03,3.46,0,2.21,1.79,4,4,4,1.48,0,2.77-.82,3.46-2.03l240.19,99.49c-.09.34-.16.68-.16,1.05,0,2.21,1.79,4,4,4s4-1.79,4-4c0-.37-.07-.71-.16-1.05l240.19-99.49c.69,1.2,1.97,2.03,3.46,2.03,2.21,0,4-1.79,4-4s-1.79-4-4-4ZM848.03,496.54c-.62.35-1.13.87-1.48,1.48l-240.19-99.49c.09-.34.16-.68.16-1.05,0-2.21-1.79-4-4-4-.37,0-.71.07-1.05.16l-28.32-68.38,170.9-70.78c.69,1.2,1.97,2.03,3.46,2.03.37,0,.71-.07,1.05-.16l99.49,240.19ZM504,355.02c0-.37-.07-.71-.16-1.05l68.37-28.32,28.32,68.38c-1.2.69-2.03,1.97-2.03,3.46,0,.37.07.71.16,1.05l-68.37,28.32-28.32-68.38c1.2-.69,2.03-1.97,2.03-3.46ZM743.65,251.46c-.09.34-.16.68-.16,1.05s.07.71.16,1.05l-170.89,70.78-70.78-170.89c.62-.35,1.13-.87,1.48-1.48l240.19,99.49ZM496.54,151.97c.69,1.2,1.97,2.03,3.46,2.03.37,0,.71-.07,1.05-.16l70.78,170.88-68.37,28.32c-.69-1.2-1.97-2.03-3.46-2.03s-2.77.82-3.46,2.03l-240.19-99.49c.09-.34.16-.68.16-1.05s-.07-.71-.16-1.05l240.19-99.49ZM254.48,255.97c.62-.35,1.13-.87,1.48-1.48l240.19,99.49c-.09.34-.16.68-.16,1.05,0,2.21,1.79,4,4,4,.37,0,.71-.07,1.05-.16l28.32,68.38-170.9,70.78c-.69-1.2-1.97-2.03-3.46-2.03-.37,0-.71.07-1.05.16l-99.49-240.19ZM358.86,501.05c.09-.34.16-.68.16-1.05s-.07-.71-.16-1.05l170.89-70.78,70.78,170.89c-.62.35-1.13.87-1.48,1.48l-240.19-99.49ZM605.97,600.54c-.69-1.2-1.97-2.03-3.46-2.03-.37,0-.71.07-1.05.16l-70.78-170.88,68.37-28.32c.69,1.2,1.97,2.03,3.46,2.03s2.77-.82,3.46-2.03l240.19,99.49c-.09.34-.16.68-.16,1.05s.07.71.16,1.05l-240.19,99.49Z" fill="#f28500"/>
  </g>
  <polygon points="500 443 459.69 459.69 443 500 459.69 540.31 500 557 540.31 540.31 557 500 540.31 459.69 500 443" fill="url(#radial-gradient)" stroke="#66d3fa" stroke-width="3"/>
  <metadata><?xpacket begin="﻿" id="W5M0MpCehiHzreSzNTczkc9d"?>
<x:xmpmeta xmlns:x="adobe:ns:meta/" x:xmptk="Adobe XMP Core 9.1-c003 1.000000, 0000/00/00-00:00:00        ">
   <rdf:RDF xmlns:rdf="http://www.w3.org/1999/02/22-rdf-syntax-ns#">
      <rdf:Description rdf:about=""
            xmlns:xmp="http://ns.adobe.com/xap/1.0/"
            xmlns:xmpGImg="http://ns.adobe.com/xap/1.0/g/img/"
            xmlns:xmpTPg="http://ns.adobe.com/xap/1.0/t/pg/"
            xmlns:stDim="http://ns.adobe.com/xap/1.0/sType/Dimensions#"
            xmlns:xmpG="http://ns.adobe.com/xap/1.0/g/"
            xmlns:dc="http://purl.org/dc/elements/1.1/"
            xmlns:xmpMM="http://ns.adobe.com/xap/1.0/mm/"
            xmlns:stEvt="http://ns.adobe.com/xap/1.0/sType/ResourceEvent#">
         <xmp:CreatorTool>Adobe Illustrator 29.8 (Windows)</xmp:CreatorTool>
         <xmp:CreateDate>2025-12-11T01:18:01+08:00</xmp:CreateDate>
         <xmp:Thumbnails>
            <rdf:Alt>
               <rdf:li rdf:parseType="Resource">
                  <xmpGImg:width>256</xmpGImg:width>
                  <xmpGImg:height>256</xmpGImg:height>
                  <xmpGImg:format>JPEG</xmpGImg:format>
                  <xmpGImg:image>/9j/4AAQSkZJRgABAgEAAAAAAAD/7QAsUGhvdG9zaG9wIDMuMAA4QklNA+0AAAAAABAAAAAAAAEA&#xA;AQAAAAAAAQAB/+4ADkFkb2JlAGTAAAAAAf/bAIQABgQEBAUEBgUFBgkGBQYJCwgGBggLDAoKCwoK&#xA;DBAMDAwMDAwQDA4PEA8ODBMTFBQTExwbGxscHx8fHx8fHx8fHwEHBwcNDA0YEBAYGhURFRofHx8f&#xA;Hx8fHx8fHx8fHx8fHx8fHx8fHx8fHx8fHx8fHx8fHx8fHx8fHx8fHx8fHx8f/8AAEQgBAAEAAwER&#xA;AAIRAQMRAf/EAaIAAAAHAQEBAQEAAAAAAAAAAAQFAwIGAQAHCAkKCwEAAgIDAQEBAQEAAAAAAAAA&#xA;AQACAwQFBgcICQoLEAACAQMDAgQCBgcDBAIGAnMBAgMRBAAFIRIxQVEGE2EicYEUMpGhBxWxQiPB&#xA;UtHhMxZi8CRygvElQzRTkqKyY3PCNUQnk6OzNhdUZHTD0uIIJoMJChgZhJRFRqS0VtNVKBry4/PE&#xA;1OT0ZXWFlaW1xdXl9WZ2hpamtsbW5vY3R1dnd4eXp7fH1+f3OEhYaHiImKi4yNjo+Ck5SVlpeYmZ&#xA;qbnJ2en5KjpKWmp6ipqqusra6voRAAICAQIDBQUEBQYECAMDbQEAAhEDBCESMUEFURNhIgZxgZEy&#xA;obHwFMHR4SNCFVJicvEzJDRDghaSUyWiY7LCB3PSNeJEgxdUkwgJChgZJjZFGidkdFU38qOzwygp&#xA;0+PzhJSktMTU5PRldYWVpbXF1eX1RlZmdoaWprbG1ub2R1dnd4eXp7fH1+f3OEhYaHiImKi4yNjo&#xA;+DlJWWl5iZmpucnZ6fkqOkpaanqKmqq6ytrq+v/aAAwDAQACEQMRAD8A9U4q7FXYq7FXYq7FXYq7&#xA;FXYq7FXYq7FXYq7FXYq7FXYq7FXYq7FXYq7FXYq7FXYq7FXYq7FXYq7FXYq7FXYq7FXYq7FXYq7F&#xA;XYq7FXYq7FXYq7FXYq7FXYq7FXYq7FXYq7FXYq7FXYq7FXYq7FXYq7FXYq7FXYq7FXYq7FXYq7FX&#xA;Yq7FXYq7FXYq7FXYq7FXYq7FXYq7FXYq7FXYq7FXYq7FXYq7FXYq7FXYq7FXYq7FXYq7FXYq7FXY&#xA;q7FXYq7FXYq7FXYq7FXYq7FXYq7FXYq7FXYq7FXYq7FXYq7FXYq7FXYq7FXYq7FXYq7FXYq7FXYq&#xA;7FXYq7FXYq7FXYq7FXYq7FXYq7FXYq7FXYqp3FzBbxmSZwqgE+5pvsO+ShAyNBjKYiLLre5guIxJ&#xA;C4ZSAfcV33HbGcDE0VjMSFhUyLJ2KuxV2KuxV2KuxV2KuxV2KuxV2KuxV2KuxV2KuxV2KuxV2Kux&#xA;V2KuxV2KuxV2KuxV2KqTXUYYolZXGxVN6H3P2R9JyYgeuzEzHva43Un2mEK/yp8Tf8ERT8PpxuI8&#xA;0UT5KckEQdIUX4pN5HNSxRCCQWNSamgyQkavuQYjk6OCIu8Lr8Ue8bioYI5JADChFDUYmRq+9REc&#xA;lTjdR/ZYTL/K/wALf8EBT8PpyNxPkmiPNtbqMsEesTnYK+1T7H7J+g4mB6bpEx7lXIMnYq7FXYq7&#xA;FXYq7FXYq7FXYq7FXYq7FXYq7FXYq7FXYq7FXYq7FXYq7FWndEXk7BVHVmNB+OEAnkgmlL15H/uY&#xA;yR/O/wAC/j8R+76clwgcyx4ieQd9WL/38hkH8g+FPuG5+knHjrkF4b5qqqqqFUBVGwA2AyBNswG8&#xA;VUbf43km7MeCf6qEiv0tX6KZOWwAYR3suuPgeObsp4P/AKrkCv0NT6K4x3BCy2oq2QZtMqspVgGU&#xA;7EHcHEGlIUvqxT+4kMY/kPxJ9x3H0EZPjvmGHDXJ3ryJ/fRkD+dPjX8PiH3fTjwg8ivERzCqjo68&#xA;kYMp6MpqPwyJBHNkDbeBLsVdirsVdirsVdirsVdirsVdirsVdirsVdirsVdirsVUnuYUPHlyelQi&#xA;/E1PkMkIEsTMBqt1J2EK+9Gf/mkfjh9I80eo+TaW0StzILyfzueR+ivT6MBmTskRCrkWTsVdiqlc&#xA;uyxUQ0kc8EPgT3+gb5KA33YzOyoiKiKiiiqAFHsNsBNm0gU50V0ZGFVYEMPY7Yg0bUi1O2dmio5r&#xA;Ih4OfEjv9I3wzG+yIHZVyLJ2KuxVSe2iZuYBST+dDxP006/TkhMjZiYhqt1H2Ey+1Ff/AJpP4YfS&#xA;fJHqHm2lzC548uL0qUb4Wp8jgMCEiYKrkWTsVdirsVdirsVdirsVdirsVdirsVdirsVdiqlcuUhb&#xA;jTm3woD05NsMlAWWMzQQtjYraq9vbuYxGeSq3xqyvuCQd+tRsR0y7Jk4tzvbVjx8OwRPryp/fRkD&#xA;+eOrr932h9305Vwg8i2cRHMKqSJIvJGDKe4NRkSCObIEHk3gS7FXYqoj95dE/swCg/12FT9y/ryf&#xA;KPvYc5e5WyDN2KqJ/d3QP7M4of8AXUVH3r+rJ84+5hyl71bIM3Yq7FWnkSNeTsFUdyaDCATyQSBz&#xA;UvXlf+5jJH88lUX7vtH7vpyXCBzLHiJ5BDX1it0qW9w5kEh5Mq/Aqqm5IA360G5PXLceTh3G1NeT&#xA;HxbFFWzl4V5U5r8LgdOS7HKZii2wNhVyLJ2KuxV2KuxV2KuxV2KuxV2KuxV2KuxV2KqJ/eXQ/lhF&#xA;f9mw/gv68nyj72HOXudP8Esc3YH03/1XO33NT8cY7ghZbEFWyDNSe2iZi4BSQ/7sT4W28adfpyQm&#xA;RsxMQ1/pUfhOv0K//NJ/DD6T5fj8d6PUPNdHcRO3CvGT/fbDi30A9fowGBCRIFdLIscbSN0UEmnX&#xA;bBEWaSTQtbbxskQDfbNWen8zGpwzNlERQVMiydiqncRs8RC/bFGSv8ymoyUDRYyFhdFIskayL0YA&#xA;ivXfBIUaSDYtbJcRI3CvKT/fajk30gdPpwiBKDIBb/pUnhAv0M//ADSPxw+kef4/Hcj1HybS2iVg&#xA;5BeQf7sf4m38K9PowGZOyREKuRZKMHxyyTdifTT/AFUO/wB7V/DJy2ADCO5JcP3d0f5ZhX/ZqP4r&#xA;+rHnH3Lyl71bIM3Yq7FXYq7FXYq7FXYq7FXYq7FXYq7FWndURnbZVBZj7DfCBZpBNKdsjLEC/wDe&#xA;OS7/ADben0dMMzZ2REbL5EWSNo2FVcFWHsdsANG0kWKWWzs0QDmsiHhJ2+Jdq/T1wzFHZETsq5Fk&#xA;7FVskcci8XUMvgRXCCRyQQDzQksMnrJFDISq0keNzyHwn4RX7Qq3v2y2MhVkNRiboK/1nh/foYv8&#xA;v7Sf8EOn+yAyHBfLdnx1z2VgQQCDUHcEZBm4kAEk0A3JOKqP1nn/AHCGX/L+yn/BHr/sQcnwVz2Y&#xA;cd8t1CKGT1nimkIVqyJGh4j4j8Qr9o0b375OUhVgMBE3RRcccca8UUKvgBTKiSebaAByXYEuxVSu&#xA;XZYiENJHPCPv8TbV+jrkoCzuxkdlSNFjRUXZVAA+QwE2bSBQpTuUZoiU/vEIdPmu9Pp6YYGjuiQ2&#xA;VEdXRXXdWAZT7HfARRpINt4EuxV2KuxV2KuxV2KuxV2KuxV2KuxVRn+OSOHsTzf/AFU3/Fqfjk47&#xA;AlhLcgK2QZuxVR/u7r/JnH/DqP4r+rJ84+78fj3sOUverZBm7FXYqo2vxhpz/u01X/UGy/f1+nJz&#xA;227mEN9+9WyDNCXcCpE7wEwztsjJ0LsaAsv2Tud9stxys77hqnGhtsXWkCvEjzkzTrs7P0DqaEqv&#xA;2RuNtsckqO2wWEbG+5ReVNqjdfAFnH+6jVv9Q7N93X6MnDfbvYT237lbIM3Yq7FVH+8uv8mAf8Ow&#xA;/gv68nyj7/x+Pcw5y9ytkGbsVUYPgkkh7A80/wBV9/wav4ZOW4BYR2JCtkGbsVdirsVdirsVdirs&#xA;VdirsVdirsVUbb4zJP2kNE/1F2H3mp+nJz2oMI77q2QZuxVTuI2eI8P7xaNH/rLuB9PTJQNFjIWF&#xA;0ciyRq6/ZYAj6cBFGkg2LXYEsf1nzbpttHHHCs16s08dtNNZxNOkPqtwq7oCK124irVI2ycdjZcL&#xA;PrIRFC5Wa9Iur/HvTiyvrG8i52cySoh4sEI+E0+yw6qR4HIlyseSMh6TaIwM1E/vLoD9mEcj/rsK&#xA;D7lr9+T5R97DnL3OH7u6I/ZmHIf66ih+9afdjzj7l5S96tkGayWSJF/esArbUPf2p3wxBPJBIHNC&#xA;WN9EYuD84/TdokeVSocKaAgnv+Ncuy4jdje99mrHkFUUdlDctkkWONnb7Kgk/RhAs0gmha22jZIh&#xA;z/vGq0n+s25H0dBhmbOyIigqZFk7FVG5+Axz9ozR/wDUbY/caH6MnDewwlturZBm7FXYq7FXYq7F&#xA;XYq7FXYq7FXYqpXTMI+CGjyngpHUV6n6FqcnAb33MZnb3qiqqqFUUVRQAdgMgTbIBvFXYqo3d9Z2&#xA;cXq3cyQRk0DSMFqfAV6n2GIDCeSMBcjSWQ6hqM8kkNhaGOIkulzeBogA3UrDT1Xo9dm4bd8sluAX&#xA;HjkmTUR8ZbfZz+5W/QaXHxapO9+T1gb4LYe3oL8LD/jIWPvkLZ/l+L6zxfd8v12irywgudPlsSPT&#xA;ikjMa8ABw2opTsCvUYgtk8YlEx6IG1tbTVrSG7u4RHqMYaGeeFmilSWJikqJKhD8OYNBWhGHk0wh&#xA;HLESkPVy22Njnvzq1zrrVgjOkqajboKlZ6QzgAVYiRB6b+wKL7tiBaSMkOvEPPY/Pl9g97en6xZs&#xA;ywXHOzvpmJNvcj02Zj+zGx+CTiKD4GOGflyTjzx5H0yPQ/o7/giruZCpEVZJ4yGVE3NR2J6LyG2+&#xA;Sxx79gWycu7muQ3E6K/IRRsKrw+JiDuNyKD7j88BqJ7ykWfJ0kcdvG0ka1mNFVmJZizGigsd6VxB&#xA;MjR5KQIixzVY4lSJYvtKBQ17+NfnkDKzbIChSz6qE3gYxf5I3T/gT0+imS4757seCuWyhNLN6kcM&#xA;qclBDyPGC2y9Kr9oVanjk4xFEhhIm6KLjljkXlGwYdKg13yoxI5toIPJdgS7FWmVWUqwqrChB7g4&#xA;g0pCnasxj4OavEeDE9TTofpWhycxvfexgdvcq5Bk7FXYq7FXYq7FXYq7FXYq7FVFf3l0zfswjgv+&#xA;s1C34U/HJnaPvYDc+5WyDNA3OtWMMzW0Za6vF+1a249SQE9OdPhj+bkDDTTLPEGhvLuH42+Klw12&#xA;83Z00yE0IVOM9zTruzAwofEBX+eOzGskv6A+Z/UPtV7TR7C1l9dIzJdEUN1MzSzEeHqOWYD/ACRt&#xA;7Yks4YIxN9e87n5q1z8HCf8A30fj/wBRtm+7ZvoyUN9u9lPbfuVsgzdiqVK6WGtSo7BLfUU9dSaA&#xA;CeEBJAWP88fAgf5LHJAW4wPBkPdLf4jn9lfIpf5x846b5f01bu7V2hZwAAKc6b8VruamnalMzdHo&#xA;5ZZUGjXa6OGIJF28h8z/AJweYNchktbG3S1spNiHUOzD3BqOvjXN9g7JxY95eovM6vtfLmHCPTFS&#xA;8u/mv5o0VUhuf9Jtl24kcgNv5CR07BGUe2DUdkYsm8fSWOm7WzYtrseb1nyj5+sNY05rr0JYrdXI&#xA;MqAyolTXi/Ec0pvuU4gftZoNZpJYpUXo9F2lHLEmiK+P4+VebJYbi3vZI5LeVJrdBzEkZDqWaoFG&#xA;FRsK/eMxeUfe7CMhM2DYRWQbXYqo23x85z/u0/B/qLsv37t9OTntt3MIb7966S3iduRFH6c1JVvv&#xA;GATISYgraXUfQidfA0V/vHwn8MPpPkj1DzbS5iZghqkh6I+xPy7H6MBgeaRMKuRZKLfu7pW/ZmHB&#xA;v9Zalfwr+GTG8fcwOx96tkGbsVdirsVdirsVdirsVdiqH1DUbPT7R7q8mSCFKAvIwRak0UcmoKk7&#xA;YYiy15csYR4pGggINUnliVNMtWuyd3upCYLcsxqxDsC7g9QURl98lLctMcpIqAvz5D9fyBCodJub&#xA;rfU7x5VNa2tvW3hoezcSZX96vxP8uRtl4Jl9ZvyGw/X9teSPt7a2toVhtokghX7MUahFFd9lWgwN&#xA;0YCIoCgqYsnYq4gEEEVB2IOKoSC7iRTA78p4TwZBVnI/ZYgVO603y2WMnfoWqMwNuoVa3UnQCFfF&#xA;qM/3D4R95yPpHmy9R8kDrGns1n9YgVpr6zcXNuSaszR7tGvZfUTkmw748fTo1Z8fpsbyjuP1fHk8&#xA;Q/ODzPDrnmC3sbWT1LK1RXBHRmcVB8ehr9OdV2Tg8PFxHnJ5HtfVjNlqP0xSfStKWRRtmZObrQFX&#xA;UtJWNDUYITSQnX5QeYV0jzJJp0z8ba9BpXoHX/MfdmJ2rp/ExWOYdn2PqfCzUeUntA0O1cm6UPZ3&#xA;0p9SS4t29NySagSAVSTiNqOrDOVlLfyes/LxO/0yPUfp7/jbfPXbPaRE1OEftxcYbgD3Rj6TnxIZ&#xA;PZcjst5I8/WPkf1H5j3LTr2mXDpZJcCG+uDwS0mrDcUpV2EbhXoFBIYCnvkoijZR+ZhL0g1I9Dsf&#xA;kmoAAAAoBsAMg5LsVdirTojqVdQynqpFR+OEEjkgi1L6u6f3MhUfyPV1+ip5D76e2S4geYY8Ncip&#xA;zyOYmSZPTbqkgq6BgaqSQKihHcZKIF7bokdt1a2uI7iBJoyCrDsa0PcbeGQnAxNFlCQkLCpkWTsV&#xA;dirsVdirsVdirsVQes6Vaatps9hdIrRTKQCyhuLfsuAdqq24whqz4Y5IGJ6pbpVncPYRXGn3LWco&#xA;qlxZSAz2yzRsUlRUdg6hXUheDhe9DhJcfDAmIMTwnqOYsc/P5GkWdWubXbU7N4lFa3VvW4hoO7cQ&#xA;JU96pxH82Cm3xjH6xXmNx+v7K80fb3NtcwrNbSpPC32ZY2DqabbMtRgbozEhYNhUxZOxVxIAJJoB&#xA;uScVQkFpC6md04zzHmziqOB+ypI32Wm2WyyEbdA1RgDv1KrS6j6ETL4NRX+8fCfuGR9J8mXqHmpz&#xA;XalPSBMc8h4IrChqepHZuI32yUcfXmAiU+nV4D+a/l1dF80fWYU421zQrSmwapT5dGQDwUZ0/ZGo&#xA;8TFwnnF4vtbTeFmNcjugdJ1JI1BrmZODgAq2qaokqEk75GEKUlNfyi8upq3mSTUZk5W1kDSvQu3+&#xA;f45i9qajw8VDmXZ9j6bxc1nlF7Bdea9JsFME0xnvYiUe2gHqSVBoC1PhTkN/jIGctMb+T1M9ZCGx&#xA;NyHQc/2fFIL7zfrV3VbZU06HswpNOR41YemnuOLfPIW4WTW5JcvSPmf1ff70k5fVb+31hg9xeWUg&#xA;l9aQmWZo6FZUVnq3xRswUdAcQXDvhkMnOUfifP7HqcckcsaSxsHjcBkdTUFSKgg4vRggiwuxS7FW&#xA;ndEUs7BVHViaD8cIBPJBNKX1h3/uYyw/neqL9FRyP3U98lwgcyx4r5BTnjcRM8z+o3RIxVELE0UE&#xA;A1NSe5yUSL22RIbbq1tbx28CQxgBVHYUqe528chOZkbLKEREUFTIsnYq7FXYq7FXYq7FXYq7FUsg&#xA;/wBE1yaA7Q6gv1iLwE0QWOVf9knBgPZjh6OPH05COkt/iNj+j7UzwOQgbnRbGaZrmMNa3jfaurc+&#xA;nISOnOnwyfJwRhtplgiTY2l3j8b/ABUueu2ezImpwigDJxguadN1YiFz4kMnyx2Y3kj/AEx8j+o/&#xA;Yr2msWF1L6CSGO6AqbWZWimA8fTcKxH+UNvfEhnDPGRrr3HY/JWufj4Qf79Px/6i7t9+y/Tkobb9&#xA;zKe+3erZBm7FUOUSe4bmoaOIcOJ3BZqE7HwFPvOWWYjzLCrPuYx5+8o6drFhB9aZ1t4pQkpBJ4JK&#xA;QvNa9OD8Cd6BeWZOk1ksUrDre0tFHLEWao/f+B8LeX+Zfyl1/Q4ZLqznS6so92Z2CFR7k0H6s3+D&#xA;tbFk2l6S8/q+yMuEcQ9UUo03ydql8qvcvwjPZDt/wZr96qwyOo7XxY9o+ouJi0c5+QZpoemnTtPa&#xA;ygnkS1diWijYxh6VFXYHm1anYtxp2zn9ZrJ5pWXbafD4cSATR+H4+5FpHHA6rGoSNhxCqAACNxQD&#xA;xFcxeYbgAOStkWTsVZb5GvvU0yTT3P7zT24Rgkkm3erQn5LvGP8AVyTs+z8lw4P5v3dP1fBkElxE&#xA;jcSav14KCzfcMkIEuaZALa3UnQCBfE0Z/uHwj8cPpHmj1HybS2iVg5q8g6O+5Hy7D6MBmeSRAKuR&#xA;ZKLfvLpV/ZhHNv8AWaoX8K/hkxtH3sDufcrZBm7FXYq7FXYq7FXYq7FXYq7FUv1yGZrIXNupe6sX&#xA;F1Ai9WKAh0HvJGzIPnhDRqInhsc47/j3iwjYZopoUmiYPFKoeNx0KsKgj5jA3RkCLHJfil2KqN3Y&#xA;2d5F6V3Ck8YNQsihqHxFeh9xiCwnjjMVIWlkOn6jBJJNYXZkiBKJbXhaUEL1CzV9VKvXdue3bLJb&#xA;ABx445g3E/CW/wBvP71b9OJb/DqkD2BHWdvjtj7+uvwqP+MgU+2Qpn+Y4frHD93z/XSPaeMQeupD&#xA;x8eSlSCGBFRxPevbECzTcZCrQF3rWlaTEsd7cqtww5mBKySsWJJZY0DPxr3pTDI2WmeeGIVI7/b8&#xA;mNav5uvNQt5rS1tVtrWdDHJJc0eQq68WAjQ8F67Eu3+rkbp1+bWymDGIoHv5/L9p9zHbaSe8USah&#xA;NJd3luxjaSdi1GX9pFPwpzWjfCO+AlwYky3keKQ7/wAbL541pVKpI5oGXY1Pc+NB45KJ+TKQXKJY&#xA;1C0DqBQcdjQex2wGiu4czLKpVTRxuAdiCNxsd+uIFKTa9XDIH6Aiu/bARvTIFZ6wb+7Bf36L9/8A&#xA;TDw96OLuRei3T2et2s0snC3uCLW5CErtIf3ZqCCaS8R8mOSjIDk2YJ8OQE8jsfjy+373pEcUca8Y&#xA;1CjrQCm+AyJ5u+AA5LsCXYq0zKqlmNFUVJPYDEC1JU7VWEfNxR5TzYHqK9B9C0GTmd67mMBt71XI&#xA;MnYq7FXYq7FXYq7FXYq7FXYq7FUs0b/RpLrSzsto4e2FKf6NPVowPAIweMDwUYS4+D0kw/m8vceX&#xA;y3HwTPA5DsVU7mRkiPD+8aix/wCs2wP0dTkoCzuxkaC6ONY41RfsqAB9GAmzaQKFLsCWK+bvLkY0&#xA;ma70t5rCa1YXUsVnI8KTLGeUisiUUsVqQQOXKm+SBLrdbpRwGULiRv6TV1z/ABztikMcCLyhApJ8&#xA;Rcb8if2i37VfHKyXXRAHJUxShG/cairf7ru14N/xljBK/wDBJWv+qMLUdp/1vv8Ax9yuPimJ7Rig&#xA;/wBY7n8MPINnMqmRS06ow+MAgb79sIJ6KQoW1sgTk3JuTF1VySFBNRscnOZthGKIytmsmiWaJ4nr&#xA;xdSpp13FNsUSFinoPlvU21LRre4lINyoMV1Sg/fRni5oOgYjkPYjJl3ely+JjBPPr7wmeByHYqo3&#xA;PxmODtIav/qLufvNB9OThtZYS32VsgzdirsVdirsVdirsVdirsVdirsVdiqWar/ot5Z6kNkjf6td&#xA;H/im4IVT/sZQhr2XlhDj5vTKM/gfcf218LTPA5DsVUf7y6/yYB/w7D+C/ryfKPv/AB+Pcw5y9ytk&#xA;GbsVdirzG6sf0bqF1ptKR271thv/ALzyfFFSv8oqnzXAXnp4/DkYd3L3dP1fBZgQlupXaTW0kVmr&#xA;XV1GeUSxUKrLGeSh3NEX4huCa0wuPlmCCI7y/SqWmoRiONLtGtLh6co5aAF23IWQVRt+gBrhO7KG&#xA;UV6vSfP9aOyLcpzfEBH/ADnf/VHX+mSj3ol3KmRS7FXYqnXk2++ravLZOaRX6+pF4CeIUYfN4v8A&#xA;iGSHJy9Dk4ZmPSX3j9Y+5m+Lt3YqowfHJJN2J4J/qpt+LV/DJy2ADCO5JVsgzdirsVdirsVdirsV&#xA;dirsVdirsVdiqndW0V1bTW0w5Qzo0cig0qrjidx7HFjOIkCDyKF0W5mmsVS4Nbu2Zre6PcyRGnOm&#xA;1BItHHswwlrwTJjv9Q2Pw/Xz+KNkdY0Z22VQSfkMQLNNpNC1O2RliBcUkc85O/xNvT6OmGZs7IiN&#xA;lXIsnYqpXV5aWkRmupkgiBpzkYKKnoKnvjTGc4xFyNBhHnWSe5NtqljaSLFHS2nurhPSRkmYCM8G&#xA;pMeEhoKoB8R3wkOo15MqnEGuVnbny89j5dWP/o/1d7yVrjxi+xD/AMAPtD/XLZG3B8K/qN/d+Pfa&#xA;KVVRQqAKqiiqBQAYG0CnMqupVwGVhRlIqCMVItC/o/0t7OVrfwi+3D/wB+yP9Qrhtq8KvpNfd+Pd&#xA;Sml3cRuz3UBKD4RNCDIu3Wq/3gqfAEe+E8qQJkfUPl+LRkM8M6epDIsidOSkEV+jItsZA7hfil2K&#xA;rXknhMdzbitzbOs0ArSrIa8SR2cVU+xwgoJI3HMb/j38np1ndw3lpDdwHlDcIssTdKq45Db5HC9D&#xA;CYlESHIuuXZYiE/vHIRPm21fo65KAs7rI7KiIqIqLsqgKo9htgJs2kCm8CXYq7FXYq7FXYq7FXYq&#xA;7FXYq7FXYq7FUsNbTXVbpBqacT4C5gWq/TJCD/yLGHo4/wBOTyn94/WP9yjZ/jljh7E+o/8Aqodv&#xA;van45KOwJbZbkBWyDNA3Ws2MEzW6s1xeLQm0twZZRXpyC/YB/mcge+GmmeeINc5dw3P7PipU1276&#xA;lNMgJ7cZ7kivv+5jP/IzHZj+8l/QHzP6h/sla00awtphcBDNdgU+tzsZZaEUIV3rxU/yrQe2JLKG&#xA;CMTfOXedz+Pcq6hYw39jcWU9fSuI2jcjqAwpUV7jqMDPLjE4mJ5F5nF6yhopwBcwM0NwB09SMlWp&#xA;7Eio9sBDz8b5HmNivwJdiq2ViqEj7R2X5nYYYjdBLaKEUKOgFMSbSBShNYW0r+rxMc/+/oyUfbxZ&#xA;eo9jtgthLGCb6rP9yMH8t3H70jlA/wCIMf8AgcLH1j+l9/6vuXw39tI4iJMU56Qyjg5p1oD9oe61&#xA;GCmUcgJrkURizZP5Evx6Nzpbn4rZvWtxtvDMSSPfjJy+QK5J2HZ+TYw7tx7j+2/sZIP3l0f5YRT/&#xA;AGbD+C/ryfKPvc/nL3K2QZuxV2KuxV2KuxV2KuxV2KuxV2KuxV2KuxVA63bST6dL6PEXMFJ7Zm2A&#xA;liPNKnspI4t7E4Q054EwNcxuPeEr0fzRDrVub3Rbd71JjxEsn7iGMIPsO7AsT1+wjUJoclKqDj4N&#xA;WMo4sY4r+AH48gUf+i726FdSvGZD1tbXlBF/snBMzf8ABhT/AC5G27wZS+s/AbD9f215I61tLW0h&#xA;ENrCkEI3EcahFqeuwpgboQjEUBQVcWTsVdirBfOFj9U1tbtRSHUl+M70FxCoX/h4gKD/ACDiXT63&#xA;Hw5OLpL7x+sfclGRcV2KqZ+KYeEe/wDsj/QfryXII5lUyKXYq7FVk0MMyGOZFkQ9VcBh9xxRKIIo&#xA;of6ncQ/7yTkL/vmasifQxPMf8EQPDDbXwEfSfnv+1da+ZF0PUbXUb+NraGNvRuHX95G0U1AwDAcv&#xA;hYK+6gnjQYQmGq8GYnLYcj12P4v4PVbRaQKxILP8bEdCW3NPbwyUzZekhyVciydirsVdirsVdirs&#xA;VdirsVdirsVdirsVdirsVQNzomnTyet6XoXIXitzATFKAOg5pQlR/K1R7YbaZ4IE3VHvGxUqa7aH&#xA;4WTU4B2bjBcgf6wpDIfoj+eOzH95H+mPkf1H/YqttrVjNMLd2a2uz0tbhTFIT34V+GQCnVCw98aZ&#xA;QzxJrlLuO39vwtHYG52KuxVKfNOlvqOjTRwryu4aT2g7mWPcL2+2KofY4hxtZi48ZA+obj3j9fJg&#xA;UUqSxJLGapIoZD4hhUZF0sTYsNswVSx2AFSfliAkrYlISrfab4m+Z7fR0wyKIhfgS7FXYqtiZp5/&#xA;q9rG91cDrDCpcivTmR8KDfq5AwgIBs0Nz5fjb4p5YeTNWuaPfTLYxHrFFSWenu5rGh+h8NBzMehn&#xA;L6jwj5n9X3sk03y1oun/ABQWytOV4tcS1llIIoRzepAP8ooPbDbn4tLjhyG/edymeByHYq7FXYq7&#xA;FXYq7FXYq7FXYq7FXYq7FXYq7FXYq7FXYqp3NrbXURhuYUnhahaORQ6mm42aoxYygJCiLCA/RV5a&#xA;76bePGg6WtzW4h+hmIlX2o/Efy4bafBlH6JfA7j9f215O/TMlttqlq9oorW5Q+vbbdzIoDIB3MiK&#xA;PfGl8cx+scPnzHz6fEBMIZoZollhdZYnFUkQhlI8QRscDfGQIscl+KXm2rWH6O1m7s1HGF2+s2wA&#xA;oPTmJJUU/lkDinZeOAuhzY/DyGPTmPcf238KQcvxMsfYnk3yX+2mGPe1HuVMilp3SNC7sERd2ZjQ&#xA;Ae5OKk1zRFhp2rajQ2FozxGhF1MTDDQ7ghiCzg+KKww8LPHink+kbd52H7fgCyGx8iW+z6pcvdt/&#xA;viKsEI+fEmRvpeh/lwudj7PH8Zvy5D9f2/BklraWtpCILWFIIVrxiiUIoruaKoAxc+EIxFRFBVxZ&#xA;OxV2KuxV2KuxV2KuxV2KuxV2KuxV2KuxV2KuxV2KuxV2KuxV2KuxV2KpfNodk0zXFsXsbpzyee1I&#xA;QsfF0IaOQ+7qcNtEtPG7HpPl+KPxCz19ctNp4V1CEf7tt6RTAf5UUjcG9yrj2XHZHFkjzHEPLY/I&#xA;/r+CQebp7C+tIr+2k/0rTWP1m3cNHMttMQjlonCuoVgj8iPsg06404WtlGcRIHePMdaPl8ixlJkM&#xA;3FeUk8v91BGrSSMq7VVEBYitTWmAjo68S38+7qndj5T128+KYJp0J7yUlmPyRDwWviXPuuNOZj0e&#xA;SXP0j5n8fH4Mk03yjoti6zGI3d0hqtxckSMp8UWgRD/qKMNudi0WOBurPefxQ+Cc4HLdirsVdirs&#xA;VdirsVdirsVdirsVdirsVdirsVdirsVdirsVdirsVdirsVdirsVdirsVdiqC1bRtM1a0e11C3WeJ&#xA;1ZQSPiXmKEo3VTTuMbas2CGSPDIWHaToumaRara6fbpBEoUMVHxPxFAXb7TN7nG0YcEMUaiKRuLc&#xA;7FXYq7FXYq7FXYq7FXYq7FXYq7FXYq7FXYq7FXYq7FXYq7FXYq7FXYq7FXYq7FXYq7FXYq7FXYq7&#xA;FXYq7FXYq7FXYq7FXYq7FXYq7FXYq7FXYq7FXYq7FXYq7FXYq7FXYq7FXYq7FXYq7FXYq7FXYq7F&#xA;XYq7FXYq7FXYq7FXYq7FXYq7FXYq7FXYq7FXYq7FXYq7FXYq7FXYq7FXYq7FXYq7FXYq7FXYq7FX&#xA;Yq7FXYq7FXYq7FXYq7FXYq7FXYq7FXYq7FXYq7FXYq7FXYq7FXYq7FXYq7FXYq7FXYq7FXYq7FXY&#xA;q7FXYq7FXYq7FXYq7FXYq7FXYq7FXYq7FXYq7FXYq7FXYq7FXYq//9k=</xmpGImg:image>
               </rdf:li>
            </rdf:Alt>
         </xmp:Thumbnails>
         <xmp:MetadataDate>2025-12-11T01:18:02+08:00</xmp:MetadataDate>
         <xmp:ModifyDate>2025-12-11T01:18:02+08:00</xmp:ModifyDate>
         <xmpTPg:MaxPageSize rdf:parseType="Resource">
            <stDim:w>1000.000000</stDim:w>
            <stDim:h>1000.000000</stDim:h>
            <stDim:unit>Pixels</stDim:unit>
         </xmpTPg:MaxPageSize>
         <xmpTPg:NPages>1</xmpTPg:NPages>
         <xmpTPg:HasVisibleTransparency>True</xmpTPg:HasVisibleTransparency>
         <xmpTPg:HasVisibleOverprint>False</xmpTPg:HasVisibleOverprint>
         <xmpTPg:PlateNames>
            <rdf:Seq>
               <rdf:li>Cyan</rdf:li>
               <rdf:li>Magenta</rdf:li>
               <rdf:li>Yellow</rdf:li>
               <rdf:li>Black</rdf:li>
            </rdf:Seq>
         </xmpTPg:PlateNames>
         <xmpTPg:SwatchGroups>
            <rdf:Seq>
               <rdf:li rdf:parseType="Resource">
                  <xmpG:groupName>Default Swatch Group</xmpG:groupName>
                  <xmpG:groupType>0</xmpG:groupType>
               </rdf:li>
            </rdf:Seq>
         </xmpTPg:SwatchGroups>
         <dc:format>image/svg+xml</dc:format>
         <xmpMM:DerivedFrom rdf:parseType="Resource"/>
         <xmpMM:DocumentID>xmp.did:13be3721-8a12-cb49-9277-af9d0ba72242</xmpMM:DocumentID>
         <xmpMM:InstanceID>xmp.iid:13be3721-8a12-cb49-9277-af9d0ba72242</xmpMM:InstanceID>
         <xmpMM:OriginalDocumentID>xmp.did:13be3721-8a12-cb49-9277-af9d0ba72242</xmpMM:OriginalDocumentID>
         <xmpMM:History>
            <rdf:Seq>
               <rdf:li rdf:parseType="Resource">
                  <stEvt:action>saved</stEvt:action>
                  <stEvt:instanceID>xmp.iid:13be3721-8a12-cb49-9277-af9d0ba72242</stEvt:instanceID>
                  <stEvt:when>2025-12-11T01:18:02+08:00</stEvt:when>
                  <stEvt:softwareAgent>Adobe Illustrator 29.8 (Windows)</stEvt:softwareAgent>
                  <stEvt:changed>/</stEvt:changed>
               </rdf:li>
            </rdf:Seq>
         </xmpMM:History>
      </rdf:Description>
   </rdf:RDF>
</x:xmpmeta>
                                                                                                    
                                                                                                    
                                                                                                    
                                                                                                    
                                                                                                    
                                                                                                    
                                                                                                    
                                                                                                    
                                                                                                    
                                                                                                    
                                                                                                    
                                                                                                    
                                                                                                    
                                                                                                    
                                                                                                    
                                                                                                    
                                                                                                    
                                                                                                    
                                                                                                    
                                                                                                    
                           
<?xpacket end="w"?>
  </metadata>
</svg>