<?xml version="1.0" encoding="UTF-8"?>
<svg id="Layer_1" xmlns="http://www.w3.org/2000/svg" version="1.1" xmlns:xlink="http://www.w3.org/1999/xlink" viewBox="0 0 1000 1000">
  <!-- Generator: Adobe Illustrator 29.8.3, SVG Export Plug-In . SVG Version: 2.1.1 Build 3)  -->
  <defs>
    <radialGradient id="radial-gradient" cx="448.02" cy="324.67" fx="448.02" fy="324.67" r="52.67" gradientTransform="translate(210.33 971.41) rotate(-22.5) scale(1 -1)" gradientUnits="userSpaceOnUse">
      <stop offset="0" stop-color="#66d3fa"/>
      <stop offset="1" stop-color="#007acc"/>
    </radialGradient>
  </defs>
  <rect width="1000" height="1000" display="none" fill="#0d1326" stroke="#0d1326" stroke-width="2"/>
  <path d="M850,496c-.37,0-.71.07-1.05.16l-99.49-240.19c1.2-.69,2.03-1.97,2.03-3.46,0-2.21-1.79-4-4-4-1.48,0-2.77.82-3.46,2.03l-240.19-99.49c.09-.34.16-.68.16-1.05,0-2.21-1.79-4-4-4s-4,1.79-4,4c0,.37.07.71.16,1.05l-240.19,99.49c-.69-1.2-1.97-2.03-3.46-2.03-2.21,0-4,1.79-4,4,0,1.48.82,2.77,2.03,3.46l-99.49,240.19c-.34-.09-.68-.16-1.05-.16-2.21,0-4,1.79-4,4s1.79,4,4,4c.37,0,.71-.07,1.05-.16l99.49,240.19c-1.2.69-2.03,1.97-2.03,3.46,0,2.21,1.79,4,4,4,1.48,0,2.77-.82,3.46-2.03l240.19,99.49c-.09.34-.16.68-.16,1.05,0,2.21,1.79,4,4,4s4-1.79,4-4c0-.37-.07-.71-.16-1.05l240.19-99.49c.69,1.2,1.97,2.03,3.46,2.03,2.21,0,4-1.79,4-4,0-1.48-.82-2.77-2.03-3.46l99.49-240.19c.34.09.68.16,1.05.16,2.21,0,4-1.79,4-4s-1.79-4-4-4ZM744.03,745.52l-170.89-70.79,28.32-68.37c.34.09.68.16,1.05.16,2.21,0,4-1.79,4-4,0-.37-.07-.71-.16-1.05l68.37-28.32,70.79,170.89c-.62.35-1.13.87-1.48,1.48ZM500,846c-.37,0-.71.07-1.05.16l-70.78-170.89,68.37-28.32c.69,1.2,1.97,2.03,3.46,2.03s2.77-.82,3.46-2.03l68.37,28.32-70.78,170.89c-.34-.09-.68-.16-1.05-.16ZM254.48,744.03l70.78-170.9,68.38,28.32c-.09.34-.16.68-.16,1.05,0,2.21,1.79,4,4,4,.37,0,.71-.07,1.05-.16l28.32,68.37-170.89,70.79c-.35-.62-.87-1.13-1.48-1.48ZM153.84,498.95l170.88-70.78,28.32,68.37c-1.2.69-2.03,1.97-2.03,3.46s.82,2.77,2.03,3.46l-28.32,68.37-170.88-70.78c.09-.34.16-.68.16-1.05s-.07-.71-.16-1.05ZM255.97,254.48l170.9,70.78-28.32,68.38c-.34-.09-.68-.16-1.05-.16-2.21,0-4,1.79-4,4,0,.37.07.71.16,1.05l-68.38,28.32-70.78-170.9c.62-.35,1.13-.87,1.48-1.48ZM500,154c.37,0,.71-.07,1.05-.16l70.78,170.88-68.37,28.32c-.69-1.2-1.97-2.03-3.46-2.03s-2.77.82-3.46,2.03l-68.37-28.32,70.78-170.88c.34.09.68.16,1.05.16ZM745.52,255.97l-70.79,170.89-68.37-28.32c.09-.34.16-.68.16-1.05,0-2.21-1.79-4-4-4-.37,0-.71.07-1.05.16l-28.32-68.38,170.9-70.78c.35.62.87,1.13,1.48,1.48ZM500,640.97c-.37,0-.71.07-1.05.16l-28.32-68.37,29.37-12.16,29.37,12.17-28.32,68.37c-.34-.09-.68-.16-1.05-.16ZM500,359.02c.37,0,.71-.07,1.05-.16l28.32,68.38-29.38,12.17-29.37-12.17,28.32-68.38c.34.09.68.16,1.05.16ZM600.54,400.95l-28.32,68.37-29.37-12.16-12.17-29.37,68.37-28.32c.35.62.87,1.13,1.48,1.48ZM641.13,501.05l-68.37,28.32-12.17-29.37,12.16-29.37,68.37,28.32c-.09.34-.16.68-.16,1.05s.07.71.16,1.05ZM358.86,498.95l68.38-28.32,12.17,29.37-12.17,29.38-68.38-28.32c.09-.34.16-.68.16-1.05s-.07-.71-.16-1.05ZM428.17,470.24l28.45-11.78-16.66,40.23-11.78-28.45ZM439.95,501.3l16.67,40.24-28.45-11.78,11.78-28.45ZM440.49,500l17.43-42.08,42.08-17.43,42.08,17.43,17.43,42.07-17.43,42.08-42.08,17.43-42.07-17.43-17.43-42.08ZM543.39,458.46l28.44,11.78-11.78,28.44-16.66-40.23ZM560.05,501.3l11.78,28.45-28.45,11.78,16.66-40.23ZM541.54,456.62l-40.24-16.67,28.45-11.78,11.78,28.45ZM498.69,439.95l-40.23,16.66,11.78-28.45,28.45,11.78ZM457.15,457.15l-29.37,12.17-28.32-68.37c.62-.35,1.13-.87,1.48-1.48l68.37,28.32-12.17,29.37ZM397.49,401.49c.37,0,.71-.07,1.05-.16l28.32,68.37-68.38,28.32c-.69-1.2-1.97-2.03-3.46-2.03-.37,0-.71.07-1.05.16l-28.32-68.37,68.38-28.32c.69,1.2,1.97,2.03,3.46,2.03ZM355.02,504c1.48,0,2.77-.82,3.46-2.03l68.38,28.32-28.32,68.37c-.34-.09-.68-.16-1.05-.16-1.48,0-2.77.82-3.46,2.03l-68.38-28.32,28.32-68.37c.34.09.68.16,1.05.16ZM399.46,599.05l28.32-68.37,29.37,12.17,12.16,29.37-68.37,28.32c-.35-.62-.87-1.13-1.48-1.48ZM458.46,543.39l40.23,16.66-28.44,11.78-11.78-28.44ZM501.3,560.05l40.23-16.66-11.78,28.45-28.45-11.78ZM542.84,542.84l29.37-12.17,28.32,68.37c-.62.35-1.13.87-1.48,1.48l-68.37-28.32,12.17-29.37ZM602.51,598.51c-.37,0-.71.07-1.05.16l-28.32-68.37,68.37-28.32c.69,1.2,1.97,2.03,3.46,2.03.37,0,.71-.07,1.05-.16l28.32,68.37-68.38,28.32c-.69-1.2-1.97-2.03-3.46-2.03ZM644.97,496c-1.48,0-2.77.82-3.46,2.03l-68.37-28.32,28.32-68.37c.34.09.68.16,1.05.16,1.48,0,2.77-.82,3.46-2.03l68.38,28.32-28.32,68.37c-.34-.09-.68-.16-1.05-.16ZM600.54,394.03c-1.2.69-2.03,1.97-2.03,3.46,0,.37.07.71.16,1.05l-68.37,28.32-28.32-68.38c1.2-.69,2.03-1.97,2.03-3.46,0-.37-.07-.71-.16-1.05l68.37-28.32,28.32,68.38ZM496.16,353.97c-.09.34-.16.68-.16,1.05,0,1.48.82,2.77,2.03,3.46l-28.32,68.38-68.37-28.32c.09-.34.16-.68.16-1.05,0-1.48-.82-2.77-2.03-3.46l28.32-68.38,68.37,28.32ZM399.46,605.97c1.2-.69,2.03-1.97,2.03-3.46,0-.37-.07-.71-.16-1.05l68.37-28.32,28.32,68.37c-1.2.69-2.03,1.97-2.03,3.46,0,.37.07.71.16,1.05l-68.37,28.32-28.32-68.38ZM503.84,646.02c.09-.34.16-.68.16-1.05,0-1.48-.82-2.77-2.03-3.46l28.32-68.37,68.37,28.32c-.09.34-.16.68-.16,1.05,0,1.48.82,2.77,2.03,3.46l-28.32,68.38-68.37-28.32ZM646.94,503.46c1.2-.69,2.03-1.97,2.03-3.46s-.82-2.77-2.03-3.46l28.32-68.37,170.89,70.78c-.09.34-.16.68-.16,1.05s.07.71.16,1.05l-170.89,70.78-28.32-68.37ZM848.03,496.54c-.62.35-1.13.87-1.48,1.48l-170.89-70.78,70.79-170.89c.34.09.68.16,1.05.16s.71-.07,1.05-.16l99.49,240.19ZM743.65,251.46c-.09.34-.16.68-.16,1.05s.07.71.16,1.05l-170.89,70.78-70.78-170.89c.62-.35,1.13-.87,1.48-1.48l240.19,99.49ZM496.54,151.97c.35.62.87,1.13,1.48,1.48l-70.78,170.89-170.89-70.78c.09-.34.16-.68.16-1.05s-.07-.71-.16-1.05l240.19-99.49ZM251.46,256.35c.34.09.68.16,1.05.16s.71-.07,1.05-.16l70.78,170.89-170.89,70.78c-.35-.62-.87-1.13-1.48-1.48l99.49-240.19ZM151.97,503.46c.62-.35,1.13-.87,1.48-1.48l170.89,70.78-70.78,170.89c-.34-.09-.68-.16-1.05-.16s-.71.07-1.05.16l-99.49-240.19ZM256.35,748.54c.09-.34.16-.68.16-1.05s-.07-.71-.16-1.05l170.89-70.79,70.78,170.89c-.62.35-1.13.87-1.48,1.48l-240.19-99.49ZM503.46,848.03c-.35-.62-.87-1.13-1.48-1.48l70.78-170.89,170.89,70.79c-.09.34-.16.68-.16,1.05s.07.71.16,1.05l-240.19,99.49ZM748.54,743.65c-.34-.09-.68-.16-1.05-.16s-.71.07-1.05.16l-70.79-170.89,170.89-70.78c.35.62.87,1.13,1.48,1.48l-99.49,240.19Z" fill="#66b3ff" opacity=".7"/>
  <g display="none">
    <polygon points="746.85 747.2 499.65 849.84 397.85 603.48 645.05 500.84 746.85 747.2" fill="#009e60" opacity=".4"/>
    <path d="M747.49,743.49c-.37,0-.71.07-1.05.16l-99.5-240.19c1.2-.69,2.03-1.97,2.03-3.46,0-2.21-1.79-4-4-4-1.48,0-2.77.82-3.46,2.03l-240.18-99.49c.09-.34.16-.68.16-1.05,0-2.21-1.79-4-4-4s-4,1.79-4,4c0,.37.07.71.16,1.05l-240.19,99.49c-.69-1.2-1.97-2.03-3.46-2.03-2.21,0-4,1.79-4,4s1.79,4,4,4c.37,0,.71-.07,1.05-.16l99.49,240.19c-1.2.69-2.03,1.97-2.03,3.46,0,2.21,1.79,4,4,4,1.48,0,2.77-.82,3.46-2.03l240.19,99.49c-.09.34-.16.68-.16,1.05,0,2.21,1.79,4,4,4s4-1.79,4-4c0-.37-.07-.71-.16-1.05l240.19-99.49c.69,1.2,1.97,2.03,3.46,2.03,2.21,0,4-1.79,4-4s-1.79-4-4-4ZM745.52,744.03c-.62.35-1.13.87-1.48,1.48l-240.19-99.5c.09-.34.16-.68.16-1.05,0-2.21-1.79-4-4-4-.37,0-.71.07-1.05.16l-28.32-68.37,170.88-70.78c.69,1.2,1.97,2.03,3.46,2.03.37,0,.71-.07,1.05-.16l99.5,240.19ZM401.49,602.51c0-.37-.07-.71-.16-1.05l68.37-28.32,28.32,68.37c-1.2.69-2.03,1.97-2.03,3.46,0,.37.07.71.16,1.05l-68.37,28.32-28.32-68.38c1.2-.69,2.03-1.97,2.03-3.46ZM641.13,498.95c-.09.34-.16.68-.16,1.05s.07.71.16,1.05l-170.88,70.78-70.78-170.88c.62-.35,1.13-.87,1.48-1.48l240.18,99.49ZM394.03,399.46c.69,1.2,1.97,2.03,3.46,2.03.37,0,.71-.07,1.05-.16l70.78,170.88-68.37,28.32c-.69-1.2-1.97-2.03-3.46-2.03s-2.77.82-3.46,2.03l-240.19-99.49c.09-.34.16-.68.16-1.05s-.07-.71-.16-1.05l240.19-99.49ZM151.97,503.46c.62-.35,1.13-.87,1.48-1.48l240.19,99.49c-.09.34-.16.68-.16,1.05,0,2.21,1.79,4,4,4,.37,0,.71-.07,1.05-.16l28.32,68.37-170.89,70.79c-.69-1.2-1.97-2.03-3.46-2.03-.37,0-.71.07-1.05.16l-99.49-240.19ZM256.35,748.54c.09-.34.16-.68.16-1.05s-.07-.71-.16-1.05l170.89-70.79,70.78,170.89c-.62.35-1.13.87-1.48,1.48l-240.19-99.49ZM503.46,848.03c-.69-1.2-1.97-2.03-3.46-2.03-.37,0-.71.07-1.05.16l-70.78-170.89,68.37-28.32c.69,1.2,1.97,2.03,3.46,2.03s2.77-.82,3.46-2.03l240.19,99.5c-.09.34-.16.68-.16,1.05s.07.71.16,1.05l-240.19,99.49Z" fill="#009e60"/>
  </g>
  <g display="none">
    <polygon points="499.75 849.55 252.37 747.33 354.59 501.14 601.97 603.36 499.75 849.55" fill="#7f4fc9" opacity=".4"/>
    <path d="M602.51,598.51c-.37,0-.71.07-1.05.16l-99.49-240.19c1.2-.69,2.03-1.97,2.03-3.46,0-2.21-1.79-4-4-4-1.48,0-2.77.82-3.46,2.03l-240.19-99.49c.09-.34.16-.68.16-1.05,0-2.21-1.79-4-4-4s-4,1.79-4,4c0,1.48.82,2.77,2.03,3.46l-99.49,240.19c-.34-.09-.68-.16-1.05-.16-2.21,0-4,1.79-4,4s1.79,4,4,4c.37,0,.71-.07,1.05-.16l99.49,240.19c-1.2.69-2.03,1.97-2.03,3.46,0,2.21,1.79,4,4,4,1.48,0,2.77-.82,3.46-2.03l240.19,99.49c-.09.34-.16.68-.16,1.05,0,2.21,1.79,4,4,4s4-1.79,4-4c0-1.48-.82-2.77-2.03-3.46l99.49-240.19c.34.09.68.16,1.05.16,2.21,0,4-1.79,4-4s-1.79-4-4-4ZM600.54,599.05c-.62.35-1.13.87-1.48,1.48l-170.89-70.78,70.78-170.89c.34.09.68.16,1.05.16s.71-.07,1.05-.16l99.49,240.19ZM496.16,353.97c-.09.34-.16.68-.16,1.05,0,1.48.82,2.77,2.03,3.46l-70.78,170.9-68.38-28.32c.09-.34.16-.68.16-1.05,0-2.21-1.79-4-4-4-.37,0-.71.07-1.05.16l-99.49-240.19c.62-.35,1.13-.87,1.48-1.48l240.19,99.49ZM397.49,598.51c-1.48,0-2.77.82-3.46,2.03l-68.38-28.32,28.32-68.37c.34.09.68.16,1.05.16,1.48,0,2.77-.82,3.46-2.03l68.38,28.32-28.32,68.37c-.34-.09-.68-.16-1.05-.16ZM251.46,256.35c.34.09.68.16,1.05.16s.71-.07,1.05-.16l99.49,240.19c-1.2.69-2.03,1.97-2.03,3.46s.82,2.77,2.03,3.46l-28.32,68.37-170.88-70.78c.09-.34.16-.68.16-1.05,0-1.48-.82-2.77-2.03-3.46l99.49-240.19ZM151.97,503.46c.62-.35,1.13-.87,1.48-1.48l170.89,70.78-70.78,170.89c-.34-.09-.68-.16-1.05-.16s-.71.07-1.05.16l-99.49-240.19ZM256.35,748.54c.09-.34.16-.68.16-1.05,0-1.48-.82-2.77-2.03-3.46l70.78-170.9,68.38,28.32c-.09.34-.16.68-.16,1.05,0,2.21,1.79,4,4,4,.37,0,.71-.07,1.05-.16l99.49,240.19c-.62.35-1.13.87-1.48,1.48l-240.19-99.49ZM501.05,846.16c-.34-.09-.68-.16-1.05-.16s-.71.07-1.05.16l-99.49-240.19c1.2-.69,2.03-1.97,2.03-3.46s-.82-2.77-2.03-3.46l28.32-68.37,170.88,70.78c-.09.34-.16.68-.16,1.05,0,1.48.82,2.77,2.03,3.46l-99.49,240.19Z" fill="#7f4fc9"/>
  </g>
  <g>
    <polygon points="398.23 602.37 150.86 500.15 253.07 253.96 500.45 356.18 398.23 602.37" fill="#007fff" opacity=".4"/>
    <path d="M747.49,248.51c-1.48,0-2.77.82-3.46,2.03l-240.19-99.49c.09-.34.16-.68.16-1.05,0-2.21-1.79-4-4-4s-4,1.79-4,4c0,.37.07.71.16,1.05l-240.19,99.49c-.69-1.2-1.97-2.03-3.46-2.03-2.21,0-4,1.79-4,4,0,1.48.82,2.77,2.03,3.46l-99.49,240.19c-.34-.09-.68-.16-1.05-.16-2.21,0-4,1.79-4,4s1.79,4,4,4c1.48,0,2.77-.82,3.46-2.03l240.19,99.49c-.09.34-.16.68-.16,1.05,0,2.21,1.79,4,4,4s4-1.79,4-4c0-.37-.07-.71-.16-1.05l240.18-99.49c.69,1.2,1.97,2.03,3.46,2.03,2.21,0,4-1.79,4-4,0-1.48-.82-2.77-2.03-3.46l99.5-240.19c.34.09.68.16,1.05.16,2.21,0,4-1.79,4-4s-1.79-4-4-4ZM743.65,251.46c-.09.34-.16.68-.16,1.05s.07.71.16,1.05l-240.19,99.49c-.69-1.2-1.97-2.03-3.46-2.03s-2.77.82-3.46,2.03l-68.37-28.32,70.78-170.88c.34.09.68.16,1.05.16,1.48,0,2.77-.82,3.46-2.03l240.19,99.49ZM399.46,394.03l28.32-68.38,68.37,28.32c-.09.34-.16.68-.16,1.05,0,1.48.82,2.77,2.03,3.46l-28.32,68.38-68.37-28.32c.09-.34.16-.68.16-1.05,0-1.48-.82-2.77-2.03-3.46ZM496.54,151.97c.35.62.87,1.13,1.48,1.48l-70.78,170.89-170.89-70.78c.09-.34.16-.68.16-1.05s-.07-.71-.16-1.05l240.19-99.49ZM251.46,256.35c.34.09.68.16,1.05.16,1.48,0,2.77-.82,3.46-2.03l170.9,70.78-28.32,68.38c-.34-.09-.68-.16-1.05-.16-2.21,0-4,1.79-4,4,0,.37.07.71.16,1.05l-240.19,99.49c-.35-.62-.87-1.13-1.48-1.48l99.49-240.19ZM153.84,501.05c.09-.34.16-.68.16-1.05s-.07-.71-.16-1.05l240.19-99.49c.69,1.2,1.97,2.03,3.46,2.03s2.77-.82,3.46-2.03l68.37,28.32-70.78,170.88c-.34-.09-.68-.16-1.05-.16-1.48,0-2.77.82-3.46,2.03l-240.19-99.49ZM400.95,600.54c-.35-.62-.87-1.13-1.48-1.48l70.78-170.88,170.88,70.78c-.09.34-.16.68-.16,1.05s.07.71.16,1.05l-240.18,99.49ZM646.02,496.16c-.34-.09-.68-.16-1.05-.16-1.48,0-2.77.82-3.46,2.03l-170.89-70.78,28.32-68.38c.34.09.68.16,1.05.16,2.21,0,4-1.79,4-4,0-.37-.07-.71-.16-1.05l240.19-99.49c.35.62.87,1.13,1.48,1.48l-99.5,240.19Z" fill="#007fff"/>
  </g>
  <g display="none">
    <polygon points="850.15 499.03 602.95 601.67 501.15 355.31 748.35 252.67 850.15 499.03" fill="#f28500" opacity=".4"/>
    <path d="M850,496c-.37,0-.71.07-1.05.16l-99.49-240.19c1.2-.69,2.03-1.97,2.03-3.46,0-2.21-1.79-4-4-4-1.48,0-2.77.82-3.46,2.03l-240.19-99.49c.09-.34.16-.68.16-1.05,0-2.21-1.79-4-4-4s-4,1.79-4,4c0,.37.07.71.16,1.05l-240.19,99.49c-.69-1.2-1.97-2.03-3.46-2.03-2.21,0-4,1.79-4,4s1.79,4,4,4c.37,0,.71-.07,1.05-.16l99.49,240.19c-1.2.69-2.03,1.97-2.03,3.46,0,2.21,1.79,4,4,4,1.48,0,2.77-.82,3.46-2.03l240.19,99.49c-.09.34-.16.68-.16,1.05,0,2.21,1.79,4,4,4s4-1.79,4-4c0-.37-.07-.71-.16-1.05l240.19-99.49c.69,1.2,1.97,2.03,3.46,2.03,2.21,0,4-1.79,4-4s-1.79-4-4-4ZM848.03,496.54c-.62.35-1.13.87-1.48,1.48l-240.19-99.49c.09-.34.16-.68.16-1.05,0-2.21-1.79-4-4-4-.37,0-.71.07-1.05.16l-28.32-68.38,170.9-70.78c.69,1.2,1.97,2.03,3.46,2.03.37,0,.71-.07,1.05-.16l99.49,240.19ZM504,355.02c0-.37-.07-.71-.16-1.05l68.37-28.32,28.32,68.38c-1.2.69-2.03,1.97-2.03,3.46,0,.37.07.71.16,1.05l-68.37,28.32-28.32-68.38c1.2-.69,2.03-1.97,2.03-3.46ZM743.65,251.46c-.09.34-.16.68-.16,1.05s.07.71.16,1.05l-170.89,70.78-70.78-170.89c.62-.35,1.13-.87,1.48-1.48l240.19,99.49ZM496.54,151.97c.69,1.2,1.97,2.03,3.46,2.03.37,0,.71-.07,1.05-.16l70.78,170.88-68.37,28.32c-.69-1.2-1.97-2.03-3.46-2.03s-2.77.82-3.46,2.03l-240.19-99.49c.09-.34.16-.68.16-1.05s-.07-.71-.16-1.05l240.19-99.49ZM254.48,255.97c.62-.35,1.13-.87,1.48-1.48l240.19,99.49c-.09.34-.16.68-.16,1.05,0,2.21,1.79,4,4,4,.37,0,.71-.07,1.05-.16l28.32,68.38-170.9,70.78c-.69-1.2-1.97-2.03-3.46-2.03-.37,0-.71.07-1.05.16l-99.49-240.19ZM358.86,501.05c.09-.34.16-.68.16-1.05s-.07-.71-.16-1.05l170.89-70.78,70.78,170.89c-.62.35-1.13.87-1.48,1.48l-240.19-99.49ZM605.97,600.54c-.69-1.2-1.97-2.03-3.46-2.03-.37,0-.71.07-1.05.16l-70.78-170.88,68.37-28.32c.69,1.2,1.97,2.03,3.46,2.03s2.77-.82,3.46-2.03l240.19,99.49c-.09.34-.16.68-.16,1.05s.07.71.16,1.05l-240.19,99.49Z" fill="#f28500"/>
  </g>
  <polygon points="500 443 459.69 459.69 443 500 459.69 540.31 500 557 540.31 540.31 557 500 540.31 459.69 500 443" fill="url(#radial-gradient)" stroke="#66d3fa" stroke-width="3"/>
  <metadata><?xpacket begin="﻿" id="W5M0MpCehiHzreSzNTczkc9d"?>
<x:xmpmeta xmlns:x="adobe:ns:meta/" x:xmptk="Adobe XMP Core 9.1-c003 1.000000, 0000/00/00-00:00:00        ">
   <rdf:RDF xmlns:rdf="http://www.w3.org/1999/02/22-rdf-syntax-ns#">
      <rdf:Description rdf:about=""
            xmlns:xmp="http://ns.adobe.com/xap/1.0/"
            xmlns:xmpGImg="http://ns.adobe.com/xap/1.0/g/img/"
            xmlns:xmpTPg="http://ns.adobe.com/xap/1.0/t/pg/"
            xmlns:stDim="http://ns.adobe.com/xap/1.0/sType/Dimensions#"
            xmlns:xmpG="http://ns.adobe.com/xap/1.0/g/"
            xmlns:dc="http://purl.org/dc/elements/1.1/">
         <xmp:CreatorTool>Adobe Illustrator 29.8 (Windows)</xmp:CreatorTool>
         <xmp:CreateDate>2025-12-11T01:17:20+08:00</xmp:CreateDate>
         <xmp:Thumbnails>
            <rdf:Alt>
               <rdf:li rdf:parseType="Resource">
                  <xmpGImg:width>256</xmpGImg:width>
                  <xmpGImg:height>256</xmpGImg:height>
                  <xmpGImg:format>JPEG</xmpGImg:format>
                  <xmpGImg:image>/9j/4AAQSkZJRgABAgEAAAAAAAD/7QAsUGhvdG9zaG9wIDMuMAA4QklNA+0AAAAAABAAAAAAAAEA&#xA;AQAAAAAAAQAB/+4ADkFkb2JlAGTAAAAAAf/bAIQABgQEBAUEBgUFBgkGBQYJCwgGBggLDAoKCwoK&#xA;DBAMDAwMDAwQDA4PEA8ODBMTFBQTExwbGxscHx8fHx8fHx8fHwEHBwcNDA0YEBAYGhURFRofHx8f&#xA;Hx8fHx8fHx8fHx8fHx8fHx8fHx8fHx8fHx8fHx8fHx8fHx8fHx8fHx8fHx8f/8AAEQgBAAEAAwER&#xA;AAIRAQMRAf/EAaIAAAAHAQEBAQEAAAAAAAAAAAQFAwIGAQAHCAkKCwEAAgIDAQEBAQEAAAAAAAAA&#xA;AQACAwQFBgcICQoLEAACAQMDAgQCBgcDBAIGAnMBAgMRBAAFIRIxQVEGE2EicYEUMpGhBxWxQiPB&#xA;UtHhMxZi8CRygvElQzRTkqKyY3PCNUQnk6OzNhdUZHTD0uIIJoMJChgZhJRFRqS0VtNVKBry4/PE&#xA;1OT0ZXWFlaW1xdXl9WZ2hpamtsbW5vY3R1dnd4eXp7fH1+f3OEhYaHiImKi4yNjo+Ck5SVlpeYmZ&#xA;qbnJ2en5KjpKWmp6ipqqusra6voRAAICAQIDBQUEBQYECAMDbQEAAhEDBCESMUEFURNhIgZxgZEy&#xA;obHwFMHR4SNCFVJicvEzJDRDghaSUyWiY7LCB3PSNeJEgxdUkwgJChgZJjZFGidkdFU38qOzwygp&#xA;0+PzhJSktMTU5PRldYWVpbXF1eX1RlZmdoaWprbG1ub2R1dnd4eXp7fH1+f3OEhYaHiImKi4yNjo&#xA;+DlJWWl5iZmpucnZ6fkqOkpaanqKmqq6ytrq+v/aAAwDAQACEQMRAD8A9U4q7FXYq7FXYq7FXYq7&#xA;FXYq7FXYq7FXYq7FXYq7FXYq7FXYq7FXYq7FXYq7FXYq7FXYq7FXYq7FXYq7FXYq7FXYq7FXYq7F&#xA;XYq7FXYq7FXYq7FXYq7FXYq7FXYq7FXYq7FXYq7FXYq7FXYq7FXYq7FXYq7FXYq7FXYq7FXYq7FX&#xA;Yq7FXYq7FXYq7FXYq7FXYq7FXYq7FXYq7FXYq7FXYq7FXYq7FXYq7FXYq7FXYq7FXYq7FXYq7FXY&#xA;q7FXYq7FXYq7FXYq7FXYq7FXYq7FXYq7FXYq7FXYq7FXYq7FXYq7FXYq7FXYq7FXYq7FXYq7FXYq&#xA;7FXYq7FXYq7FXYq7FXYq7FXYq7FXYq7FXYqg9V1nTdJtHur+dYYlVmAJ+JuIqQi/aY07DLsGnnll&#xA;wwFlqzZ4Y43I07S9X07VLZbmxnWaNgrMo2dOQqA6H4lPscc+nnilwyFfjp3rhzwyC4m0ZlLa7FXY&#xA;q7FXYq7FXYq7FXYq7FXYq7FXYq7FXYq7FXYq7FXYq7FXYq7FXYq7FXYq7FXYq7FUvm1yyWZre2D3&#xA;10h4vBagOVPg7krHGfZ2GZEdNKrl6Y95/R1PwDRLURuh6j5fih8Ss9DXLveeZdPhP+6reksxH+VL&#xA;IvBfcKh9mw8WKHIcZ89h8hv9vwRw5Jczwjy3PzP6vihLzSrBLi20+3irLeMXvbhy0kzW0BV3V5XL&#xA;OwZyicSfsk06ZdjzzIMydo8hyHEfIdws+8NU8MQREDeXM8zQ8/fQ9yNk0qwuZWSeL99D/cXCFo5l&#xA;jYkgLKhV1FaigPTKRnnEWDseY5i/cdm44YyO43HXr81voa5abwTLqEI/3VcUimA/yZY14N7BkHu2&#xA;PFinzHAfLcfI7/b8EcOSPI8Q89j8x+r4r4dcsmmW3uQ9jdOeKQXQCFj4I4LRyH2RjglppVcfVHvH&#xA;6eo+ITHURuj6T5/ij8CmGY7e7FXYq7FXYq7FXYq7FXYq7FXYq7FXYq7FXYq7FXYq7FXYq7FXYq7F&#xA;XYqp3N1bWsRmuZkghWgaSRgiiuw3agyUISkaiLLGUxEWTQQH6VvLrbTbN5EPS6ua28X0KwMre1E4&#xA;n+bL/AjH65fAbn9X235NPjSl9Efidh+v7K83foaS531S6e7U1rbIPQtt+xjUlnB7iR2Htj+YEfoH&#xA;D585fPp8AF8Ay+s8XlyHy6/ElMIYYYYlihRYokFEjQBVA8ABsMx5SMjZ3LfGIAocl+BKWaSfrVze&#xA;amd1lf6vamtR6NuSvIf68pc17rxzJz+mMYd2595/UK+NuPh9RM+/Ye4ftv4Ujbj4Hjm7KeD/AOq5&#xA;Ar9DU+iuUx3BDbLairZBmsmhhmiaKZFlicUeNwGUjwIOxwxkYmxsUSiCKPJL/wBDSW2+l3T2iilL&#xA;Zx69tt2EbEMgHYRuo9syPzAl9Y4vPlL59fiC0eAY/QeHy5j5dPgQ79K3lrtqVm8aDrdW1biL6VUC&#xA;VfeqcR/Nj4EZfRL4HY/q+2/JfGlH64/Ebj9f2V5o+2ura6iE1tMk8LVCyRsHU02O61GUThKJqQot&#xA;0ZiQsGwqZFk7FXYq7FXYq7FXYq7FXYq7FXYq7FXYq7FXYq7FXYq7FUDc63p0Eno+r69yV5LbQAyy&#xA;kdjwSpCn+ZqD3y+GmnIXVR7zsPx5c2meeANXZ7huVKuu3Z+FU0yA924z3JH+qKwxn6ZPlkv3UP6Z&#xA;+Uf1n/Ysf3kv6A+Z/UP9kq22i2MMwuHVrm7HS6uGMsgPfhX4Ywa9ECj2yM9RIihtHuGw/b8bZQwR&#xA;BvnLvO/9nwpHZQ3OxV2KoHWrmaGxMds3G8umFvat1Ikk250/4rWrn2GX6eAMrl9Mdz8P18vi055E&#xA;RofUdh+PLmira3htraK2hXjDAixxL1oqDio39hlU5mUjI8y2QiIgAcgvdFdGRhVWBDD2O2AGjaSL&#xA;U7Z2aKjmsiHg58SO/wBI3wzG+yIHZVyLJ2KuxVA3Oi2M0xuEVra7PW6t2MUhPbnT4ZAKdHDD2y+G&#xA;okBR3j3Hcfs+FNM8ESb5S7xt/b8bUq67aH4lTU4B3XjBcgf6ppDIfpj+WS/dT/oH5x/WP9kx/eR/&#xA;pj5H9R/2Krba3p08no+r6FyF5NbTgxSgdzwehKj+Zaj3yM9NOIurj3jcfjy5soZ4E1dHuOxR2UNz&#xA;sVdirsVdirsVdirsVdirsVdirsVdirsVdiqWeZNR/R+i3M68TMy+lbq1CDLL8CVHcAmrewOZOjw+&#xA;JkA6cz7g4+qy8GMnr095efeX5LvQYfqulTmGCNuX1eUerE/IfaIJDD/YMte+dBqhHOeLILPeNj+P&#xA;eC6PTGWEcMDQ7uY/Hupldh56h2TVLZrZu88NZoj8wB6i1/1SB/Nmqy9mH+A35HY/q+34Ozx9oD+M&#xA;V5jcfr/HNklreWl3CJ7WZLiFvsyRMHU091qM108coGpCj5ufCcZC4mwq5Bk7FXYqlif6Zrrsd4dM&#xA;TgoI2+szqGY790hKgH/LOZJ9GLzn/uR+s/7kOOPVk8ofef1D70zzGch2KqJ/d3QP7M4of9dRUfev&#xA;6snzj7mHKXvVsgzdirsVUrq7tbSEzXUyQQjYySMEWp6bmmThjlI1EWWM5xiLJoIE6pe3QpptmzIe&#xA;l1dcoIv9ihBmb/gAp/my7wYx+uXwjuf1D535NPjSl9A+J2H6/s+KUeYPLyaubTTNWne9+tS+rJCn&#xA;7iGOKCjOyopLHkxRPjdiOVRSmZel1fhXPGOHhFd5JPLf5nYDlRcXU6bxahM8Vm+4AD8Abk89mS2j&#xA;VgVSAGT4GA6Arsae3hmumN3YQ5KuQZOxV2KuxV2KuxV2KuxV2KuxV2KuxV2KuxVhPnO/+sarDYoa&#xA;xWK+rKO3rSiiD5pHX/g83XZ+LhxmR5y2+A/WfudRrsnFMR6R+8/s+9IZPhdJO32W+Tf25njucI96&#xA;pkWS2NWhnNxbSPbXBpWaFijGm4DU2cezVGEmxUhY7j+NvggCjY2Pknlj5y1a2ol7Et9EP92x0inA&#xA;91P7tz/wGYOXs/HL6Twn5j9Y+1zMeunH6hxD5H9R+xkemeY9H1JhHbzhbg/8esoMcuwqaI1CwHit&#xA;R75rs2kyY9yNu8bhz8Wqx5Ngd+7qjb67is7Oa7lqY4EaRgOp4itB7noMpx4zOQiOrbkmIRMj0UdI&#xA;tJbWwjSehupC010R0M0rF5KewZqL7UyeoyCUyR9PIe4bBjggYx358z7zzRmUtrsVU7iNniIX7Yoy&#xA;V/mU1GSgaLGQsLopFkjWRejAEV674JCjSQbFoS71mwtpTBzM12KH6rApllFRUFkSvAH+ZqD3y6Gn&#xA;nIXyj3nYft+G7VPPGJrnLuG5/HvUa67d9AmmQHx4z3JFfb9zGf8AkZkv3UP6Z+Uf1n/Ysf3kv6A+&#xA;Z/UP9kq2ujWMEy3DK1xeLUC7uCZZRXrxLfYB/lQAe2RnqJSFco9w2H7fjZZQwRBvnLvO5/Z8EdlD&#xA;clmlgXV7eakd0Zvqtqf+KoGIdv8AZTF/moXMnN6Yxh/nH3n9Qr424+H1SM/gPcP239iNH7u6P8sw&#xA;r/s1H8V/VlPOPubeUverZBm7FXYq7FXYq7FXYq7FXYq7FXYq7FXYqpXVzDa2s11OeMMCNLK1K0VA&#xA;WY0HsMlCBlIRHM7MZzEQSeQeZLLNO8l1cbXFy7TSjrQuahK+CLRR7DOmMRGojlHb8e/m89ZNk8zv&#xA;+PdybZQylT0YUP04g0khbExZPi+0vwt8x/XGQ3QCvwJdiqyWGKVeMqB160YV38cMZEckGIPNv9Ma&#xA;xFc21nFctc20TLcyW1yxkH7pgYx6n96KyCoqxHw9O2P5fGYmRFSO1jz57cuXl1Xx8gIiDYG9Hy5b&#xA;8+f3MvsfPGmyUTUEbT5Nqu55wEk9pl+yPeQLmoy9mzG8PWPt+X6rdpj7Qgfq9P3fP9dMhjkjljWS&#xA;Ng8bgMjqQQQehBGa8gg0XOBBFh0kkccbSSMEjQEu7EAADqSTiASaCkgCyl36b+sbaXbvfV6XFfSt&#xA;utK+swPMe8SvmR+W4f7w8Plzl8un+cQ0ePxfQOLz5D5/qtRi0y9nleLUbxhG1ZFtbQmGM8ieQMgP&#xA;rMVY9mUGv2cnLNGIuEd++W5+X0/YfewGKRNTPwG328/tHuTS1s7S0iENrCkEQNeEahRU9TQd8xp5&#xA;JTNyNlyYQjEVEUFXIMnYqgdZupoLFlt243lwwt7QkVpLKeIancJu7ewOX6eAlLf6RufcP18veWnP&#xA;MiO31HYe8/q5om0tYbS1htYRSGBFjjB3PFBQb/RleSZlIyPMtkICMQByDrlGaIlP7xCHT5rvT6em&#xA;CBo7rIbKiOrorrurAMp9jvgIo0kG28CXYq7FXYq7FXYq7FXYq7FXYq7FXYqxfz1fUt7bTEPxXT+r&#xA;P7QwkNT/AGUhQe45ZtOzMW5n/N2HvP7L+x13aGTYQ7/uH7a+1i+bN1zsVU/sze0g/wCGH9R+rJcw&#xA;x6qmRZOxV2KoPTv3qyXh/wCPlqx/8Yl2j+8fF9OXZdqj3ff1/V8GrFvcu/7un60ZlLao8r+0B/Q8&#xA;72d7csIoRERwaaU8ELxsDG3xNuxWoGTqE/7wcURub7h3Hmx9Uf7s8Mj958uTPtN0SBoYZdSkfU76&#xA;Kgea5oVEqbFo4QBEnxDYqtfc5oc2pIJEBwRPQd3meZ+busWnFAzPHId/f5DkE4zDcpRuvgCzj/dR&#xA;q3+odm+7r9GThvt3sJ7b9ytkGbsVdiqWD/S9dJ6waYlO9DczrX744f8Ak5mT9GLzn/uR+s/7lx/q&#xA;yeUPvP6h/ukzzGch2KqMHwSSQ9geaf6r7/g1fwyctwCwjsSFbIM3Yq7FXYq7FXYq7FXYq7FXYq7F&#xA;XYq811K+/SOq3d8DWJmENsQaj0YahSCOodizj2bOkw4vDxiPXmfef1bD4Ogy5OOZl05D3D8E/FRy&#xA;bB2KrJVLIeP2huvzG+GJ3QQuVgyhh0IqMSKSC3gVKNV1WEwehbiS49Z1hlkt0aQRq5o7Fl2qFrQD&#xA;etNsy8GA3ZoVvvtbjZswqhZvbbekxtp7aaP/AEd1ZE+Gi/s0/ZI7fLMecZA7t8JAjZWyDJNPKNj9&#xA;c103LCsOmJyHgZ5gVX/gI+VR/lLmLr8vBi4es/uH6zXyLk6LHxZL6Q+8/qH3hmw/d3RH7Mw5D/XU&#xA;UP3rT7s0vOPudtyl71bIM1kskSL+9YBW2oe/tTvhiCeSCQOaEsb6IxcH5x+m7RI8qlQ4U0BBPf8A&#xA;GuXZcRuxve+zVjyCqKOyhuUry6itLSa6mJEUCNI9NzRRU0Hjk8cDOQiOZYzmIxMjyCH0a0mtrBBc&#xA;AC7mLT3dKEerKebqCOqrXivsBlmomJT2+kbD3D9fM+bXggYx3+o7n3n8UjcobnYqo3PwGOftGaP/&#xA;AKjbH7jQ/Rk4b2GEtt1bIM3Yq7FXYq7FXYq7FXYq7FXYq7FUm826i9josvosUuroi2tmHUPIDVh7&#xA;ogZ/ozM0OETyi/pjufh+s0HF1uXgxmuZ2H48huwZEREVEHFFAVVHQAbAZvCbNumApdgS7FVOe4gg&#xA;TnNIsa9AWIFT4DxOSjAyNAWxlIR5oOO6upGaO2gKISWWWcFAAfCP7bfFXY8fnlphEbyPy/Xy+9rE&#xA;5HYD5/q/sVP0csu95I1z/wAVn4Yv+RY2P+yrg8WvpFff8/1Unwr+o393y/WiTGhj9MDitKADag7U&#xA;+WVXvbZW1KD2lvchZJEpOo4+qhKOKbEB1Iale1csGQx2HJgYCW55qcrX1nE8pkW5gjUs4kokgVRU&#xA;nko4t8uI+eSiIzNVRPyYniiL5j7WceT5rSy06Gzu+Vpql0zTTwXCmNmlf9mMt8MnBAqfATsN6Zo+&#xA;0IynMyj6oR2BG+3n3Wd93caKUYQEZemZ3IPf5d9ctk8u5kKkRVknjIZUTc1HYnovIbb5hY49+wLm&#xA;Tl3c1yG4nRX5CKNhVeHxMQdxuRQfcfngNRPeUiz5Okjjt42kjWsxoqsxLMWY0UFjvSuIJkaPJSBE&#xA;WOarHEqRLF9pQKGvfxr88gZWbZAUKWfVQm8DGL/JG6f8Cen0UyXHfPdjwVy2SzU5ZZ72z06VOUYY&#xA;Xd00YLVjhIMYK0LKWm4nvUK2ZOGIjGUxz+ke88/9jfzDj5STIQPvPw5fbXyKbxyxyLyjYMOlQa75&#xA;iGJHNygQeS7Al2KtMqspVhVWFCD3BxBpSFO1ZjHwc1eI8GJ6mnQ/StDk5je+9jA7e5VyDJ2KuxV2&#xA;KuxV2KuxV2KuxV2KsD82X31vXDAprDpyemPeaUB3PvxTgB82Gb3Q4uDFfWf3Dl9t/Y6bWZOLJXSP&#xA;3n8D7UrzKcZDS6hbpIYlrNOOsMQ5MP8AW7L/ALIjLI4iRfIef4+5rOQA1zKzjqM/Vls4zTZaSS/S&#xA;SOC/c3zyXoj/AEvsH6/uR6z/AEfv/V96pBY20L+oq8pqUMzku9PDk1TT2G2RllkdujKOMDfqqTfD&#xA;xk/kPxf6p6/1yMe5Mu9UyLJ2KqRZY5TyICuOVTsKjY/hkqsMeRQGra7p2miCe+VmtEkWWZafbEZB&#xA;WMVBrzfiDtTjyyyGKUga+qqHx6/AfbTRm1EYVxCxf3fj5JB5n/ODzBrkMlrY26WtlJsQ6h2Ye4NR&#xA;18a5LS9l48R4ibk4mr7Xy5hwj0xUvLv5r+aNFVIbn/SbZduJHIDb+QkdOwRlHtktR2biy71v+Pxu&#xA;Cx03a2bFtdjzes+UfP1hrGnNdehLFbq5BlQGVEqa8X4jmlN9ynED9rNFq+z5QlQIJ+R/Ufnfk9Ho&#xA;u0o5Yk0RXx/HyrzZLDcW97JHJbypNbxjmJIyHUs1QKMKjYV+8ZgSgYAgii7CMhM2DYRWVNrsVSzR&#xA;P9I+sao2/wBdf/Rzv/vNFVYaV7P8Uo/18ydT6ax/zef9Y8/ltH4OPp/Vc/53L3Dl+v4o+S3iduRF&#xA;H6c1JVvvGUCZDcYgraXUfQidfA0V/vHwn8MPpPkj1DzbS5iZghqkh6I+xPy7H6MBgeaRMKuRZKLf&#xA;u7pW/ZmHBv8AWWpX8K/hkxvH3MDsferZBm7FXYq7FXYq7FXYq7FXYqgta1e00jS7jUbt1WKBC1GY&#xA;Lyb9lAT3Y7DL9PgllmIR5lpz5o4oGcuQeWxXtxKlYYjcTSM0k9w1YoWkkYu7AkFiCxJHFSM6eWMD&#xA;maA5DmaHL8EvOjITyFnv5Bf9Rmm/3rnZwf8AdMVYo6e9CXb6WofDB4gH0j57n9SfDJ+o/oRMUMUK&#xA;COJFjjHREAUD6BlUpEmy2CIAoL8CXYq0QCKHcHqMVUY50UGNmrJGeJUbtTsaDxGTMTzYCXRfWZug&#xA;EY8Tu33DbBsE7rZIBx5iryIeSk7mo7DsK9MIl8lMXnHnfU1v9VS1RqxpR2+W4j/WzD2bNjghwx/H&#xA;48vg6LWZeOfku0rSlkUbZGc2gBV1LSVjQ1GCE0kJ1+UHmFdI8ySadM/G2vQaV6B1/wAx92Ynaun8&#xA;TFY5h2fY+p8LNR5Se0jQ7WQm6UPZ30p9SS4t29NySagOBVJOI2o6sM5z8zIen6ojod/l1Hwp6z8v&#xA;E7/TI9R+nv8Ajbueu2e0iJqcI/bi4w3AHujH0nPiQyey4KxT5eg+e4+fMfI+9byR5+sfI/qPzHuQ&#xA;epa9Y3UKaZb3Bh1HUHFulvJyguERgTLIEfi/wRBirAUJpvl2HSyieMi4Q3vnHyFjbc1Y7mrLqYyH&#xA;ADU5bVyPmfgE9jjjjjWONQkaAKiAUAAFAAMwSSTZcwAAUF2BLsVadEdSrqGU9VIqPxwgkckEWpfV&#xA;3T+5kKj+R6uv0VPIffT2yXEDzDHhrkVOeRzEyTJ6bdUkFXQMDVSSBUUI7jJRAvbdEjturW1xHcQJ&#xA;NGQVYdjWh7jbwyE4GJosoSEhYVMiydirsVdirsVdirsVdiqG1HTrPUbR7S8hSeB6VSVQ61Bqp4tU&#xA;bHfLMWWWOXFE0WvLijOPDIWGPT+SbOeIS6dM2ny9HhoZrfkCQwCMQy06Dg4Htmxj2jKJqY4x38j8&#xA;/wBYJcGWgiRcDwn5j5fqKQ3+k6zp1WvLRnhFSbm2rNHQb1YACRfeq8R45nYs+PJ9Mt+47H9X235O&#xA;Hkw5IfUNu8b/ALfs+KEililQSROsiHoykEH6RlsokGi1Ag7hfgS7FWiQBU7AdTiqjHAjAyMtJJDy&#xA;LD4Wp2FR4DJmR5MBEc19Jl6ESDwOzfeNsGxTutIkuZIrKAmO6u5FgiNN15facdj6aVf6MO0QZH6Y&#xA;i/2fE7LvIiI5y2/Hu5sT/NzytBoev295aR+nZXMaxqo6KUFFHj0FPoy3szVHNjPEfUHW9r6QYcvp&#xA;HpKV6TqSRqDXMmcHXAq2qaokqEk75GEKUlNfyi8upq3mSTUZk5W1kDSvQu3+f45i9qajw8VDmXZ9&#xA;j6bxc1nlF7QNctYybVS95fRH05Le3X1HBBoC5FEj5Dersoznfy0j6vpiep2+XU/C3rPzERt9Uh0H&#xA;6e7407hrt5vI6aZCf2IuM1wR7uw9JD4gK/s2C8UOXrPnsPlzPzHuWskufoHzP6h8j71p0HTLd0vU&#xA;txNfW5LpdzVmuKUo6iRyz0KkgKDT2w/mpyHCTUT0Gw+Q2R+WhH1AXIdTufmmoIIBBqDuCMxXJdir&#xA;sVad0RSzsFUdWJoPxwgE8kE0pfWHf+5jLD+d6ov0VHI/dT3yXCBzLHivkFOeNxEzzP6jdEjFUQsT&#xA;RQQDU1J7nJRIvbZEhturW1vHbwJDGAFUdhSp7nbxyE5mRssoRERQVMiydirsVdirsVdirsVdirsV&#xA;UV/d3TL+zMOa/wCstA34U/HJnePuYDY+9WyDNKdT8raNqLtNJD6N23W6gPpyk/5RGz9OjgjMvDrc&#xA;mMUDce47j9nwpxsukxz3IqXeOf7fixu+8oa1a1a0ZdRhHRDxhuBv7kRP7mqfLNji1+KX1eg/MfrH&#xA;2uBk0WSP0+ofI/q+5JjKFm9CVWguAKmCZTHJTx4sASPcbZmcO1jcd43DiXvR2PcWpvi4x/zn4v8A&#xA;VHX+mGPeiXcqZFk7FU58m6cl5qdzfSoHgs1+rQhqEGaQB5DQ/wAqcAD/AJTZh9oZjCAgOct/gOX2&#xA;38g5ehxcUzI8o7fE8/sr5lM/OPk7Tdf01bW6Z1iVwQQa8K7clruKGnelMw9HrJYpWG/XaGOaIBNU&#xA;8k8y/lJ5g0OGS6s50urKPcl2CMo9yaDr8s3+m7Tx5TwkVJ5rV9kZcI4h6oqfl78rfM+tIks4+r2z&#xA;b82PEHb+Ygk17FFYe+S1HaOLFte/4/G5DDTdlZsu9UPN6p5S8g2Gkac1r9Yllt2ckxITEj0NOT8T&#xA;zeu+xfiR+zmj1faEpysAA/M/qHyvzej0XZscUSLJv4fj515Mlht7eykjjt4kht5BwEcYCKGWpFFF&#xA;BuK/cMwJTMwSTZdhGIgaAoIrKm12KqNt8HOA/wC6j8H+o26/duv0ZOe+/ewhtt3LpLiJG4k1frwU&#xA;Fm+4YBAlJkAtrdSdAIF8TRn+4fCPxw+keaPUfJtLaJWDmryDo77kfLsPowGZ5JEAq5Fkot+8ulX9&#xA;mEc2/wBZqhfwr+GTG0fewO59ytkGbsVdirsVdirsVdirsVdirsVUrpWMfNBV4jzUDqadR9K1GTgd&#xA;672Mxt7lRWVlDKaqwqCO4OQIpkC3irsVQ97p9jfw+he28dxFWvCRQwB8RXofcZZjyygbiSCwyY4z&#xA;FSFhi1x5H5NLPpd0YwCyx29yWlQhewkJ9RPjruefyzaQ7S5DIPiNvs5Hb3Otl2fzMD8Dv9vP70jv&#xA;rTUNOr+kbZreMf8AHyP3kHWlfVX7P+zC5m4pwyfQb8uR+X6rcTJCWP6xXn0+f66Q81wkdu04/eKF&#xA;5KF3LV+yF8S3bLIxJNNcpULZzpTWOg6Xa6dcSh7/AIGWaCENLK8shLyOsaAvw5k0NKAZpM4lnmZg&#xA;enlZ2FDludrp3GExwwECfV5bm+u3OrV3bWr9GRIk063cULT0mnIIowEaH009iXb3XKwMUDZPGfLY&#xA;fM7n5D3syck+nCPPc/Ll9p9zen6PZqyz3HO8voWINxcn1GVh+1Gp+CPkKH4FGOXUS5D0xPQbfPqf&#xA;jaceCPM+qQ6n9Hd8EVdwoFJirHPIQqumxqe5HRuI33yrHLv3AbJx7ua5BcQIqcRLGoovD4WAGw2J&#xA;ofvHywGpHuKRY83SSR3EbRxtSYUZVYFWDKaqSp3pXEAxNnkpIkKHNVjlV4ll+ypFTXt41+WQMaNM&#xA;gbFrPrQfaBTL/lDZP+CPX6K5Lgrnsx475bqE0U3qRzSvxUkJIkZK7N0q32jRqeGTjIUQGEgbsouO&#xA;KONeMahR1oBTfKjInm2gAcl2BLsVaZlVSzGiqKknsBiBakqdqrCPm4o8p5sD1Feg+haDJzO9dzGA&#xA;296rkGTsVdirsVdirsVdirsVdirsVdiqjbfAZIO0Zqn+o24+41H0ZOe9FhHbZWyDN2KqdzIyRHh/&#xA;eNRY/wDWbYH6OpyUBZ3YyNBdHGscaov2VAA+jATZtIFCl2BLGta8kaJdPDdxJJZSW8yXMi2btAJf&#xA;SbmQypQVrvyFGqBvmy0/aWWNxNSsEerer9/3cvJ1+fQY5VIemjfp2uvx7/NPbKxsbOLhZwpEjnkx&#xA;QD4if2mPVifE5g5Mspm5G3Nx44xHpFIjK2aif3d0D+zMOJ/11FR961+7J84+5hyl73D95dE/swji&#xA;P9dhU/ctPvx5R9685e5WyDNZLHE6/vVBVd6nt717YYkjkggHmhLGxiEXN+cnqO0qJKxYIGNQAD3/&#xA;ABrl2XKbobVts1Y8YqyjsoblskayRsjfZYEH6cING0EWKW28jPEOf94tVk/1l2P39cMxRRE2FTIs&#xA;nYqo3PxmODtIav8A6i7n7zQfTk4bWWEt9lbIM3Yq7FXYq7FXYq7FXYq7FXYq7FXYqoz/AASRzdge&#xA;D/6r7fg1PxycdwQwlsQVbIM3Yqo/3l1/kwD/AIdh/Bf15PlH3/j8e5hzl7lbIM3Yq7FVG1+ANAf9&#xA;1Gi/6h3X7un0ZOe+/ewhtt3K2QZoS7nV4XSAGadd0VOgdDUBm+yN+u+W440d9g1TlY23LrSdUhRJ&#xA;wYZ23dX6F3NSFb7J36b45I2dtwsJUN9ii8qbVG6+MLAP92mjf6g3b7+n05OG2/cwnvt3q2QZuxV2&#xA;KqP93df5M4/4dR/Ff1ZPnH3fj8e9hyl71bIM3YqowfHJJN2J4J/qpt+LV/DJy2ADCO5JVsgzdirs&#xA;VdirsVdirsVdirsVdirsVdirToroyNurAqw9jthBo2gi1O2dmiAf+8QlH+a7V+nrhmKOyInZUkdY&#xA;0Z22VQSfkMAFmkk0LU7ZGWIFxSRzzk7/ABNvT6OmGZs7IiNlXIsnYqtkkjjXk7BV8SaYQCeSCQOa&#xA;Elmk9ZJYYyFakbyOOI+I/CafaNG9u+WxiKolqMjdhX+rc953Mv8AkfZT/gR1/wBkTkOOuWzPgvnu&#xA;rAAAACgGwAyDNxAIIIqDsQcVUfq3DeBzF/kfaT/gT0/2JGT4757sOCuWyhFNJ6zyzRkqtY0kQch8&#xA;J+I0+0Kt7dsnKIqgWAkbsouOSOReSMGXxBrlRBHNtBB5LsCXYqpXKM0RKCsiHnH2+Jd6fT0yUDR3&#xA;YyGypG6yIrrurAEfI4CKNJBsWp3LssRCf3jkInzbav0dcMBZ3RI7KiIqIqLsqgKo9htgJs2kCm8C&#xA;XYq7FXYq7FXYq7FXYq7FXYq7FXYq7FVE/u7ofyzCn+zUfxX9WT5x9zDlL3un+OWOHsT6j/6qHb72&#xA;p+OMdgSstyArZBmpPcxKxQEvIP8AdafE2/jTp9OSECd2JkGv9Kk8IF+hn/5pH44fSPP8fjuR6j5L&#xA;o7aJG505Sf78Y8m+gnp8hgMydkiIC6WNZI2jbowINOu+CJo2kixS23kZ4gW+2Kq9P5lNDhmKKImw&#xA;qZFk7FVO4kZIiV+2aKlf5mNBkoCyxkaC6KNY41jXooAFeu2CRs2kChS2S2idudOMn+/FPFvpI6/I&#xA;4RMjZBiCt/0qPwnX6Ff/AJpP4YfSfL8fjvR6h5tpcxMwQkpIf91v8LbeFev0YDAjdIkFXIslGD4J&#xA;ZIewPqJ/qud/uav4ZOW4BYR2JDh+8uj/ACwin+zYfwX9ePKPvXnL3K2QZuxV2KuxV2KuxV2KuxV2&#xA;KuxV2KuxV2KuxVSuULwtxpzX4kJ6cl3GSgaLGYsIWxvlule4t0MgkPFWb4FVU2AJO/Wp2B65dkx8&#xA;Ox2pqx5OLcIn0JX/AL6QkfyR1Rfv+0fv+jKuIDkGzhJ5lVSNI14ooVR2AoMiSTzZAAcm8CXYq7FV&#xA;Efu7oj9mcVH+uoofvX9WT5x9zDlL3q2QZuxVRP7y6A/ZgFT/AK7Cg+5f15PlH3sOcvcrZBm7FXYq&#xA;08aSLxdQynsRUYQSOSCAeal6Eqf3MhA/kkq6/f8AaH3/AEZLiB5hjwkcihr6+W1VLi4QxiM8WZfj&#xA;VlfYgEb9aHcDpluPHxbDe2vJk4dyirZCkK8qc2+JyOnJtzlMzZbYCgq5Fk7FXYq7FXYq7FXYq7FX&#xA;Yq7FXYq7FXYq7FXYqpPbQueXHi9KB1+FqfMZITIYmALVLqPuJl96K/8AzSfww+k+SPUPNtLmJm4E&#xA;lJP5HHE/RXr9GAwI3SJBVyLJ2KuxVSuUZoqoKyIeaDxI7fSNslA77sZjZUR1dFdTVWAKn2O+AijS&#xA;Qbc7qiM7GiqCWPsN8QLNKTSnbIyxVcUkc83HgT2+gbYZnfZEBsq5Fk7FXYqpPcxK3AEvJ/Ig5H6a&#xA;dPpyQgTuxMg1S6k7iFfajP8A80j8cPpHmj1HybS2hQ8uPJ6ULt8TU+ZwGZKRABVyLJ2KuxV2KuxV&#xA;2KuxV2KuxV2KuxV2KuxV2KuxV2KuxV2KtOiOvF1DKeqsKj8cIJHJBFqXoSJ/cyED+R/jX8fiH3/R&#xA;kuIHmGPCRyLvrJT+/jMY/nHxJ943H0gY8F8ivFXNVVlZQykMp3BG4OQIpmC3iqjb/A8kPZTzT/Vc&#xA;k0+hq/RTJy3ALCO1h1x8bxw9mPN/9VCDT6Wp9FcY7AlZb0FbIM2mZVUsxCqNyTsBiBakqX1kv/cR&#xA;mQfzn4U+87n6AcnwVzLDivk70JH/AL6QkfyJ8C/h8R+/6MeIDkF4SeZVUREXiihVHRVFB+GRJJ5s&#xA;gKbwJdirsVdirsVdirsVdirsVdirsVdirsVdirsVdirsVdirsVdirsVdirsVUmtYyxdKxOdyybVP&#xA;uPsn6RkxM9d2JgPc1yuo/tKJl/mT4W/4Emn4/RjUT5IsjzU5J4i6TI3xR7SIahgjkAkqaEUNDkhE&#xA;1XegyHN0c8Qd5nb4pNo0FSxRCQCFFSampxMTVdyiQ5qnK6k+yohX+Z/ib/gQafj9GRqI802T5Nra&#xA;xhg71lcbhn3ofYfZH0DEzPTZIgPeq5Bk7FXYq7FXYq7FXYq7FXYq7FXYq7FXYq7FXYq7FXYq7FXY&#xA;q7FXYq7FXYq7FXYq7FXYq7FVO4toLiMxzIGUgj3Fdtj2yUJmJsMZQEhRdb20FvGI4UCqAB7mm257&#xA;4zmZGysYCIoKmRZOxV2KuxV2KuxV2KuxV2KuxV2KuxV2KuxV2KuxV2KuxV2KuxV2KuxV2KuxV2Ku&#xA;xV2KuxV2KuxV2KuxV2KuxV2KuxV2KuxV2KuxV2KuxV2KuxV2KuxV2KuxV2KuxV2KuxV2KuxV2Kux&#xA;V2KuxV2KuxV2KuxV2KuxV2KuxV2KuxV2KuxV2KuxV2KuxV2KuxV2KuxV2KuxV2KuxV2KuxV2KuxV&#xA;2KuxV2KuxV2KuxV2KuxV2KuxV2KuxV2KuxV2KuxV2KuxV2KuxV2KuxV2KuxV2KuxV2KuxV2KuxV2&#xA;KuxV2KuxV2KuxV2KuxV2KuxV2KuxV2KuxV2KuxV2KuxV2KuxV2KuxV2KuxV2KuxV2Kv/2Q==</xmpGImg:image>
               </rdf:li>
            </rdf:Alt>
         </xmp:Thumbnails>
         <xmpTPg:MaxPageSize rdf:parseType="Resource">
            <stDim:w>1000.000000</stDim:w>
            <stDim:h>1000.000000</stDim:h>
            <stDim:unit>Pixels</stDim:unit>
         </xmpTPg:MaxPageSize>
         <xmpTPg:NPages>1</xmpTPg:NPages>
         <xmpTPg:HasVisibleTransparency>True</xmpTPg:HasVisibleTransparency>
         <xmpTPg:HasVisibleOverprint>False</xmpTPg:HasVisibleOverprint>
         <xmpTPg:PlateNames>
            <rdf:Seq>
               <rdf:li>Cyan</rdf:li>
               <rdf:li>Magenta</rdf:li>
               <rdf:li>Yellow</rdf:li>
            </rdf:Seq>
         </xmpTPg:PlateNames>
         <xmpTPg:SwatchGroups>
            <rdf:Seq>
               <rdf:li rdf:parseType="Resource">
                  <xmpG:groupName>Default Swatch Group</xmpG:groupName>
                  <xmpG:groupType>0</xmpG:groupType>
               </rdf:li>
            </rdf:Seq>
         </xmpTPg:SwatchGroups>
         <dc:format>image/svg+xml</dc:format>
      </rdf:Description>
   </rdf:RDF>
</x:xmpmeta>
                                                                                                    
                                                                                                    
                                                                                                    
                                                                                                    
                                                                                                    
                                                                                                    
                                                                                                    
                                                                                                    
                                                                                                    
                                                                                                    
                                                                                                    
                                                                                                    
                                                                                                    
                                                                                                    
                                                                                                    
                                                                                                    
                                                                                                    
                                                                                                    
                                                                                                    
                                                                                                    
                           
<?xpacket end="w"?>
  </metadata>
</svg>