<?xml version="1.0" encoding="UTF-8"?>
<svg id="Layer_1" xmlns="http://www.w3.org/2000/svg" version="1.1" xmlns:xlink="http://www.w3.org/1999/xlink" viewBox="0 0 1000 1000">
  <!-- Generator: Adobe Illustrator 29.8.3, SVG Export Plug-In . SVG Version: 2.1.1 Build 3)  -->
  <defs>
    <radialGradient id="radial-gradient" cx="448.02" cy="324.67" fx="448.02" fy="324.67" r="52.67" gradientTransform="translate(210.33 971.41) rotate(-22.5) scale(1 -1)" gradientUnits="userSpaceOnUse">
      <stop offset="0" stop-color="#66d3fa"/>
      <stop offset="1" stop-color="#007acc"/>
    </radialGradient>
  </defs>
  <rect width="1000" height="1000" display="none" fill="#0d1326" stroke="#0d1326" stroke-width="2"/>
  <path d="M850,496c-.37,0-.71.07-1.05.16l-99.49-240.19c1.2-.69,2.03-1.97,2.03-3.46,0-2.21-1.79-4-4-4-1.48,0-2.77.82-3.46,2.03l-240.19-99.49c.09-.34.16-.68.16-1.05,0-2.21-1.79-4-4-4s-4,1.79-4,4c0,.37.07.71.16,1.05l-240.19,99.49c-.69-1.2-1.97-2.03-3.46-2.03-2.21,0-4,1.79-4,4,0,1.48.82,2.77,2.03,3.46l-99.49,240.19c-.34-.09-.68-.16-1.05-.16-2.21,0-4,1.79-4,4s1.79,4,4,4c.37,0,.71-.07,1.05-.16l99.49,240.19c-1.2.69-2.03,1.97-2.03,3.46,0,2.21,1.79,4,4,4,1.48,0,2.77-.82,3.46-2.03l240.19,99.49c-.09.34-.16.68-.16,1.05,0,2.21,1.79,4,4,4s4-1.79,4-4c0-.37-.07-.71-.16-1.05l240.19-99.49c.69,1.2,1.97,2.03,3.46,2.03,2.21,0,4-1.79,4-4,0-1.48-.82-2.77-2.03-3.46l99.49-240.19c.34.09.68.16,1.05.16,2.21,0,4-1.79,4-4s-1.79-4-4-4ZM744.03,745.52l-170.89-70.79,28.32-68.37c.34.09.68.16,1.05.16,2.21,0,4-1.79,4-4,0-.37-.07-.71-.16-1.05l68.37-28.32,70.79,170.89c-.62.35-1.13.87-1.48,1.48ZM500,846c-.37,0-.71.07-1.05.16l-70.78-170.89,68.37-28.32c.69,1.2,1.97,2.03,3.46,2.03s2.77-.82,3.46-2.03l68.37,28.32-70.78,170.89c-.34-.09-.68-.16-1.05-.16ZM254.48,744.03l70.78-170.9,68.38,28.32c-.09.34-.16.68-.16,1.05,0,2.21,1.79,4,4,4,.37,0,.71-.07,1.05-.16l28.32,68.37-170.89,70.79c-.35-.62-.87-1.13-1.48-1.48ZM153.84,498.95l170.88-70.78,28.32,68.37c-1.2.69-2.03,1.97-2.03,3.46s.82,2.77,2.03,3.46l-28.32,68.37-170.88-70.78c.09-.34.16-.68.16-1.05s-.07-.71-.16-1.05ZM255.97,254.48l170.9,70.78-28.32,68.38c-.34-.09-.68-.16-1.05-.16-2.21,0-4,1.79-4,4,0,.37.07.71.16,1.05l-68.38,28.32-70.78-170.9c.62-.35,1.13-.87,1.48-1.48ZM500,154c.37,0,.71-.07,1.05-.16l70.78,170.88-68.37,28.32c-.69-1.2-1.97-2.03-3.46-2.03s-2.77.82-3.46,2.03l-68.37-28.32,70.78-170.88c.34.09.68.16,1.05.16ZM745.52,255.97l-70.79,170.89-68.37-28.32c.09-.34.16-.68.16-1.05,0-2.21-1.79-4-4-4-.37,0-.71.07-1.05.16l-28.32-68.38,170.9-70.78c.35.62.87,1.13,1.48,1.48ZM500,640.97c-.37,0-.71.07-1.05.16l-28.32-68.37,29.37-12.16,29.37,12.17-28.32,68.37c-.34-.09-.68-.16-1.05-.16ZM500,359.02c.37,0,.71-.07,1.05-.16l28.32,68.38-29.38,12.17-29.37-12.17,28.32-68.38c.34.09.68.16,1.05.16ZM600.54,400.95l-28.32,68.37-29.37-12.16-12.17-29.37,68.37-28.32c.35.62.87,1.13,1.48,1.48ZM641.13,501.05l-68.37,28.32-12.17-29.37,12.16-29.37,68.37,28.32c-.09.34-.16.68-.16,1.05s.07.71.16,1.05ZM358.86,498.95l68.38-28.32,12.17,29.37-12.17,29.38-68.38-28.32c.09-.34.16-.68.16-1.05s-.07-.71-.16-1.05ZM428.17,470.24l28.45-11.78-16.66,40.23-11.78-28.45ZM439.95,501.3l16.67,40.24-28.45-11.78,11.78-28.45ZM440.49,500l17.43-42.08,42.08-17.43,42.08,17.43,17.43,42.07-17.43,42.08-42.08,17.43-42.07-17.43-17.43-42.08ZM543.39,458.46l28.44,11.78-11.78,28.44-16.66-40.23ZM560.05,501.3l11.78,28.45-28.45,11.78,16.66-40.23ZM541.54,456.62l-40.24-16.67,28.45-11.78,11.78,28.45ZM498.69,439.95l-40.23,16.66,11.78-28.45,28.45,11.78ZM457.15,457.15l-29.37,12.17-28.32-68.37c.62-.35,1.13-.87,1.48-1.48l68.37,28.32-12.17,29.37ZM397.49,401.49c.37,0,.71-.07,1.05-.16l28.32,68.37-68.38,28.32c-.69-1.2-1.97-2.03-3.46-2.03-.37,0-.71.07-1.05.16l-28.32-68.37,68.38-28.32c.69,1.2,1.97,2.03,3.46,2.03ZM355.02,504c1.48,0,2.77-.82,3.46-2.03l68.38,28.32-28.32,68.37c-.34-.09-.68-.16-1.05-.16-1.48,0-2.77.82-3.46,2.03l-68.38-28.32,28.32-68.37c.34.09.68.16,1.05.16ZM399.46,599.05l28.32-68.37,29.37,12.17,12.16,29.37-68.37,28.32c-.35-.62-.87-1.13-1.48-1.48ZM458.46,543.39l40.23,16.66-28.44,11.78-11.78-28.44ZM501.3,560.05l40.23-16.66-11.78,28.45-28.45-11.78ZM542.84,542.84l29.37-12.17,28.32,68.37c-.62.35-1.13.87-1.48,1.48l-68.37-28.32,12.17-29.37ZM602.51,598.51c-.37,0-.71.07-1.05.16l-28.32-68.37,68.37-28.32c.69,1.2,1.97,2.03,3.46,2.03.37,0,.71-.07,1.05-.16l28.32,68.37-68.38,28.32c-.69-1.2-1.97-2.03-3.46-2.03ZM644.97,496c-1.48,0-2.77.82-3.46,2.03l-68.37-28.32,28.32-68.37c.34.09.68.16,1.05.16,1.48,0,2.77-.82,3.46-2.03l68.38,28.32-28.32,68.37c-.34-.09-.68-.16-1.05-.16ZM600.54,394.03c-1.2.69-2.03,1.97-2.03,3.46,0,.37.07.71.16,1.05l-68.37,28.32-28.32-68.38c1.2-.69,2.03-1.97,2.03-3.46,0-.37-.07-.71-.16-1.05l68.37-28.32,28.32,68.38ZM496.16,353.97c-.09.34-.16.68-.16,1.05,0,1.48.82,2.77,2.03,3.46l-28.32,68.38-68.37-28.32c.09-.34.16-.68.16-1.05,0-1.48-.82-2.77-2.03-3.46l28.32-68.38,68.37,28.32ZM399.46,605.97c1.2-.69,2.03-1.97,2.03-3.46,0-.37-.07-.71-.16-1.05l68.37-28.32,28.32,68.37c-1.2.69-2.03,1.97-2.03,3.46,0,.37.07.71.16,1.05l-68.37,28.32-28.32-68.38ZM503.84,646.02c.09-.34.16-.68.16-1.05,0-1.48-.82-2.77-2.03-3.46l28.32-68.37,68.37,28.32c-.09.34-.16.68-.16,1.05,0,1.48.82,2.77,2.03,3.46l-28.32,68.38-68.37-28.32ZM646.94,503.46c1.2-.69,2.03-1.97,2.03-3.46s-.82-2.77-2.03-3.46l28.32-68.37,170.89,70.78c-.09.34-.16.68-.16,1.05s.07.71.16,1.05l-170.89,70.78-28.32-68.37ZM848.03,496.54c-.62.35-1.13.87-1.48,1.48l-170.89-70.78,70.79-170.89c.34.09.68.16,1.05.16s.71-.07,1.05-.16l99.49,240.19ZM743.65,251.46c-.09.34-.16.68-.16,1.05s.07.71.16,1.05l-170.89,70.78-70.78-170.89c.62-.35,1.13-.87,1.48-1.48l240.19,99.49ZM496.54,151.97c.35.62.87,1.13,1.48,1.48l-70.78,170.89-170.89-70.78c.09-.34.16-.68.16-1.05s-.07-.71-.16-1.05l240.19-99.49ZM251.46,256.35c.34.09.68.16,1.05.16s.71-.07,1.05-.16l70.78,170.89-170.89,70.78c-.35-.62-.87-1.13-1.48-1.48l99.49-240.19ZM151.97,503.46c.62-.35,1.13-.87,1.48-1.48l170.89,70.78-70.78,170.89c-.34-.09-.68-.16-1.05-.16s-.71.07-1.05.16l-99.49-240.19ZM256.35,748.54c.09-.34.16-.68.16-1.05s-.07-.71-.16-1.05l170.89-70.79,70.78,170.89c-.62.35-1.13.87-1.48,1.48l-240.19-99.49ZM503.46,848.03c-.35-.62-.87-1.13-1.48-1.48l70.78-170.89,170.89,70.79c-.09.34-.16.68-.16,1.05s.07.71.16,1.05l-240.19,99.49ZM748.54,743.65c-.34-.09-.68-.16-1.05-.16s-.71.07-1.05.16l-70.79-170.89,170.89-70.78c.35.62.87,1.13,1.48,1.48l-99.49,240.19Z" fill="#66b3ff" opacity=".7"/>
  <g display="none">
    <polygon points="746.85 747.2 499.65 849.84 397.85 603.48 645.05 500.84 746.85 747.2" fill="#009e60" opacity=".4"/>
    <path d="M747.49,743.49c-.37,0-.71.07-1.05.16l-99.5-240.19c1.2-.69,2.03-1.97,2.03-3.46,0-2.21-1.79-4-4-4-1.48,0-2.77.82-3.46,2.03l-240.18-99.49c.09-.34.16-.68.16-1.05,0-2.21-1.79-4-4-4s-4,1.79-4,4c0,.37.07.71.16,1.05l-240.19,99.49c-.69-1.2-1.97-2.03-3.46-2.03-2.21,0-4,1.79-4,4s1.79,4,4,4c.37,0,.71-.07,1.05-.16l99.49,240.19c-1.2.69-2.03,1.97-2.03,3.46,0,2.21,1.79,4,4,4,1.48,0,2.77-.82,3.46-2.03l240.19,99.49c-.09.34-.16.68-.16,1.05,0,2.21,1.79,4,4,4s4-1.79,4-4c0-.37-.07-.71-.16-1.05l240.19-99.49c.69,1.2,1.97,2.03,3.46,2.03,2.21,0,4-1.79,4-4s-1.79-4-4-4ZM745.52,744.03c-.62.35-1.13.87-1.48,1.48l-240.19-99.5c.09-.34.16-.68.16-1.05,0-2.21-1.79-4-4-4-.37,0-.71.07-1.05.16l-28.32-68.37,170.88-70.78c.69,1.2,1.97,2.03,3.46,2.03.37,0,.71-.07,1.05-.16l99.5,240.19ZM401.49,602.51c0-.37-.07-.71-.16-1.05l68.37-28.32,28.32,68.37c-1.2.69-2.03,1.97-2.03,3.46,0,.37.07.71.16,1.05l-68.37,28.32-28.32-68.38c1.2-.69,2.03-1.97,2.03-3.46ZM641.13,498.95c-.09.34-.16.68-.16,1.05s.07.71.16,1.05l-170.88,70.78-70.78-170.88c.62-.35,1.13-.87,1.48-1.48l240.18,99.49ZM394.03,399.46c.69,1.2,1.97,2.03,3.46,2.03.37,0,.71-.07,1.05-.16l70.78,170.88-68.37,28.32c-.69-1.2-1.97-2.03-3.46-2.03s-2.77.82-3.46,2.03l-240.19-99.49c.09-.34.16-.68.16-1.05s-.07-.71-.16-1.05l240.19-99.49ZM151.97,503.46c.62-.35,1.13-.87,1.48-1.48l240.19,99.49c-.09.34-.16.68-.16,1.05,0,2.21,1.79,4,4,4,.37,0,.71-.07,1.05-.16l28.32,68.37-170.89,70.79c-.69-1.2-1.97-2.03-3.46-2.03-.37,0-.71.07-1.05.16l-99.49-240.19ZM256.35,748.54c.09-.34.16-.68.16-1.05s-.07-.71-.16-1.05l170.89-70.79,70.78,170.89c-.62.35-1.13.87-1.48,1.48l-240.19-99.49ZM503.46,848.03c-.69-1.2-1.97-2.03-3.46-2.03-.37,0-.71.07-1.05.16l-70.78-170.89,68.37-28.32c.69,1.2,1.97,2.03,3.46,2.03s2.77-.82,3.46-2.03l240.19,99.5c-.09.34-.16.68-.16,1.05s.07.71.16,1.05l-240.19,99.49Z" fill="#009e60"/>
  </g>
  <g>
    <polygon points="499.75 849.55 252.37 747.33 354.59 501.14 601.97 603.36 499.75 849.55" fill="#7f4fc9" opacity=".4"/>
    <path d="M602.51,598.51c-.37,0-.71.07-1.05.16l-99.49-240.19c1.2-.69,2.03-1.97,2.03-3.46,0-2.21-1.79-4-4-4-1.48,0-2.77.82-3.46,2.03l-240.19-99.49c.09-.34.16-.68.16-1.05,0-2.21-1.79-4-4-4s-4,1.79-4,4c0,1.48.82,2.77,2.03,3.46l-99.49,240.19c-.34-.09-.68-.16-1.05-.16-2.21,0-4,1.79-4,4s1.79,4,4,4c.37,0,.71-.07,1.05-.16l99.49,240.19c-1.2.69-2.03,1.97-2.03,3.46,0,2.21,1.79,4,4,4,1.48,0,2.77-.82,3.46-2.03l240.19,99.49c-.09.34-.16.68-.16,1.05,0,2.21,1.79,4,4,4s4-1.79,4-4c0-1.48-.82-2.77-2.03-3.46l99.49-240.19c.34.09.68.16,1.05.16,2.21,0,4-1.79,4-4s-1.79-4-4-4ZM600.54,599.05c-.62.35-1.13.87-1.48,1.48l-170.89-70.78,70.78-170.89c.34.09.68.16,1.05.16s.71-.07,1.05-.16l99.49,240.19ZM496.16,353.97c-.09.34-.16.68-.16,1.05,0,1.48.82,2.77,2.03,3.46l-70.78,170.9-68.38-28.32c.09-.34.16-.68.16-1.05,0-2.21-1.79-4-4-4-.37,0-.71.07-1.05.16l-99.49-240.19c.62-.35,1.13-.87,1.48-1.48l240.19,99.49ZM397.49,598.51c-1.48,0-2.77.82-3.46,2.03l-68.38-28.32,28.32-68.37c.34.09.68.16,1.05.16,1.48,0,2.77-.82,3.46-2.03l68.38,28.32-28.32,68.37c-.34-.09-.68-.16-1.05-.16ZM251.46,256.35c.34.09.68.16,1.05.16s.71-.07,1.05-.16l99.49,240.19c-1.2.69-2.03,1.97-2.03,3.46s.82,2.77,2.03,3.46l-28.32,68.37-170.88-70.78c.09-.34.16-.68.16-1.05,0-1.48-.82-2.77-2.03-3.46l99.49-240.19ZM151.97,503.46c.62-.35,1.13-.87,1.48-1.48l170.89,70.78-70.78,170.89c-.34-.09-.68-.16-1.05-.16s-.71.07-1.05.16l-99.49-240.19ZM256.35,748.54c.09-.34.16-.68.16-1.05,0-1.48-.82-2.77-2.03-3.46l70.78-170.9,68.38,28.32c-.09.34-.16.68-.16,1.05,0,2.21,1.79,4,4,4,.37,0,.71-.07,1.05-.16l99.49,240.19c-.62.35-1.13.87-1.48,1.48l-240.19-99.49ZM501.05,846.16c-.34-.09-.68-.16-1.05-.16s-.71.07-1.05.16l-99.49-240.19c1.2-.69,2.03-1.97,2.03-3.46s-.82-2.77-2.03-3.46l28.32-68.37,170.88,70.78c-.09.34-.16.68-.16,1.05,0,1.48.82,2.77,2.03,3.46l-99.49,240.19Z" fill="#7f4fc9"/>
  </g>
  <g display="none">
    <polygon points="398.23 602.37 150.86 500.15 253.07 253.96 500.45 356.18 398.23 602.37" fill="#007fff" opacity=".4"/>
    <path d="M747.49,248.51c-1.48,0-2.77.82-3.46,2.03l-240.19-99.49c.09-.34.16-.68.16-1.05,0-2.21-1.79-4-4-4s-4,1.79-4,4c0,.37.07.71.16,1.05l-240.19,99.49c-.69-1.2-1.97-2.03-3.46-2.03-2.21,0-4,1.79-4,4,0,1.48.82,2.77,2.03,3.46l-99.49,240.19c-.34-.09-.68-.16-1.05-.16-2.21,0-4,1.79-4,4s1.79,4,4,4c1.48,0,2.77-.82,3.46-2.03l240.19,99.49c-.09.34-.16.68-.16,1.05,0,2.21,1.79,4,4,4s4-1.79,4-4c0-.37-.07-.71-.16-1.05l240.18-99.49c.69,1.2,1.97,2.03,3.46,2.03,2.21,0,4-1.79,4-4,0-1.48-.82-2.77-2.03-3.46l99.5-240.19c.34.09.68.16,1.05.16,2.21,0,4-1.79,4-4s-1.79-4-4-4ZM743.65,251.46c-.09.34-.16.68-.16,1.05s.07.71.16,1.05l-240.19,99.49c-.69-1.2-1.97-2.03-3.46-2.03s-2.77.82-3.46,2.03l-68.37-28.32,70.78-170.88c.34.09.68.16,1.05.16,1.48,0,2.77-.82,3.46-2.03l240.19,99.49ZM399.46,394.03l28.32-68.38,68.37,28.32c-.09.34-.16.68-.16,1.05,0,1.48.82,2.77,2.03,3.46l-28.32,68.38-68.37-28.32c.09-.34.16-.68.16-1.05,0-1.48-.82-2.77-2.03-3.46ZM496.54,151.97c.35.62.87,1.13,1.48,1.48l-70.78,170.89-170.89-70.78c.09-.34.16-.68.16-1.05s-.07-.71-.16-1.05l240.19-99.49ZM251.46,256.35c.34.09.68.16,1.05.16,1.48,0,2.77-.82,3.46-2.03l170.9,70.78-28.32,68.38c-.34-.09-.68-.16-1.05-.16-2.21,0-4,1.79-4,4,0,.37.07.71.16,1.05l-240.19,99.49c-.35-.62-.87-1.13-1.48-1.48l99.49-240.19ZM153.84,501.05c.09-.34.16-.68.16-1.05s-.07-.71-.16-1.05l240.19-99.49c.69,1.2,1.97,2.03,3.46,2.03s2.77-.82,3.46-2.03l68.37,28.32-70.78,170.88c-.34-.09-.68-.16-1.05-.16-1.48,0-2.77.82-3.46,2.03l-240.19-99.49ZM400.95,600.54c-.35-.62-.87-1.13-1.48-1.48l70.78-170.88,170.88,70.78c-.09.34-.16.68-.16,1.05s.07.71.16,1.05l-240.18,99.49ZM646.02,496.16c-.34-.09-.68-.16-1.05-.16-1.48,0-2.77.82-3.46,2.03l-170.89-70.78,28.32-68.38c.34.09.68.16,1.05.16,2.21,0,4-1.79,4-4,0-.37-.07-.71-.16-1.05l240.19-99.49c.35.62.87,1.13,1.48,1.48l-99.5,240.19Z" fill="#007fff"/>
  </g>
  <g display="none">
    <polygon points="850.15 499.03 602.95 601.67 501.15 355.31 748.35 252.67 850.15 499.03" fill="#f28500" opacity=".4"/>
    <path d="M850,496c-.37,0-.71.07-1.05.16l-99.49-240.19c1.2-.69,2.03-1.97,2.03-3.46,0-2.21-1.79-4-4-4-1.48,0-2.77.82-3.46,2.03l-240.19-99.49c.09-.34.16-.68.16-1.05,0-2.21-1.79-4-4-4s-4,1.79-4,4c0,.37.07.71.16,1.05l-240.19,99.49c-.69-1.2-1.97-2.03-3.46-2.03-2.21,0-4,1.79-4,4s1.79,4,4,4c.37,0,.71-.07,1.05-.16l99.49,240.19c-1.2.69-2.03,1.97-2.03,3.46,0,2.21,1.79,4,4,4,1.48,0,2.77-.82,3.46-2.03l240.19,99.49c-.09.34-.16.68-.16,1.05,0,2.21,1.79,4,4,4s4-1.79,4-4c0-.37-.07-.71-.16-1.05l240.19-99.49c.69,1.2,1.97,2.03,3.46,2.03,2.21,0,4-1.79,4-4s-1.79-4-4-4ZM848.03,496.54c-.62.35-1.13.87-1.48,1.48l-240.19-99.49c.09-.34.16-.68.16-1.05,0-2.21-1.79-4-4-4-.37,0-.71.07-1.05.16l-28.32-68.38,170.9-70.78c.69,1.2,1.97,2.03,3.46,2.03.37,0,.71-.07,1.05-.16l99.49,240.19ZM504,355.02c0-.37-.07-.71-.16-1.05l68.37-28.32,28.32,68.38c-1.2.69-2.03,1.97-2.03,3.46,0,.37.07.71.16,1.05l-68.37,28.32-28.32-68.38c1.2-.69,2.03-1.97,2.03-3.46ZM743.65,251.46c-.09.34-.16.68-.16,1.05s.07.71.16,1.05l-170.89,70.78-70.78-170.89c.62-.35,1.13-.87,1.48-1.48l240.19,99.49ZM496.54,151.97c.69,1.2,1.97,2.03,3.46,2.03.37,0,.71-.07,1.05-.16l70.78,170.88-68.37,28.32c-.69-1.2-1.97-2.03-3.46-2.03s-2.77.82-3.46,2.03l-240.19-99.49c.09-.34.16-.68.16-1.05s-.07-.71-.16-1.05l240.19-99.49ZM254.48,255.97c.62-.35,1.13-.87,1.48-1.48l240.19,99.49c-.09.34-.16.68-.16,1.05,0,2.21,1.79,4,4,4,.37,0,.71-.07,1.05-.16l28.32,68.38-170.9,70.78c-.69-1.2-1.97-2.03-3.46-2.03-.37,0-.71.07-1.05.16l-99.49-240.19ZM358.86,501.05c.09-.34.16-.68.16-1.05s-.07-.71-.16-1.05l170.89-70.78,70.78,170.89c-.62.35-1.13.87-1.48,1.48l-240.19-99.49ZM605.97,600.54c-.69-1.2-1.97-2.03-3.46-2.03-.37,0-.71.07-1.05.16l-70.78-170.88,68.37-28.32c.69,1.2,1.97,2.03,3.46,2.03s2.77-.82,3.46-2.03l240.19,99.49c-.09.34-.16.68-.16,1.05s.07.71.16,1.05l-240.19,99.49Z" fill="#f28500"/>
  </g>
  <polygon points="500 443 459.69 459.69 443 500 459.69 540.31 500 557 540.31 540.31 557 500 540.31 459.69 500 443" fill="url(#radial-gradient)" stroke="#66d3fa" stroke-width="3"/>
  <metadata><?xpacket begin="﻿" id="W5M0MpCehiHzreSzNTczkc9d"?>
<x:xmpmeta xmlns:x="adobe:ns:meta/" x:xmptk="Adobe XMP Core 9.1-c003 1.000000, 0000/00/00-00:00:00        ">
   <rdf:RDF xmlns:rdf="http://www.w3.org/1999/02/22-rdf-syntax-ns#">
      <rdf:Description rdf:about=""
            xmlns:xmp="http://ns.adobe.com/xap/1.0/"
            xmlns:xmpGImg="http://ns.adobe.com/xap/1.0/g/img/"
            xmlns:xmpTPg="http://ns.adobe.com/xap/1.0/t/pg/"
            xmlns:stDim="http://ns.adobe.com/xap/1.0/sType/Dimensions#"
            xmlns:xmpG="http://ns.adobe.com/xap/1.0/g/"
            xmlns:dc="http://purl.org/dc/elements/1.1/">
         <xmp:CreatorTool>Adobe Illustrator 29.8 (Windows)</xmp:CreatorTool>
         <xmp:CreateDate>2025-12-11T01:17:40+08:00</xmp:CreateDate>
         <xmp:Thumbnails>
            <rdf:Alt>
               <rdf:li rdf:parseType="Resource">
                  <xmpGImg:width>256</xmpGImg:width>
                  <xmpGImg:height>256</xmpGImg:height>
                  <xmpGImg:format>JPEG</xmpGImg:format>
                  <xmpGImg:image>/9j/4AAQSkZJRgABAgEAAAAAAAD/7QAsUGhvdG9zaG9wIDMuMAA4QklNA+0AAAAAABAAAAAAAAEA&#xA;AQAAAAAAAQAB/+4ADkFkb2JlAGTAAAAAAf/bAIQABgQEBAUEBgUFBgkGBQYJCwgGBggLDAoKCwoK&#xA;DBAMDAwMDAwQDA4PEA8ODBMTFBQTExwbGxscHx8fHx8fHx8fHwEHBwcNDA0YEBAYGhURFRofHx8f&#xA;Hx8fHx8fHx8fHx8fHx8fHx8fHx8fHx8fHx8fHx8fHx8fHx8fHx8fHx8fHx8f/8AAEQgBAAEAAwER&#xA;AAIRAQMRAf/EAaIAAAAHAQEBAQEAAAAAAAAAAAQFAwIGAQAHCAkKCwEAAgIDAQEBAQEAAAAAAAAA&#xA;AQACAwQFBgcICQoLEAACAQMDAgQCBgcDBAIGAnMBAgMRBAAFIRIxQVEGE2EicYEUMpGhBxWxQiPB&#xA;UtHhMxZi8CRygvElQzRTkqKyY3PCNUQnk6OzNhdUZHTD0uIIJoMJChgZhJRFRqS0VtNVKBry4/PE&#xA;1OT0ZXWFlaW1xdXl9WZ2hpamtsbW5vY3R1dnd4eXp7fH1+f3OEhYaHiImKi4yNjo+Ck5SVlpeYmZ&#xA;qbnJ2en5KjpKWmp6ipqqusra6voRAAICAQIDBQUEBQYECAMDbQEAAhEDBCESMUEFURNhIgZxgZEy&#xA;obHwFMHR4SNCFVJicvEzJDRDghaSUyWiY7LCB3PSNeJEgxdUkwgJChgZJjZFGidkdFU38qOzwygp&#xA;0+PzhJSktMTU5PRldYWVpbXF1eX1RlZmdoaWprbG1ub2R1dnd4eXp7fH1+f3OEhYaHiImKi4yNjo&#xA;+DlJWWl5iZmpucnZ6fkqOkpaanqKmqq6ytrq+v/aAAwDAQACEQMRAD8A9U4q7FXYq7FXYq7FXYq7&#xA;FXYq7FXYq7FXYq7FXYq7FXYq7FXYq7FXYq7FXYq7FXYq7FXYq7FXYq7FXYq7FXYq7FXYq7FXYq7F&#xA;XYq7FXYq7FXYq7FXYq7FXYq7FXYq7FXYq7FXYq7FXYq7FXYq7FXYq7FXYq7FXYq7FXYq7FXYq7FX&#xA;Yq7FXYq7FXYq7FXYq7FXYq7FXYq7FXYq7FXYq7FXYq7FXYq7FXYq7FXYq7FXYq7FXYq7FXYq7FXY&#xA;q7FXYq7FXYq7FXYq7FXYq7FXYq7FXYq7FXYq7FXYq7FXYq7FXYq7FXYq7FXYq7FXYq7FXYq7FXYq&#xA;7FXYq7FXYq7FXYq7FXYq7FXYq7FXYq7FXYqp3FzBbxmSZwqgE+5pvsO+ShAyNBjKYiLLre5guIxJ&#xA;C4ZSAfcV33HbGcDE0VjMSFhUyLJ2KuxV2KuxV2KuxV2KuxV2KuxV2KuxV2KuxV2KuxV2KuxV2Kux&#xA;V2KuxV2KuxV2KuxV2KqTXUYYolZXGxVN6H3P2R9JyYgeuzEzHva43Un2mEK/yp8Tf8ERT8PpxuI8&#xA;0UT5KckEQdIUX4pN5HNSxRCCQWNSamgyQkavuQYjk6OCIu8Lr8Ue8bioYI5JADChFDUYmRq+9REc&#xA;lTjdR/ZYTL/K/wALf8EBT8PpyNxPkmiPNtbqMsEesTnYK+1T7H7J+g4mB6bpEx7lXIMnYq7FXYq7&#xA;FXYq7FXYq7FXYq7FXYq7FXYq7FXYq7FXYq7FXYq7FXYq7FWndEXk7BVHVmNB+OEAnkgmlL15H/uY&#xA;yR/O/wAC/j8R+76clwgcyx4ieQd9WL/38hkH8g+FPuG5+knHjrkF4b5qqqqqFUBVGwA2AyBNswG8&#xA;VUbf43km7MeCf6qEiv0tX6KZOWwAYR3suuPgeObsp4P/AKrkCv0NT6K4x3BCy2oq2QZtMqspVgGU&#xA;7EHcHEGlIUvqxT+4kMY/kPxJ9x3H0EZPjvmGHDXJ3ryJ/fRkD+dPjX8PiH3fTjwg8ivERzCqjo68&#xA;kYMp6MpqPwyJBHNkDbeBLsVdirsVdirsVdirsVdirsVdirsVdirsVdirsVdirsVUmu4BQK3NiKhU&#xA;+IkeNB298mIFiZANVupOwhX3oz/80j8cfSPNHqPk2ltErcyC8n87nkfor0+jAZk7JEQq5Fk7FXYq&#xA;pXLssVENJHPBD4E9/oG+SgN92MzsqIioioooqgBR7DbATZtIFOdFdGRhVWBDD2O2ING1ItTtnZoq&#xA;OayIeDnxI7/SN8MxvsiB2VciydirsVUntombmAUk/nQ8T9NOv05ITI2YmIardR9hMvtRX/5pP4Yf&#xA;SfJHqHm2lzC548uL0qUb4Wp8jgMCEiYKrkWTsVdirsVdirsVdirsVdirsVdirsVdirsVdiqB1q5e&#xA;DTpfR4m5npBbK3QyynglR3AJ5N7A5bhjct+Q3PwVJPL/AJfOkLPpWmXUlt9SfnDHL+/ikhnqyMyM&#xA;Qy0YOnwOtStT1zJz5/EqUhd/A2PwDvfNTum36UvbUU1KzZUHW6teU8X0oAJV/wCAKj+bKPDjL6T8&#xA;Dt+z8clR1td2t1CJraZJ4TsJI2DLUddxlUomJoilVcirsVdiqiP3l0T+zAKD/XYVP3L+vJ8o+9hz&#xA;l7lbIM3Yqon93dA/szih/wBdRUfev6snzj7mHKXvVsgzdirsVaeRI15OwVR3JoMIBPJBIHNS9eV/&#xA;7mMkfzyVRfu+0fu+nJcIHMseInkENfWK3Spb3DmQSHkyr8CqqbkgDfrQbk9ctx5OHcbU15MfFsUV&#xA;bOXhXlTmvwuB05LscpmKLbA2FXIsnYq7FXYq7FXYq7FXYq7FXYq7FXYq7FXYqlprd66q9YNNTkfA&#xA;3My0H0pCT/wYy76YecvuH7fuVrVKWt7Z6kNkVvqt0f8AiqdgEP8AsZQnyUthx+qJj8R8P2foVM8o&#xA;VA3WjWM8zXCqbe7agN1bkxSmnTkV+2B/K4I9stjmkBXMdx/H3Kp11y06hNTgHhxguAK+/wC5kP8A&#xA;yLw+iX9E/MfrH2qq2usWNxKIOZhujU/VZ1MUpoKkqr05AfzLUe+CWKQF8x3jkqLlkWONpG6KCTTr&#xA;tlcRZpBNC1tvGyRAN9s1Z6fzManDM2URFBUyLJ2KqdxGzxEL9sUZK/zKajJQNFjIWF0UiyRrIvRg&#xA;CK9d8EhRpINi1slxEjcK8pP99qOTfSB0+nCIEoMgFv8ApUnhAv0M/wDzSPxw+kef4/Hcj1HybS2i&#xA;Vg5BeQf7sf4m38K9PowGZOyREKuRZKMHxyyTdifTT/VQ7/e1fwyctgAwjuSXD93dH+WYV/2aj+K/&#xA;qx5x9y8pe9WyDN2KuxV2KuxV2KuxV2KuxV2KuxV2KuxVTurmK2tpbmY8YYEaSQgVoqDkdh7DJRiZ&#xA;EAdVQujW00Nir3Apd3LNcXQ7iSQ14V3qIxRB7KMnmkDLbkNh+PPmqJu7WG7tZrWccoZ0aOQdKq4o&#xA;f15CMjEgjoqG0a6mnsVW4bld25NvdEClZYjxLU7B9nX2IyeaIEtuR3H4+xUdlSuxVSurO0u4jDdQ&#xA;pPETXhIoYVHeh75KMzE2DSpXLpt7DKkWn3bGNaSNa3RM0fwkcQJD++Usw7swFPs5fHJEi5D4jb9j&#xA;A7mlb9NfV9tUt3sqdbivq23WlfWUfAPeRUyHg39Jv7/l+q2aYxyRyRrJGweNwCrqQQQehBGVEVzV&#xA;cSACSaAbknAqj9Z5/wBwhl/y/sp/wR6/7EHJ8Fc9mHHfLdQihk9Z4ppCFasiRoeI+I/EK/aNG9++&#xA;TlIVYDARN0UXHHHGvFFCr4AUyoknm2gAcl2BLsVUrl2WIhDSRzwj7/E21fo65KAs7sZHZUjRY0VF&#xA;2VQAPkMBNm0gUKU7lGaIlP7xCHT5rvT6emGBo7okNlRHV0V13VgGU+x3wEUaSDbeBLsVdirsVdir&#xA;sVdirsVdirsVdirsVSzVf9Ju7PTRukj/AFm6H/FVuQwH+ylKCndeWX4vSDL4D3n9l/YqZ5QrsVS0&#xA;/wCia4D0g1NKd6C4gWv3yQ/8m8u+qHnH7j+o/eqZZSrsVdiqja/GGnP+7TVf9QbL9/X6cnPbbuYQ&#xA;3371bIM0h17TYbWxuLnTHfT9SmIjt3t6Kr3EzcEMkRBif42BZitQK75lYMhlICXqiO/uHnzVE6CH&#xA;uNMt3vXNxfQj0bt3Ap9YhPCQqgooHNSVIHSmRzmpER2j09xY8Iu01zHZKN18AWcf7qNW/wBQ7N93&#xA;X6MnDfbvYT237lbIM3Yq7FVH+8uv8mAf8Ow/gv68nyj7/wAfj3MOcvcrZBm7FVGD4JJIewPNP9V9&#xA;/wAGr+GTluAWEdiQrZBm7FXYq7FXYq7FXYq7FXYq7FXYq7FUs0b/AEiS61M7rduEtjWv+jw1WMjx&#xA;DsXkB8GGXZtqj3c/efwB8FTPKVdiqC1i1luLF/QFbqErPa1IFZYjzVST0DU4t7E5bikBLfkdj7lR&#xA;FndRXdpDdQkmKdFkSuxowqK++QnExJB6Kq5FUDfX0Qi4Jzk9R1id4lLBAxoSSO/41y/FiN2dq33a&#xA;cmQVQRcUkTr+6YFV2oO3tTtlMgRzbQQeS/AlLH/0vXEjG8Omp6r+BuJgVQfNIuRI/wAtTlw9MPOX&#xA;3D9v3FXJ/omuPGdodST1U8BcQgK4+bxcSB/kMcT6oecfuP7fvCpnlKrJZIkX96wCttQ9/anfDEE8&#xA;kEgc0JY30Ri4Pzj9N2iR5VKhwpoCCe/41y7LiN2N732aseQVRR2UNy2SRY42dvsqCT9GECzSCaFr&#xA;baNkiHP+8arSf6zbkfR0GGZs7IiKCpkWTsVUbn4DHP2jNH/1G2P3Gh+jJw3sMJbbq2QZuxV2KuxV&#xA;2KuxV2KuxV2KuxV2Kpfrc0q2QtoGKXN64toHHVS4Jdx7xxqz/RluEDis8o7/AI952VGwwxQwpDEo&#xA;SKNQkaDoFUUAHyGVkkmyq/ArsVWySxxrykYKOlSab4REnkgkDmlGmyyw3t3p8ScYyxurVpAV/dzG&#xA;sgC0DMVm5HtQMuZGSIMRI+4/D9jGyeSZ/VQ+87GX/JOyf8COv01ynjrlsvBfPdfJErxNF9lSKCnb&#xA;wp8siJUbZEWKUo447iNZJFpMKqzKSrBlNGAYb0rkyTE0OTEASFnmtuJpLO3luJJBJbwoZJC/wsFU&#xA;VY1Aodh4D54YgSNciV9Q80NohKWoa6Bivrt2uLiOSoIeTcICdm9NAqCnYZLMLO28Rt+PfzSJDk7W&#xA;yXtS1qDLfWjrcW8cdSS8e5QkbL6iFkNexxwijvtE7fj3c1MhyRNvNJeW8VxHII7eZBJGU+JirCqm&#xA;pFBsfA/PIyAia5kI9R8l0kcdvG0ka1mNFVmJZizGigsd6VwAmRo8lIERY5qscSpEsX2lAoa9/Gvz&#xA;yBlZtkBQpZ9VCbwMYv8AJG6f8Cen0UyXHfPdjwVy2UJpZvUjhlTkoIeR4wW2XpVftCrU8cnGIokM&#xA;JE3RRccsci8o2DDpUGu+VGJHNtBB5LsCXYq0yqylWFVYUIPcHEGlIU7VmMfBzV4jwYnqadD9K0OT&#xA;mN772MDt7lXIMnYq7FXYq7FXYq7FXYq7FXYqlkH+l63NOd4dPX6vF4GaULJK3+xTgoPuwy4+mAH8&#xA;7f4dP0/YqZ5Sqk9zErFBV5B1RNyPn2H05IQPNiZhql1J1IgXwFGf7z8I/HD6R5o9R8l0dvEjcgKv&#xA;05sSzfecBmSkRAQGtf6P9X1QbfUnP1g7/wC80tFmrTsnwyH/AFMsw73Hv+/p+r4skzylXYqhy6QX&#xA;Dc2CxyjnyOwDLQHc+Ip9xyyjIeYYXR97GPP/AJu03RtPgN2rtbyyh5QARzSIhuC16834A7UK8szd&#xA;DpJZJGuf6/x83E1muhghxHd5d5i/OTzLq6vBpsS2Ns23Ijk5H8PvObzT9k4se53LzGp7ZzZdh6Q3&#xA;5c/OLzLpKJBqUS3tsu1QOLgf5+4x1HZWLJuNium7ZzYtj6g9Q8g+btO1iwnNqrrbxSl4gQTwSUlu&#xA;DU6cH5gbUC8c0eu0kschfM/o/Hzen0euhnhxDZk4dJ7heDBo4hz5DcFmqBuPAV+8ZhUYjzLl3Z9y&#xA;Iytm7FVG2+PnOf8Adp+D/UXZfv3b6cnPbbuYQ33710lvE7ciKP05qSrfeMAmQkxBW0uo+hE6+Bor&#xA;/ePhP4YfSfJHqHm2lzEzBDVJD0R9ifl2P0YDA80iYVciyUW/d3St+zMODf6y1K/hX8MmN4+5gdj7&#xA;1bIM3Yq7FXYq7FXYq7FXYq7FUHq+qW2l6dPfXDBUiWqqzBebnZEBPdm2GWYsZnIRCqWlxy21hFAi&#xA;+tNu9xPusbTSMXlYEitGdiRQUyeWjKzsP0dGHFfJF/V3f++kLD+RKov00PI/fT2yviA5BeG+ZVUR&#xA;EUKihVHRQKD8MiSTzZAU3gS7FVskcckbRyKHjcFXUioIIoQRhBrdUp0TUYVgk06Wb1b7TX+rTIDz&#xA;lKgAwyMBVvjiKsT41zIzYyTxAemW/l5/agypMq3UnQCFfFqM/wBw+Efecp9I82PqPkpzWihPVAMk&#xA;8Z5ozGpqOoHZeQ22yUcnTkCiUOvV4B+bXmJda8z/AFaF+VtbUC0pQhahPn1Zx7MM6vsvT+Fis8y8&#xA;h21qfEy8I5R+/qlulaUsijbMmc3VAKupaSsaGowQmkhMfyq8wLovmb6vM3G2uahq02DUDfLork+C&#xA;nMbtPT+Liscw7XsXU+Hl4Tyl9/R73DaKU9UgxzyHm7KaGp6A9m4jbfOVlk6cwHrow69VSt1H1AmX&#xA;xWiv9x+E/eMj6T5J9Q81Ke7hdRAj8Z5jwVDVHA/aYA77LXfJRxkb9AxlMHbqUWAAAAKAbADKm12K&#xA;uxVp0R1KuoZT1Uio/HCCRyQRal9XdP7mQqP5Hq6/RU8h99PbJcQPMMeGuRU55HMTJMnpt1SQVdAw&#xA;NVJIFRQjuMlEC9t0SO26tbXEdxAk0ZBVh2NaHuNvDITgYmiyhISFhUyLJ2KuxV2KuxV2KuxV2KoP&#xA;WNKtdV02ewukVo5lIBZQ3Fv2XAO1VO4yzFlMJCQ6Kl2l2lw9hFPp9y1nKKpcWbgz2yzRsUlRVdg6&#xA;hXUheDhe9Dl2WY4iJC/Pka6fghUUdWubXbUrR4lFa3NvW4hoO7cQJE96pxH82Q8IS+k/A7H9X2/B&#xA;Ufb3NtcwrNbSpNC32ZI2DqabbEVGUyiQaIpVTArsVWySRxRtLIwSNAWd2NAFAqSThAs0FeXBvrN9&#xA;cauA1veXshl9aMmKZY6BYkLJQ/DGqhh0rm5+kCHMD5ef2ttbJ3Y+btZtaLcquoQ92NIpwPGqj039&#xA;hxX55jz00JcvT9o/X97EwTWfzZp97afVbKZrfU7tlt4IZV4Sq0h4tItaq/prV/hJG2Ux0somyLiN&#xA;/wAe/kxIeQ/m95Yh0TzDBe2sfp2V0ioFHRWQUA8eg/DOi7L1Jy46PMPFds6bw83EOUt0q0nUkjUG&#xA;uZU4OsBVtU1RJUJJ3yMIUpKZ/lN5Zh1vzBPeXUfqWdqjKVPRi4oR49D+OY3ampOLHQ5l2nY2n8TN&#xA;xHlHd7VpF+zWn1edmmvrRjbXAAqzNHssjdl9ROL7nvnM5ce9jaJ3/Hu5PYmQRtLqTqRCvgtGf7z8&#xA;I+45X6R5o9R8lKe0hRROicp4TzVzV3I/aUE77rXbJRyE7dCxlADfqEWCCAQag7gjKm12KuxVp3RF&#xA;LOwVR1Ymg/HCATyQTSl9Yd/7mMsP53qi/RUcj91PfJcIHMseK+QU543ETPM/qN0SMVRCxNFBANTU&#xA;nuclEi9tkSG26tbW8dvAkMYAVR2FKnudvHITmZGyyhERFBUyLJ2KuxV2KuxV2KuxV2KuxVLIP9E1&#xA;uaA7Q6gv1iLwE0QWOVf9knBgPZjlx9UAf5u3w6fp+xUzylUDc6NZTTNcRhrW7b7V1bn03JHTnT4Z&#xA;Pk4Iy2OaQFcx3H8bfBVLlrlpsyJqcIoAycYbinTdWIhc+J5J8sNQl/RPzH6/vVXtNXsLqX0UkMdy&#xA;BU2symKYDx9NwrEf5Q298jPFKIvp39FSjzxfenpsenof3moMUkG4It0+KY7dm+GM/wCtl+jh6uL+&#xA;b9/T9fwZRG7FMzWx2KoExx3d9J6iiSC2X0wrAEGRwGaoP8q8afM5ZZjHbmVUte0v9J6ctlcTSSWq&#xA;MCscjFwnQVRiea0oNg3H2yzT5uCVgbuBrtBDURqW1MJ1LyXqlgpe1k9SMfsuf+NxQfSyqM2mLWwn&#xA;sXmNV2Hmx7x9Y+35J15Z/KbzBrcMd1eTpa2Um6sjByw9iKj9eUantTHiNDcsNP2Nmyby9I83rPk/&#xA;yfp2g6c1ras7RM5JJNOdNuTU3NTXvSmaHWayWWVl6PQ6GOGJAN2mDIljrUTooS31FPQYCgAnhBeM&#xA;gD+ePmCf8lRmPZnA3zjv8D+2vmXPApNMoS7FVG2+DnAf91H4P9Rt1+7dfoyc99+9hDbbuXSXESNx&#xA;Jq/XgoLN9wwCBKTIBbW6k6AQL4mjP9w+Efjh9I80eo+TaW0SsHNXkHR33I+XYfRgMzySIBVyLJRb&#xA;95dKv7MI5t/rNUL+FfwyY2j72B3PuVsgzdirsVdirsVdirsVdirsVdiqX65DK1mLmBS9zYuLmBF6&#xA;sUBDoPeSNmT6ctwkcVHlLb8e47qjYZopoUmiYPFIoeNx0KsKgj5jKyCDRVfgV2KqN3Y2d5F6V1Ck&#xA;8YNQrqGofEV6H3GShMxNg0rzTVvrMusXU1ncNLbW7NbW0dyzS/DGf3lJCS4rLyFTy2A9s3GOhAAj&#xA;c7mv1e5siNkN+kFi2vI2tv8Aiw/FF/yMGw/2VMl4d8t2StPcxw2z3H2kVeQ478vAL8+2RjEk0qna&#xA;KLa3SORg05q8vHeruSzkAb05HbDL1GxyQSqsJZFK0CKRQ8tzQ+w2wCgjctQRrSr1eRDQs25qO48K&#xA;jwwyPyWIXAy2rmayle1uZCB6kJ48j4uv2XoP5gcA32luFkE+07zjf2qLFfWy3UKDiJbeiSgAUFY3&#xA;PBvchl/1cxsmljI2DR82PBXJOpNS03XbGWDTrlPryATQRSVjkSWJg8bPG4D8OYFdqEZjjHLFIGQ9&#xA;LGkysb2K7sobtKokqByrdV23VvAqdjlM4GMiFXfWg+0CmX/KGyf8Eev0Vx4K57MOO+W6hNFN6kc0&#xA;r8VJCSJGSuzdKt9o0anhk4yFEBhIG7KLjijjXjGoUdaAU3yoyJ5toAHJdgS7FWmZVUsxoqipJ7AY&#xA;gWpKnaqwj5uKPKebA9RXoPoWgyczvXcxgNveq5Bk7FXYq7FXYq7FXYq7FXYq7FXYqlmjf6PJdaYd&#xA;ltHD2wpT/R5qtGB4BGDxgeCjLs29S7+fvH4B+KpnlKuxVLPMmqNpujz3ERAuWAita0P76Q8UND1C&#xA;k8m9gcu0+PjmAeXX3JAYDDEkMKRJXjGoUV60ApvmzkbNtq/AqU6ppUAhFxBzh+ryJcSRQsUWQRty&#xA;YMg2JpuDStaZfiym6PXZUzjEYQGOnFtwR0Ne9e+UknqoFL8CqZ+CYHtIKH/WG4+8ZLmEdXD45ie0&#xA;YoP9Y7n7hjyC9VTIpU544HXlMBSP4g524kftBv2aeOGJI5Ky7yToz22iJNdyzXEl7I94sdw7SCIT&#xA;tzVQG6Ghq1d+RO+YWrzXOhQrbbrTTIAlkmYarZI1kjZG+ywIP04QaNoIsUtt5GeIc/7xarJ/rLsf&#xA;v64ZiiiJsKmRZOxVRufjMcHaQ1f/AFF3P3mg+nJw2ssJb7K2QZuxV2KuxV2KuxV2KuxV2KuxV2Ku&#xA;xVLNV/0a7s9SGyRv9Wuj/wAVXBCg/wCxlCGvZeWX4vUDH4j3j9l/YqZ5QrsVYT5xvvrOrxWSGsVg&#xA;vqS+BnlFFHzSL/iebHSw4YX/ADvuH7fuZwCT5ezdirsVQen/ALpZLM/8ezUj/wCMTbx/cPh+jLMm&#xA;+/eqMytVCeQMjLGDJIN1C9OQ3FT0ycRvuxkdtnQSBUVZAY5DuwbpyO5oemMhvssTtur5BkvtbH9I&#xA;6hbadSsdw1bnr/cR/FLWn82yf7LBKfBEy7vv6frRI0HpeahqdirsVUf7u6/yZx/w6j+K/qyfOPu/&#xA;H497DlL3q2QZuxVRg+OSSbsTwT/VTb8Wr+GTlsAGEdySrZBm7FXYq7FXYq7FXYq7FXYq7FXYq7FV&#xA;O6torm2ltphyhnRo5ADSquOJ3HsclGRiQR0VC6NczTWKpcGt3bM1vdHuZIzTnTagkFHHswyeaIEt&#xA;uR3H48uSoi8u4bO0nu5zxht42llI3oqDkfwGQhEyIA5lXmkbzyl7m4FLm5dp5xWtHc14gnsg+Eew&#xA;zbmhsOQbgF+BXYq0zKoqxAHicQLUlA3UjR3UFzGpCPSCVmFAQ5/dmn2vhfYbftHLojYg+9Fov0eX&#xA;94xf/J6L939cr4u5eHvXgACgFAOgyKXEAihFQeoxVZ6PH+7Yp/k9V+7+mS4u9HD3Mi8kW7L9a1Se&#xA;IkSE21vIq8gEiYiQj9v45Njt+wMxdWeUQfP8fD72qcqO7Lo5I5F5IwZfEGuYBBHNAIPJdgS7FVK5&#xA;RmiJQVkQ84+3xLvT6emSgaO7GQ2VI3WRFdd1YAj5HARRpINi1O5dliIT+8chE+bbV+jrhgLO6JHZ&#xA;URFRFRdlUBVHsNsBNm0gU3gS7FXYq7FXYq7FXYq7FXYq7FXYq7FXYqlpraa6rdINSTifAXMK1H0v&#xA;CD/wAy76oecfuP7fvVKPPV8PSttKQ73LevcDaohgIIHtyk4/MBsv0cOcu7b4n9jKIY1mW2LGlQHj&#xA;9pv5V3P9mERKCWv3zeEa/e39B+OHYLu2sSKeVKt/Mdz+OAyKgNXECTwSQv8AZkUqSOoqOo9xjGVG&#xA;0qdjO81srSU9ZapMB05oeLU9qio9sM40VRGRV2KrJfWYLFBQ3EzLDAD09SQhVr7Amp9sIrryCkvS&#xA;tPsobGxt7OCvpW8axoT1IUUqfc9TmpnMykSerSvktonbnTjJ/vxTxb6SOvyOATI2YmIK3/So/Cdf&#xA;oV/+aT+GH0ny/H470eoebaXMTMEJKSH/AHW/wtt4V6/RgMCN0iQVciyUYPglkh7A+on+q53+5q/h&#xA;k5bgFhHYkOH7y6P8sIp/s2H8F/Xjyj715y9ytkGbsVdirsVdirsVdirsVdirsVdirsVdirsVQOtW&#xA;zz6dL6PEXMFJ7Zm6CWI80qewJHFvYnLcMqlvyOx+KvOX1+LXry41a1rJDMwit+Xw8IoahVb3LFn9&#xA;uVM23geGBE9P0tgBGy703b+8fb+VfhH9cF9ya716qqiigKPAbZEm0gN4q7FXYqgx+41Fh/uu7XkP&#xA;+MsYAI/2SU/4E5Zzj7vx+PeqMytXYqm3lGx+ta012wrDpy0Q70M8ykf8JETUf5YynUz4YV/O+4ft&#xA;+5hMs4zWsHYq7FWnjSReLqGU9iKjCCRyQQDzUvQlT+5kIH8klXX7/tD7/oyXEDzDHhI5FDX18tqq&#xA;XFwhjEZ4sy/GrK+xAI360O4HTLcePi2G9teTJw7lFWyFIV5U5t8TkdOTbnKZmy2wFBVyLJ2KuxV2&#xA;KuxV2KuxV2KuxV2KuxV2KuxV2KuxVLNR8taLqHxT2ypOF4rcQ1ilAAoBzShIH8pqPbLseonHkdkg&#xA;scvvJ2rW1XsZlvoh0ilpFPT2cfu3P0JmXDVQP1Dh+79f3shNJJHaGcW91G9rcHpDMpRjTrwJ+Fxt&#xA;1QkZkAWLG4Zgr8CuxV2Koa/ike3LRCs8JEsI8WX9n/ZCq/Tk8Zo78iqtFKk0SSxmscihkPiGFRkS&#xA;KNK6WVIonlc0SNSzHwAFTiBZpWeeV9MfT9HhjmXjdTVnuh3Esm5X/YCiD2Ga3U5OKZrkNh+PtaiU&#xA;1yhDsVdiqk9zErcAS8n8iDkfpp0+nJCBO7EyDVLqTuIV9qM//NI/HD6R5o9R8m0toUPLjyelC7fE&#xA;1PmcBmSkQAVciydirsVdirsVdirsVdirsVdirsVdirsVdirsVdirsVdiqlc2lrdQmC6hSeFqcopV&#xA;DqabiqsCMlGRibBoqxy+8iwbtpdy9q3aCWs8J+XIiRfoeg/lzLhrD/EL+w/qZCRY9fafqunVN/aM&#xA;kQqTdQkzQ0G5JYAMgHi6qMyoTjP6T8OR/HuZiQUEdJEDowdG3VlNQR7EYSKSuxVB2X7mWe06BG9W&#xA;Hw9OUk0/2Lhh7CmWT3AKpppVh+kdYtbRhWFG+s3IIqPThIIU1/mkKincVynJPggT8B8f2MZHZ6Nm&#xA;pa2mZVUsxCqNyTsBiBakqX1kv/cRmQfzn4U+87n6AcnwVzLDivk70JH/AL6QkfyJ8C/h8R+/6MeI&#xA;DkF4SeZVUREXiihVHRVFB+GRJJ5sgKbwJdirsVdirsVdirsVdirsVdirsVdirsVdirsVdirsVdir&#xA;sVdirsVdirsVSbUfKWi3sjTCM2l0xq1xbERsx8XWhRz/AK6nMjHqpx25jzSDTHb7yrrtn8UITUYR&#xA;3jpFMPmjng3zDj2XMuGohLn6T9n4/FshNjt7MkdxFMeUc1ueNxBIrRyCKQgEsjgMAG4tUjoMyoRs&#xA;V0P3s7Zp5Lgigs5tRlP72/YeigqW+rxEqlFHXkxZ6jsRmBqrJER/D95/FNM5i2R8rqT7KiFf5n+J&#xA;v+BBp+P0ZiVEebCyfJtbWMMHesrjcM+9D7D7I+gYmZ6bJEB71XIMnYq7FXYq7FXYq7FXYq7FXYq7&#xA;FXYq7FXYq7FXYq7FXYq7FXYq7FXYq7FXYq7FXYq7FXYqgtW0XS9XtGtdQt0niZWUch8S8hQlG6qf&#xA;cZZizSxm4mlBVdP0+00+zhtLVOEMCLGgrU8UHFasdzsO+DJkMzZRSIyCXYq7FXYq7FXYq7FXYq7F&#xA;XYq7FXYq7FXYq7FXYq7FXYq7FXYq7FXYq7FXYq7FXYq7FXYq7FXYq7FXYq7FXYq7FXYq7FXYq7FX&#xA;Yq7FXYq7FXYq7FXYq7FXYq7FXYq7FXYq7FXYq7FXYq7FXYq7FXYq7FXYq7FXYq7FXYq7FXYq7FXY&#xA;q7FXYq7FXYq7FXYq7FXYq7FXYq7FXYq7FXYq7FXYq7FXYq7FXYq7FXYq7FXYq7FXYq7FXYq7FXYq&#xA;7FXYq7FXYq7FXYq7FXYq7FXYq7FXYq7FXYq7FXYq7FXYq7FXYq7FXYq7FXYq7FXYq7FXYq7FXYq7&#xA;FXYq7FXYq7FXYq7FXYq7FXYq7FXYq7FX/9k=</xmpGImg:image>
               </rdf:li>
            </rdf:Alt>
         </xmp:Thumbnails>
         <xmpTPg:MaxPageSize rdf:parseType="Resource">
            <stDim:w>1000.000000</stDim:w>
            <stDim:h>1000.000000</stDim:h>
            <stDim:unit>Pixels</stDim:unit>
         </xmpTPg:MaxPageSize>
         <xmpTPg:NPages>1</xmpTPg:NPages>
         <xmpTPg:HasVisibleTransparency>True</xmpTPg:HasVisibleTransparency>
         <xmpTPg:HasVisibleOverprint>False</xmpTPg:HasVisibleOverprint>
         <xmpTPg:PlateNames>
            <rdf:Seq>
               <rdf:li>Cyan</rdf:li>
               <rdf:li>Magenta</rdf:li>
               <rdf:li>Yellow</rdf:li>
            </rdf:Seq>
         </xmpTPg:PlateNames>
         <xmpTPg:SwatchGroups>
            <rdf:Seq>
               <rdf:li rdf:parseType="Resource">
                  <xmpG:groupName>Default Swatch Group</xmpG:groupName>
                  <xmpG:groupType>0</xmpG:groupType>
               </rdf:li>
            </rdf:Seq>
         </xmpTPg:SwatchGroups>
         <dc:format>image/svg+xml</dc:format>
      </rdf:Description>
   </rdf:RDF>
</x:xmpmeta>
                                                                                                    
                                                                                                    
                                                                                                    
                                                                                                    
                                                                                                    
                                                                                                    
                                                                                                    
                                                                                                    
                                                                                                    
                                                                                                    
                                                                                                    
                                                                                                    
                                                                                                    
                                                                                                    
                                                                                                    
                                                                                                    
                                                                                                    
                                                                                                    
                                                                                                    
                                                                                                    
                           
<?xpacket end="w"?>
  </metadata>
</svg>