<?xml version="1.0" encoding="UTF-8"?>
<svg id="Layer_1" xmlns="http://www.w3.org/2000/svg" version="1.1" xmlns:xlink="http://www.w3.org/1999/xlink" viewBox="0 0 1000 1000">
  <!-- Generator: Adobe Illustrator 29.8.3, SVG Export Plug-In . SVG Version: 2.1.1 Build 3)  -->
  <defs>
    <radialGradient id="radial-gradient" cx="448.02" cy="324.67" fx="448.02" fy="324.67" r="52.67" gradientTransform="translate(210.33 971.41) rotate(-22.5) scale(1 -1)" gradientUnits="userSpaceOnUse">
      <stop offset="0" stop-color="#66d3fa"/>
      <stop offset="1" stop-color="#007acc"/>
    </radialGradient>
  </defs>
  <rect width="1000" height="1000" display="none" fill="#0d1326" stroke="#0d1326" stroke-width="2"/>
  <path d="M850,496c-.37,0-.71.07-1.05.16l-99.49-240.19c1.2-.69,2.03-1.97,2.03-3.46,0-2.21-1.79-4-4-4-1.48,0-2.77.82-3.46,2.03l-240.19-99.49c.09-.34.16-.68.16-1.05,0-2.21-1.79-4-4-4s-4,1.79-4,4c0,.37.07.71.16,1.05l-240.19,99.49c-.69-1.2-1.97-2.03-3.46-2.03-2.21,0-4,1.79-4,4,0,1.48.82,2.77,2.03,3.46l-99.49,240.19c-.34-.09-.68-.16-1.05-.16-2.21,0-4,1.79-4,4s1.79,4,4,4c.37,0,.71-.07,1.05-.16l99.49,240.19c-1.2.69-2.03,1.97-2.03,3.46,0,2.21,1.79,4,4,4,1.48,0,2.77-.82,3.46-2.03l240.19,99.49c-.09.34-.16.68-.16,1.05,0,2.21,1.79,4,4,4s4-1.79,4-4c0-.37-.07-.71-.16-1.05l240.19-99.49c.69,1.2,1.97,2.03,3.46,2.03,2.21,0,4-1.79,4-4,0-1.48-.82-2.77-2.03-3.46l99.49-240.19c.34.09.68.16,1.05.16,2.21,0,4-1.79,4-4s-1.79-4-4-4ZM744.03,745.52l-170.89-70.79,28.32-68.37c.34.09.68.16,1.05.16,2.21,0,4-1.79,4-4,0-.37-.07-.71-.16-1.05l68.37-28.32,70.79,170.89c-.62.35-1.13.87-1.48,1.48ZM500,846c-.37,0-.71.07-1.05.16l-70.78-170.89,68.37-28.32c.69,1.2,1.97,2.03,3.46,2.03s2.77-.82,3.46-2.03l68.37,28.32-70.78,170.89c-.34-.09-.68-.16-1.05-.16ZM254.48,744.03l70.78-170.9,68.38,28.32c-.09.34-.16.68-.16,1.05,0,2.21,1.79,4,4,4,.37,0,.71-.07,1.05-.16l28.32,68.37-170.89,70.79c-.35-.62-.87-1.13-1.48-1.48ZM153.84,498.95l170.88-70.78,28.32,68.37c-1.2.69-2.03,1.97-2.03,3.46s.82,2.77,2.03,3.46l-28.32,68.37-170.88-70.78c.09-.34.16-.68.16-1.05s-.07-.71-.16-1.05ZM255.97,254.48l170.9,70.78-28.32,68.38c-.34-.09-.68-.16-1.05-.16-2.21,0-4,1.79-4,4,0,.37.07.71.16,1.05l-68.38,28.32-70.78-170.9c.62-.35,1.13-.87,1.48-1.48ZM500,154c.37,0,.71-.07,1.05-.16l70.78,170.88-68.37,28.32c-.69-1.2-1.97-2.03-3.46-2.03s-2.77.82-3.46,2.03l-68.37-28.32,70.78-170.88c.34.09.68.16,1.05.16ZM745.52,255.97l-70.79,170.89-68.37-28.32c.09-.34.16-.68.16-1.05,0-2.21-1.79-4-4-4-.37,0-.71.07-1.05.16l-28.32-68.38,170.9-70.78c.35.62.87,1.13,1.48,1.48ZM500,640.97c-.37,0-.71.07-1.05.16l-28.32-68.37,29.37-12.16,29.37,12.17-28.32,68.37c-.34-.09-.68-.16-1.05-.16ZM500,359.02c.37,0,.71-.07,1.05-.16l28.32,68.38-29.38,12.17-29.37-12.17,28.32-68.38c.34.09.68.16,1.05.16ZM600.54,400.95l-28.32,68.37-29.37-12.16-12.17-29.37,68.37-28.32c.35.62.87,1.13,1.48,1.48ZM641.13,501.05l-68.37,28.32-12.17-29.37,12.16-29.37,68.37,28.32c-.09.34-.16.68-.16,1.05s.07.71.16,1.05ZM358.86,498.95l68.38-28.32,12.17,29.37-12.17,29.38-68.38-28.32c.09-.34.16-.68.16-1.05s-.07-.71-.16-1.05ZM428.17,470.24l28.45-11.78-16.66,40.23-11.78-28.45ZM439.95,501.3l16.67,40.24-28.45-11.78,11.78-28.45ZM440.49,500l17.43-42.08,42.08-17.43,42.08,17.43,17.43,42.07-17.43,42.08-42.08,17.43-42.07-17.43-17.43-42.08ZM543.39,458.46l28.44,11.78-11.78,28.44-16.66-40.23ZM560.05,501.3l11.78,28.45-28.45,11.78,16.66-40.23ZM541.54,456.62l-40.24-16.67,28.45-11.78,11.78,28.45ZM498.69,439.95l-40.23,16.66,11.78-28.45,28.45,11.78ZM457.15,457.15l-29.37,12.17-28.32-68.37c.62-.35,1.13-.87,1.48-1.48l68.37,28.32-12.17,29.37ZM397.49,401.49c.37,0,.71-.07,1.05-.16l28.32,68.37-68.38,28.32c-.69-1.2-1.97-2.03-3.46-2.03-.37,0-.71.07-1.05.16l-28.32-68.37,68.38-28.32c.69,1.2,1.97,2.03,3.46,2.03ZM355.02,504c1.48,0,2.77-.82,3.46-2.03l68.38,28.32-28.32,68.37c-.34-.09-.68-.16-1.05-.16-1.48,0-2.77.82-3.46,2.03l-68.38-28.32,28.32-68.37c.34.09.68.16,1.05.16ZM399.46,599.05l28.32-68.37,29.37,12.17,12.16,29.37-68.37,28.32c-.35-.62-.87-1.13-1.48-1.48ZM458.46,543.39l40.23,16.66-28.44,11.78-11.78-28.44ZM501.3,560.05l40.23-16.66-11.78,28.45-28.45-11.78ZM542.84,542.84l29.37-12.17,28.32,68.37c-.62.35-1.13.87-1.48,1.48l-68.37-28.32,12.17-29.37ZM602.51,598.51c-.37,0-.71.07-1.05.16l-28.32-68.37,68.37-28.32c.69,1.2,1.97,2.03,3.46,2.03.37,0,.71-.07,1.05-.16l28.32,68.37-68.38,28.32c-.69-1.2-1.97-2.03-3.46-2.03ZM644.97,496c-1.48,0-2.77.82-3.46,2.03l-68.37-28.32,28.32-68.37c.34.09.68.16,1.05.16,1.48,0,2.77-.82,3.46-2.03l68.38,28.32-28.32,68.37c-.34-.09-.68-.16-1.05-.16ZM600.54,394.03c-1.2.69-2.03,1.97-2.03,3.46,0,.37.07.71.16,1.05l-68.37,28.32-28.32-68.38c1.2-.69,2.03-1.97,2.03-3.46,0-.37-.07-.71-.16-1.05l68.37-28.32,28.32,68.38ZM496.16,353.97c-.09.34-.16.68-.16,1.05,0,1.48.82,2.77,2.03,3.46l-28.32,68.38-68.37-28.32c.09-.34.16-.68.16-1.05,0-1.48-.82-2.77-2.03-3.46l28.32-68.38,68.37,28.32ZM399.46,605.97c1.2-.69,2.03-1.97,2.03-3.46,0-.37-.07-.71-.16-1.05l68.37-28.32,28.32,68.37c-1.2.69-2.03,1.97-2.03,3.46,0,.37.07.71.16,1.05l-68.37,28.32-28.32-68.38ZM503.84,646.02c.09-.34.16-.68.16-1.05,0-1.48-.82-2.77-2.03-3.46l28.32-68.37,68.37,28.32c-.09.34-.16.68-.16,1.05,0,1.48.82,2.77,2.03,3.46l-28.32,68.38-68.37-28.32ZM646.94,503.46c1.2-.69,2.03-1.97,2.03-3.46s-.82-2.77-2.03-3.46l28.32-68.37,170.89,70.78c-.09.34-.16.68-.16,1.05s.07.71.16,1.05l-170.89,70.78-28.32-68.37ZM848.03,496.54c-.62.35-1.13.87-1.48,1.48l-170.89-70.78,70.79-170.89c.34.09.68.16,1.05.16s.71-.07,1.05-.16l99.49,240.19ZM743.65,251.46c-.09.34-.16.68-.16,1.05s.07.71.16,1.05l-170.89,70.78-70.78-170.89c.62-.35,1.13-.87,1.48-1.48l240.19,99.49ZM496.54,151.97c.35.62.87,1.13,1.48,1.48l-70.78,170.89-170.89-70.78c.09-.34.16-.68.16-1.05s-.07-.71-.16-1.05l240.19-99.49ZM251.46,256.35c.34.09.68.16,1.05.16s.71-.07,1.05-.16l70.78,170.89-170.89,70.78c-.35-.62-.87-1.13-1.48-1.48l99.49-240.19ZM151.97,503.46c.62-.35,1.13-.87,1.48-1.48l170.89,70.78-70.78,170.89c-.34-.09-.68-.16-1.05-.16s-.71.07-1.05.16l-99.49-240.19ZM256.35,748.54c.09-.34.16-.68.16-1.05s-.07-.71-.16-1.05l170.89-70.79,70.78,170.89c-.62.35-1.13.87-1.48,1.48l-240.19-99.49ZM503.46,848.03c-.35-.62-.87-1.13-1.48-1.48l70.78-170.89,170.89,70.79c-.09.34-.16.68-.16,1.05s.07.71.16,1.05l-240.19,99.49ZM748.54,743.65c-.34-.09-.68-.16-1.05-.16s-.71.07-1.05.16l-70.79-170.89,170.89-70.78c.35.62.87,1.13,1.48,1.48l-99.49,240.19Z" fill="#66b3ff" opacity=".7"/>
  <g display="none">
    <polygon points="746.85 747.2 499.65 849.84 397.85 603.48 645.05 500.84 746.85 747.2" fill="#009e60" opacity=".4"/>
    <path d="M747.49,743.49c-.37,0-.71.07-1.05.16l-99.5-240.19c1.2-.69,2.03-1.97,2.03-3.46,0-2.21-1.79-4-4-4-1.48,0-2.77.82-3.46,2.03l-240.18-99.49c.09-.34.16-.68.16-1.05,0-2.21-1.79-4-4-4s-4,1.79-4,4c0,.37.07.71.16,1.05l-240.19,99.49c-.69-1.2-1.97-2.03-3.46-2.03-2.21,0-4,1.79-4,4s1.79,4,4,4c.37,0,.71-.07,1.05-.16l99.49,240.19c-1.2.69-2.03,1.97-2.03,3.46,0,2.21,1.79,4,4,4,1.48,0,2.77-.82,3.46-2.03l240.19,99.49c-.09.34-.16.68-.16,1.05,0,2.21,1.79,4,4,4s4-1.79,4-4c0-.37-.07-.71-.16-1.05l240.19-99.49c.69,1.2,1.97,2.03,3.46,2.03,2.21,0,4-1.79,4-4s-1.79-4-4-4ZM745.52,744.03c-.62.35-1.13.87-1.48,1.48l-240.19-99.5c.09-.34.16-.68.16-1.05,0-2.21-1.79-4-4-4-.37,0-.71.07-1.05.16l-28.32-68.37,170.88-70.78c.69,1.2,1.97,2.03,3.46,2.03.37,0,.71-.07,1.05-.16l99.5,240.19ZM401.49,602.51c0-.37-.07-.71-.16-1.05l68.37-28.32,28.32,68.37c-1.2.69-2.03,1.97-2.03,3.46,0,.37.07.71.16,1.05l-68.37,28.32-28.32-68.38c1.2-.69,2.03-1.97,2.03-3.46ZM641.13,498.95c-.09.34-.16.68-.16,1.05s.07.71.16,1.05l-170.88,70.78-70.78-170.88c.62-.35,1.13-.87,1.48-1.48l240.18,99.49ZM394.03,399.46c.69,1.2,1.97,2.03,3.46,2.03.37,0,.71-.07,1.05-.16l70.78,170.88-68.37,28.32c-.69-1.2-1.97-2.03-3.46-2.03s-2.77.82-3.46,2.03l-240.19-99.49c.09-.34.16-.68.16-1.05s-.07-.71-.16-1.05l240.19-99.49ZM151.97,503.46c.62-.35,1.13-.87,1.48-1.48l240.19,99.49c-.09.34-.16.68-.16,1.05,0,2.21,1.79,4,4,4,.37,0,.71-.07,1.05-.16l28.32,68.37-170.89,70.79c-.69-1.2-1.97-2.03-3.46-2.03-.37,0-.71.07-1.05.16l-99.49-240.19ZM256.35,748.54c.09-.34.16-.68.16-1.05s-.07-.71-.16-1.05l170.89-70.79,70.78,170.89c-.62.35-1.13.87-1.48,1.48l-240.19-99.49ZM503.46,848.03c-.69-1.2-1.97-2.03-3.46-2.03-.37,0-.71.07-1.05.16l-70.78-170.89,68.37-28.32c.69,1.2,1.97,2.03,3.46,2.03s2.77-.82,3.46-2.03l240.19,99.5c-.09.34-.16.68-.16,1.05s.07.71.16,1.05l-240.19,99.49Z" fill="#009e60"/>
  </g>
  <g display="none">
    <polygon points="499.75 849.55 252.37 747.33 354.59 501.14 601.97 603.36 499.75 849.55" fill="#7f4fc9" opacity=".4"/>
    <path d="M602.51,598.51c-.37,0-.71.07-1.05.16l-99.49-240.19c1.2-.69,2.03-1.97,2.03-3.46,0-2.21-1.79-4-4-4-1.48,0-2.77.82-3.46,2.03l-240.19-99.49c.09-.34.16-.68.16-1.05,0-2.21-1.79-4-4-4s-4,1.79-4,4c0,1.48.82,2.77,2.03,3.46l-99.49,240.19c-.34-.09-.68-.16-1.05-.16-2.21,0-4,1.79-4,4s1.79,4,4,4c.37,0,.71-.07,1.05-.16l99.49,240.19c-1.2.69-2.03,1.97-2.03,3.46,0,2.21,1.79,4,4,4,1.48,0,2.77-.82,3.46-2.03l240.19,99.49c-.09.34-.16.68-.16,1.05,0,2.21,1.79,4,4,4s4-1.79,4-4c0-1.48-.82-2.77-2.03-3.46l99.49-240.19c.34.09.68.16,1.05.16,2.21,0,4-1.79,4-4s-1.79-4-4-4ZM600.54,599.05c-.62.35-1.13.87-1.48,1.48l-170.89-70.78,70.78-170.89c.34.09.68.16,1.05.16s.71-.07,1.05-.16l99.49,240.19ZM496.16,353.97c-.09.34-.16.68-.16,1.05,0,1.48.82,2.77,2.03,3.46l-70.78,170.9-68.38-28.32c.09-.34.16-.68.16-1.05,0-2.21-1.79-4-4-4-.37,0-.71.07-1.05.16l-99.49-240.19c.62-.35,1.13-.87,1.48-1.48l240.19,99.49ZM397.49,598.51c-1.48,0-2.77.82-3.46,2.03l-68.38-28.32,28.32-68.37c.34.09.68.16,1.05.16,1.48,0,2.77-.82,3.46-2.03l68.38,28.32-28.32,68.37c-.34-.09-.68-.16-1.05-.16ZM251.46,256.35c.34.09.68.16,1.05.16s.71-.07,1.05-.16l99.49,240.19c-1.2.69-2.03,1.97-2.03,3.46s.82,2.77,2.03,3.46l-28.32,68.37-170.88-70.78c.09-.34.16-.68.16-1.05,0-1.48-.82-2.77-2.03-3.46l99.49-240.19ZM151.97,503.46c.62-.35,1.13-.87,1.48-1.48l170.89,70.78-70.78,170.89c-.34-.09-.68-.16-1.05-.16s-.71.07-1.05.16l-99.49-240.19ZM256.35,748.54c.09-.34.16-.68.16-1.05,0-1.48-.82-2.77-2.03-3.46l70.78-170.9,68.38,28.32c-.09.34-.16.68-.16,1.05,0,2.21,1.79,4,4,4,.37,0,.71-.07,1.05-.16l99.49,240.19c-.62.35-1.13.87-1.48,1.48l-240.19-99.49ZM501.05,846.16c-.34-.09-.68-.16-1.05-.16s-.71.07-1.05.16l-99.49-240.19c1.2-.69,2.03-1.97,2.03-3.46s-.82-2.77-2.03-3.46l28.32-68.37,170.88,70.78c-.09.34-.16.68-.16,1.05,0,1.48.82,2.77,2.03,3.46l-99.49,240.19Z" fill="#7f4fc9"/>
  </g>
  <g display="none">
    <polygon points="398.23 602.37 150.86 500.15 253.07 253.96 500.45 356.18 398.23 602.37" fill="#007fff" opacity=".4"/>
    <path d="M747.49,248.51c-1.48,0-2.77.82-3.46,2.03l-240.19-99.49c.09-.34.16-.68.16-1.05,0-2.21-1.79-4-4-4s-4,1.79-4,4c0,.37.07.71.16,1.05l-240.19,99.49c-.69-1.2-1.97-2.03-3.46-2.03-2.21,0-4,1.79-4,4,0,1.48.82,2.77,2.03,3.46l-99.49,240.19c-.34-.09-.68-.16-1.05-.16-2.21,0-4,1.79-4,4s1.79,4,4,4c1.48,0,2.77-.82,3.46-2.03l240.19,99.49c-.09.34-.16.68-.16,1.05,0,2.21,1.79,4,4,4s4-1.79,4-4c0-.37-.07-.71-.16-1.05l240.18-99.49c.69,1.2,1.97,2.03,3.46,2.03,2.21,0,4-1.79,4-4,0-1.48-.82-2.77-2.03-3.46l99.5-240.19c.34.09.68.16,1.05.16,2.21,0,4-1.79,4-4s-1.79-4-4-4ZM743.65,251.46c-.09.34-.16.68-.16,1.05s.07.71.16,1.05l-240.19,99.49c-.69-1.2-1.97-2.03-3.46-2.03s-2.77.82-3.46,2.03l-68.37-28.32,70.78-170.88c.34.09.68.16,1.05.16,1.48,0,2.77-.82,3.46-2.03l240.19,99.49ZM399.46,394.03l28.32-68.38,68.37,28.32c-.09.34-.16.68-.16,1.05,0,1.48.82,2.77,2.03,3.46l-28.32,68.38-68.37-28.32c.09-.34.16-.68.16-1.05,0-1.48-.82-2.77-2.03-3.46ZM496.54,151.97c.35.62.87,1.13,1.48,1.48l-70.78,170.89-170.89-70.78c.09-.34.16-.68.16-1.05s-.07-.71-.16-1.05l240.19-99.49ZM251.46,256.35c.34.09.68.16,1.05.16,1.48,0,2.77-.82,3.46-2.03l170.9,70.78-28.32,68.38c-.34-.09-.68-.16-1.05-.16-2.21,0-4,1.79-4,4,0,.37.07.71.16,1.05l-240.19,99.49c-.35-.62-.87-1.13-1.48-1.48l99.49-240.19ZM153.84,501.05c.09-.34.16-.68.16-1.05s-.07-.71-.16-1.05l240.19-99.49c.69,1.2,1.97,2.03,3.46,2.03s2.77-.82,3.46-2.03l68.37,28.32-70.78,170.88c-.34-.09-.68-.16-1.05-.16-1.48,0-2.77.82-3.46,2.03l-240.19-99.49ZM400.95,600.54c-.35-.62-.87-1.13-1.48-1.48l70.78-170.88,170.88,70.78c-.09.34-.16.68-.16,1.05s.07.71.16,1.05l-240.18,99.49ZM646.02,496.16c-.34-.09-.68-.16-1.05-.16-1.48,0-2.77.82-3.46,2.03l-170.89-70.78,28.32-68.38c.34.09.68.16,1.05.16,2.21,0,4-1.79,4-4,0-.37-.07-.71-.16-1.05l240.19-99.49c.35.62.87,1.13,1.48,1.48l-99.5,240.19Z" fill="#007fff"/>
  </g>
  <g>
    <polygon points="850.15 499.03 602.95 601.67 501.15 355.31 748.35 252.67 850.15 499.03" fill="#f28500" opacity=".4"/>
    <path d="M850,496c-.37,0-.71.07-1.05.16l-99.49-240.19c1.2-.69,2.03-1.97,2.03-3.46,0-2.21-1.79-4-4-4-1.48,0-2.77.82-3.46,2.03l-240.19-99.49c.09-.34.16-.68.16-1.05,0-2.21-1.79-4-4-4s-4,1.79-4,4c0,.37.07.71.16,1.05l-240.19,99.49c-.69-1.2-1.97-2.03-3.46-2.03-2.21,0-4,1.79-4,4s1.79,4,4,4c.37,0,.71-.07,1.05-.16l99.49,240.19c-1.2.69-2.03,1.97-2.03,3.46,0,2.21,1.79,4,4,4,1.48,0,2.77-.82,3.46-2.03l240.19,99.49c-.09.34-.16.68-.16,1.05,0,2.21,1.79,4,4,4s4-1.79,4-4c0-.37-.07-.71-.16-1.05l240.19-99.49c.69,1.2,1.97,2.03,3.46,2.03,2.21,0,4-1.79,4-4s-1.79-4-4-4ZM848.03,496.54c-.62.35-1.13.87-1.48,1.48l-240.19-99.49c.09-.34.16-.68.16-1.05,0-2.21-1.79-4-4-4-.37,0-.71.07-1.05.16l-28.32-68.38,170.9-70.78c.69,1.2,1.97,2.03,3.46,2.03.37,0,.71-.07,1.05-.16l99.49,240.19ZM504,355.02c0-.37-.07-.71-.16-1.05l68.37-28.32,28.32,68.38c-1.2.69-2.03,1.97-2.03,3.46,0,.37.07.71.16,1.05l-68.37,28.32-28.32-68.38c1.2-.69,2.03-1.97,2.03-3.46ZM743.65,251.46c-.09.34-.16.68-.16,1.05s.07.71.16,1.05l-170.89,70.78-70.78-170.89c.62-.35,1.13-.87,1.48-1.48l240.19,99.49ZM496.54,151.97c.69,1.2,1.97,2.03,3.46,2.03.37,0,.71-.07,1.05-.16l70.78,170.88-68.37,28.32c-.69-1.2-1.97-2.03-3.46-2.03s-2.77.82-3.46,2.03l-240.19-99.49c.09-.34.16-.68.16-1.05s-.07-.71-.16-1.05l240.19-99.49ZM254.48,255.97c.62-.35,1.13-.87,1.48-1.48l240.19,99.49c-.09.34-.16.68-.16,1.05,0,2.21,1.79,4,4,4,.37,0,.71-.07,1.05-.16l28.32,68.38-170.9,70.78c-.69-1.2-1.97-2.03-3.46-2.03-.37,0-.71.07-1.05.16l-99.49-240.19ZM358.86,501.05c.09-.34.16-.68.16-1.05s-.07-.71-.16-1.05l170.89-70.78,70.78,170.89c-.62.35-1.13.87-1.48,1.48l-240.19-99.49ZM605.97,600.54c-.69-1.2-1.97-2.03-3.46-2.03-.37,0-.71.07-1.05.16l-70.78-170.88,68.37-28.32c.69,1.2,1.97,2.03,3.46,2.03s2.77-.82,3.46-2.03l240.19,99.49c-.09.34-.16.68-.16,1.05s.07.71.16,1.05l-240.19,99.49Z" fill="#f28500"/>
  </g>
  <polygon points="500 443 459.69 459.69 443 500 459.69 540.31 500 557 540.31 540.31 557 500 540.31 459.69 500 443" fill="url(#radial-gradient)" stroke="#66d3fa" stroke-width="3"/>
  <metadata><?xpacket begin="﻿" id="W5M0MpCehiHzreSzNTczkc9d"?>
<x:xmpmeta xmlns:x="adobe:ns:meta/" x:xmptk="Adobe XMP Core 9.1-c003 1.000000, 0000/00/00-00:00:00        ">
   <rdf:RDF xmlns:rdf="http://www.w3.org/1999/02/22-rdf-syntax-ns#">
      <rdf:Description rdf:about=""
            xmlns:xmp="http://ns.adobe.com/xap/1.0/"
            xmlns:xmpGImg="http://ns.adobe.com/xap/1.0/g/img/"
            xmlns:xmpTPg="http://ns.adobe.com/xap/1.0/t/pg/"
            xmlns:stDim="http://ns.adobe.com/xap/1.0/sType/Dimensions#"
            xmlns:xmpG="http://ns.adobe.com/xap/1.0/g/"
            xmlns:dc="http://purl.org/dc/elements/1.1/">
         <xmp:CreatorTool>Adobe Illustrator 29.8 (Windows)</xmp:CreatorTool>
         <xmp:CreateDate>2025-12-11T01:16:58+08:00</xmp:CreateDate>
         <xmp:Thumbnails>
            <rdf:Alt>
               <rdf:li rdf:parseType="Resource">
                  <xmpGImg:width>256</xmpGImg:width>
                  <xmpGImg:height>256</xmpGImg:height>
                  <xmpGImg:format>JPEG</xmpGImg:format>
                  <xmpGImg:image>/9j/4AAQSkZJRgABAgEAAAAAAAD/7QAsUGhvdG9zaG9wIDMuMAA4QklNA+0AAAAAABAAAAAAAAEA&#xA;AQAAAAAAAQAB/+4ADkFkb2JlAGTAAAAAAf/bAIQABgQEBAUEBgUFBgkGBQYJCwgGBggLDAoKCwoK&#xA;DBAMDAwMDAwQDA4PEA8ODBMTFBQTExwbGxscHx8fHx8fHx8fHwEHBwcNDA0YEBAYGhURFRofHx8f&#xA;Hx8fHx8fHx8fHx8fHx8fHx8fHx8fHx8fHx8fHx8fHx8fHx8fHx8fHx8fHx8f/8AAEQgBAAEAAwER&#xA;AAIRAQMRAf/EAaIAAAAHAQEBAQEAAAAAAAAAAAQFAwIGAQAHCAkKCwEAAgIDAQEBAQEAAAAAAAAA&#xA;AQACAwQFBgcICQoLEAACAQMDAgQCBgcDBAIGAnMBAgMRBAAFIRIxQVEGE2EicYEUMpGhBxWxQiPB&#xA;UtHhMxZi8CRygvElQzRTkqKyY3PCNUQnk6OzNhdUZHTD0uIIJoMJChgZhJRFRqS0VtNVKBry4/PE&#xA;1OT0ZXWFlaW1xdXl9WZ2hpamtsbW5vY3R1dnd4eXp7fH1+f3OEhYaHiImKi4yNjo+Ck5SVlpeYmZ&#xA;qbnJ2en5KjpKWmp6ipqqusra6voRAAICAQIDBQUEBQYECAMDbQEAAhEDBCESMUEFURNhIgZxgZEy&#xA;obHwFMHR4SNCFVJicvEzJDRDghaSUyWiY7LCB3PSNeJEgxdUkwgJChgZJjZFGidkdFU38qOzwygp&#xA;0+PzhJSktMTU5PRldYWVpbXF1eX1RlZmdoaWprbG1ub2R1dnd4eXp7fH1+f3OEhYaHiImKi4yNjo&#xA;+DlJWWl5iZmpucnZ6fkqOkpaanqKmqq6ytrq+v/aAAwDAQACEQMRAD8A9U4q7FXYq7FXYq7FXYq7&#xA;FXYq7FXYq7FXYq7FXYq7FXYq7FXYq7FXYq7FXYq7FXYq7FXYq7FXYq7FXYq7FXYq7FXYq7FXYq7F&#xA;XYq7FXYq7FXYq7FXYq7FXYq7FXYq7FXYq7FXYq7FXYq7FXYq7FXYq7FXYq7FXYq7FXYq7FXYq7FX&#xA;Yq7FXYq7FXYq7FXYq7FXYq7FXYq7FXYq7FXYq7FXYq7FXYq7FXYq7FXYq7FXYq7FXYq7FXYq7FXY&#xA;q7FXYq7FXYq7FXYq7FXYq7FXYq7FXYq7FXYq7FXYq7FXYq7FXYq7FXYq7FXYq7FXYq7FXYq7FXYq&#xA;7FXYq7FXYq7FXYq7FXYq7FXYq7FXYq7FXYqhr/UbKwgM11KsaAEgH7TcRUhV6sfYZXlyxgLkWcMZ&#xA;kaDtP1Ky1CBZ7SVZUYAkA/EvIVAZeqn54MWaOSPFE2FyY5QNSCJy1g7FXYq7FXYq7FXYq7FXYq7F&#xA;XYq7FXYq7FXYq7FXYq7FXYq7FXYq7FXYq7FXYq7FXYq7FUHJqtsJDDAGup1NGigAYqfB2JCJ/smG&#xA;VHMLoeo+X4ofFsGM8zsPNb6Wq3G8sq2cf++4aSSH5yOOI9wF+TYKnLmeH3c/n+z4rcRy3/H4/U4W&#xA;FpDIscUf72XeaZiXkaNSCQ0jEsQTQUJ6Zdixxhchz+35teSZlQKHtrC0aaezmj/eWxD20ykpIsEp&#xA;LKFkUhgFYMtAegGYsccSTE9OXfR8/mPc3ymaBHX7wiPS1W33ilW8j/33NSOQfKRBxPsCvzbLKnHk&#xA;eL38/n+z4sLiee34/H6l0eq2xkEM4a1nY0WKcBSx8EYEo/8AsWOEZhdH0nz/ABR+CnGeY3HkjMta&#xA;3Yq7FXYq7FXYq7FXYq7FXYq7FXYq7FXYq7FXYq7FXYq7FXYq7FXYq7FVk08EEZknkWKMdXdgqivu&#xA;cjKQiLJpIiTsEJ+kLmfaxtmdT/u+esMf0AgyN/wND45X4hP0j4nb9v2V5s+ADmf0/sd+jHm3v7hr&#xA;gd4FHpQ7+KAlmHs7MMfCv6jf2D8e8lPiV9Ir7/x7kZHFHFGscSBI1FFRQAAPYDLQABQaybXYUKNv&#xA;8byTdmPBP9VCRX6Wr9FMnLYAMI72UPqJ9Ce2vuixt6M57elMQK/7Fwpr2FcxsuxEvh8D+2vhbfDc&#xA;GP42R2XNa2SKOWNo5UDxsKMjAEEe4OAgEUUg0g/0Y8O9hcNbjtAw9WHbwQkMo9kZRlXhV9Jr7R+P&#xA;cQ2eJf1C/v8Ax73fpC5g2vrZkUf7vgrNH9IAEi/8DQeOPiEfUPiN/wBv2V5o4AeR/R+xFwzwTxiS&#xA;CRZYz0dGDKae4yyMhIWDbAxI2K/JIdirsVdirsVdirsVdirsVdirsVdirsVdirsVdirsVdiqFn1S&#xA;yif0+fqzkclghBkkI7HitaD3O2VyyxBrr3MxjJ36KddWuOgWxiPdqSzfcP3aH6XyPrl/RHzP6h9q&#xA;fSPP7v1/cqQaZaRSCZgZ7gdJ5jzcf6tdk69EAGSjiiDfM95/G3wQchO3IIrLGDsVdiqlcuyxUQ0k&#xA;c8EPgT3+gb5KA33YzOyoiKiKiiiqAFHsNsBNm0gUtnhjnhkglHKOVSjr4qwoRkZREgQeRZRJBsIf&#xA;TJ5JLUJMeVzAxhnPi6bcv9mtG+nIYpEjfmNj+PPmyyAA7cii8sYOxV2KoWfTLSWQzKDBcHrPCeDn&#xA;/Wps/To4IyuWKJN8j3j8b/FmMhG3MKddWt+oW+iHdaRTfcf3bn6UyPrj/SHyP6j9ifSfL7v1/eqQ&#xA;apZSv6fP0pwOTQTAxyAdzxalR7jbJRyxJrr3IOMjfoissYOxV2KuxV2KuxV2KuxV2KuxV2KuxV2K&#xA;uxV2KqV0xEDAAFn+BAehLbCvt45KMbO/JjI0Nkl0jRxp5uLGwma29B/USNv3sTxy1Ksyk1FCGT4W&#xA;WvGpzX6fTDFcMfpo3XMb/gjmOW7m5sxyVKfqv4HZMfr91AKX1sVUdZ7essf0qB6i/wDAkDxzI8Qj&#xA;6h8Rv+38c2jgB5H57fsRUFxBcRiWCRZYz0dCGG3uMsjISFg2wMSDRVMkh2KuxVRH7y6J/ZgFB/rs&#xA;Kn7l/Xk+Ufew5y9ytkGbsVQLf6Nqyt0ivl4EU/3dECwPzaMGv+qMpPpn/W+8fs+5t5x/q/d/b96O&#xA;y5qdirsVU7i5t7eIy3EqQxDq7sFXf3ORnMRFk0GUYmRobpNdeaY91sIGmPaaWsUf0Ajm3/AgHxzA&#xA;y9oxH0C/sH6/xzcvHoifqNMf1drnVUFvfzGSNzy9GP8Adxrx7gCpP+yY5rNRI54kZDce7kPx13Ln&#xA;YYjEQYc+9l2h3v1zS4ZGp6yD0p1FKCSP4W2HQGlR7ZvNLl8TGD16+91Wox8EyOiPzIaXYq7FXYq7&#xA;FXYq7FXYq7FXYq7FXYq7FXYqon95dD+WEV/2bD+C/ryfKPvYc5e5D39ILq2vhsqn6vOf+K5SAp/2&#xA;MnH5AnMbJsRL4H4/t/S3w3BHx+X7EdlzWhZ9MtJZDMAYbk9biE8JDTpyI+0PZqjK5Yok3yPePx97&#xA;MZCBXRTrq1t2W+i9qRTAf8m3P/AZH1x/pD5H9R+xPpPl936/vVLfUrSeQQ8jFcH/AI95QY5NupCt&#xA;TkPdajJRyxJrr3IljIF9ERLIscbSN0UEmnXbLYizTWTQtbbxskQDfbNWen8zGpwzNlERQVMiydiq&#xA;G1K2e4tHWKgnQiSAnoJIzySvsSKH2yvLEmO3Pp72eOVHfkqWtzHc20VxHXhKocA9RUVofcd8lCQk&#xA;AR1RKNGkNfa1p1kxSaXlMP8AdEYLybioqq1oPc0GVZdTjx8zv3dWzHgnPkNkmuvMeoz1W2jW0j/n&#xA;ekkpHsB8Cn/gs12XtCZ+kcPv5/q+9zMeiiPqN/j8dyWMnqSiaZmnnHSWU8mFeoWv2R7LQZgyJkbk&#xA;bLlxAAobBdgSpx/E7Sf7Ffkv9uSPcxHemvly69DUpLVjSO7XnH/xljFG/wCCjp/wOZnZ+XhmY9Jb&#xA;/Efs+5xtbjuIl3fd/b97J83LrHYq7FXYq7FXYq7FXYq7FXYq7FXYq7FWndURnbZVBZj7DfCBZpBN&#xA;KdsjLEC/945Lv823p9HTDM2dkRGzdxBHcW8kEorHKpRx7MKHK5REgQeRZxkQbCjpk8ktoBMa3MJM&#xA;NwelZE2LU8G+0PY5HFImO/MbH8fayyAA7ckVljB2KqdxbW9xH6dxEssfXi4DCvjvkZREhRFpjIjk&#xA;l8tjdRypFZ3DFFpI1vcEyIOJHEBz+9FW8WI26YI45RFxPlR3+3n9/uTKYkaI+X4r7lb9Kejtfwta&#xA;06zfbg60/vB9kf64XIeNX1Cvu+f66Z+Hf0m/v/HutGo6OgdGDIwqrKagg9wRloNtRDndEQu7BUUV&#xA;ZmNAAO5JxJpQLSe680WSVWzRrx+zr8MXX/fh6j/UDZg5e0IR+n1H7Pn+q3Lx6OZ5+n7/AJMd+v6j&#xA;JPNbSTtDBIWnSCAlB+8Ylxz/ALw0c1NGA36Zq5arISRdDnQ8/Pnz+92A08AAas8t/wAU3HFHGvGN&#xA;Qi9aAU3ysCmdrsVdiq2ViE+H7TfCvzP9MlEbokW1UKoUdAKD6MBNpAakaWPhPD/fwMJYh4sprx+T&#xA;Cqn2OASMSJDmN/x7+SkAijyLNreeK4t4riI1imRZEPSqsKjOlhMSAkORdHKJiSDzCpkmLsVdirsV&#xA;dirsVdirsVdirsVdirsVUZ/jkjh7E83/ANVN/wAWp+OTjsCWEtyArZBm7FUCf9G1Yf76vlp7CaIf&#xA;reP/AIhlP0z8pfeP1j7mznH3fd/b96Oy5rdirsVUbX4w05/3aar/AKg2X7+v05Oe23cwhvv3q2QZ&#xA;pZfaZEkUstk7WV3JskkNApkc0BeM1RtzuSK++VHTiV8J4D3j765Fs8evqHEO4/r5hixFzPT9Iytc&#xA;3MLFJPUI4LJGeLFUFEG42IFc56Zmdsh4pD7x5cncxERvAUD+OapgSh7z4AlyP90Gr/8AGM7P9w+L&#xA;6Mhk237mcN9u9EZNg7FXYqs+1N7Rj/hj/QfryXIMeZX5Fk7FU68q3VI57BjvA3qQj/iuUk0/2L8v&#xA;kKZtezclxMP5v3H9t/Y6/W49xLv+8J9mycF2KuxV2KuxV2KuxV2KuxV2KuxV2KqNt8Zkn7SGif6i&#xA;7D7zU/Tk57UGEd91bIM3YqhdSt5J7RvRFbiIiW37fvIzyUE+DU4n2OV5Ykx259GeOQB35K1tcR3F&#xA;vFcR/wB3Koda9aMK75KMhIAjqxlGjSpkkIG+vohFwTnJ6jrE7xKWCBjQkkd/xrl+LEbs7Vvu05Mg&#xA;qgi4pInX90wKrtQdvanbKZAjm2gg8l+BKif3l0B+zCOR/wBdhQfctfvyfKPvYc5e5jnmC1+r6mJg&#xA;P3d4tT7SxgA/8ElKf6pzR6/Hwz4ukvvH7Pudto53Gu77vx96AzBctTnlgjT98yqrbUbv7U74JSA5&#xA;pAJ5IPT7+IQ+lNzi9NjFG8ylA6qaKQW70+muU4sm1GxXf17mycOo39yYZe1NMwVSx6AVOEC1JaiU&#xA;qg5faO7fM74ZHdAC7Ipdiq+1uvqV/b3hNI0b05zWg9KSgYn2Vgrn5Zbgy+HkEunI+4/i/g15sfHA&#xA;j5e/8bM1zonSuxV2KuxV2KuxV2KuxV2KuxV2KqV0zCPgho8p4KR1Fep+hanJwG99zGZ296oqqqhV&#xA;FFUUAHYDIE2yAbxV2KrZJY415SMFHSpNN8IiTyQSBzS2xlljuriziTihY3Fu0gK0SQ1cBacjSXke&#xA;2xGV44iMjE+8V58/t+8M5yMgCPd+Ph9yO+qh952Mv+Sdk/4Edfprl3HXLZq4L57r5IleJovsqRQU&#xA;7eFPlkRKjbIixSlHHHcRrJItJhVWZSVYMpowDDelcmSYmhyYgCQs83ObiBGfkJY1FW5/CwA3O4FD&#xA;9w+eIqR7ipsea20mQKBLWOeQlmR9jU9gejcRtthyR7twEQl380v8wzW1zaSW1vyuL6FhJFFCC7K6&#xA;/suR8KclqvxHoc1usqcDEbyHd3/ovzc7TXGQJ2j+PmxdDdXKK/MQROOShPicgio+IjiPuPzzQjil&#xA;5O3NDzXiCGAGRFrKfhEjEsxJ2ALGppk4YxbGUzSqsaiMRkclpQ13r41yR3QNlH6mE3tnMH+QN4/+&#xA;AOw/2NMr8OuWzPjvnupyT3Cssc8XJQQzSRAsKDpVPtDenSuESMdyPl+P1sTEHkUTFNFMvKJw69CV&#xA;NaHwOESB5KQRzX4UOxVp0V0ZGFVYEMD3BxItQyby7ePc6YglblPbkwTMepZAKMfdkKt9ObzRZePG&#xA;L5jY/jzG7qdVj4ZmuR3TPMtx3Yq7FXYq7FXYq7FXYq7FXYqor+8umb9mEcF/1moW/Cn45M7R97Ab&#xA;n3K2QZqT3MSsUFXkHVE3I+fYfTkhA82JmGqXUnUiBfAUZ/vPwj8cPpHmj1HyXR28SNyAq/TmxLN9&#xA;5wGZKREBC6p+59G/G31Vv3x3/uH2k6dl2f8A2OY+bapd33df1/Bvx73Hv+/8bfFHZc1OxVDSTQ2s&#xA;zvM6xQyDmXchVDLQGrHbcU+45KUhw2ejGIPFQ6sd83+etO0TTVu5YpHgZwA7Axq9N+Kchyapp0Xj&#xA;TvlmixTzzrGPidh+s+XTzcfX6mGnhczz6Dn+O/7nknmL83vM2sq8NkotLZtqU6in8oJ+5mYZ0On7&#xA;Exw3yHjPyj8v1kvNant3LPaA4B8z8/1AK3ln84PMejRx21/Ct5aJsOICsB8th+rLM3Y+GQ9Hp93J&#xA;rwdt54H1Hj9/P5sy0PzFp2rwy3VkrLbs5ZUI3TkalDTpxatNulM4DtTs6WmzGJ5Hcfj3/ZT33Zfa&#xA;UNViEhzGx/H46pkGWSUcSCiDlUbip2G/yrmvqg7HmVTIMnYqpw/Fyk/nPw/6o6f1yUu5jHvaltIJ&#xA;W5leMnQSISr/APBCh+jKzAFsEiFlL2LoRcp4GiSfePhP3DB6h5/j8dydj5Lo7yF3EbVjlPSOQcWP&#xA;y7N9GImOXVBiVbJsUboV19W1YIdor1fTPtLGCyH6V5D7szNDl4cldJfePwfscbV4+KF/zfuZXm7d&#xA;U7FXYq7FXYq7FXYq7FXYqp3NxHbwPNIQFUdzSp7DfxyUIGRoMZyERZUYJHESpCnqN1eQ1RCxNWIJ&#xA;FTUnsMnIC99mMTtsqfV3f++kLD+RKov00PI/fT2yPEByCeG+ZVUREUKihVHRQKD8MiSTzZAU3gS7&#xA;FWnRHRkcBkYFWU7gg7EHARagpTY6ta28TWM8plvbNvRaFAZZmUCsblF5N8SFST0rmLjzxHoJuUdq&#xA;5nyPxDkTwyPqA9MvgPP7UTz1W5+wi2MR/akpLMR7Kp9NfY8m+WW3OX9EfM/q+/3NdRHn934+S19K&#xA;gUC4Ia5u4j6kcsx5tUGpCD7Kcht8IGWY8URKzue8/jb4McmSRG23u/H3vD/zk8xLq/mWLTYH5W1i&#xA;oLU6F2/pv9+df2Tp/DxWeZeI7Z1Pi5qHKKSaVpSyKNszJzdYAq6lpKxoajBCaSER+XurLp2syWUj&#xA;Uhnqy/MbN+AB/wBjmj9ptH4uAZB9WP8A3J5/r+D0HszrfC1Hhn6cm3x6fq+L1COAceZqkjnkxGxq&#xA;ex7GnTPPzL5PoQiurMvUCQeI2b7jtg2KdwtknRgI1akkh4hT8LU7mh8BhETzQZDkrAACg2A6DIM3&#xA;Yq7FWpI45EKSKHQ9VYAj7jgIB5pBpQ+qyRf7zylR/vuSrp9FTyH309sjwEciy4r5rJbmZE/eoYZU&#xA;IeKZfjjDoQyEkCoAI35CmDjI8j9i8IPmGc6XqNvqNhDeQMCkqgkAhuLftKSO6nbOlwZo5YCceRdF&#xA;lxHHIxPMIrLmt2KuxV2KuxV2KuxV2Kqdzbx3EDwyAFWHcVoex38MlCZibDGcRIUVGCNzErwv6bdH&#xA;jNXQMDRgATUUI7HJyIvfdjEbbKn1h0/voyo/nSrr9NByH3U98jwg8inirmFVHR1DIwZT0YGo/DIk&#xA;Ec2QNt4EuxVxIAJJoBuScVS5NJspi108Pp3c55tcR1imApRVLrRtloCK0yGTBAyJA37xsfmGWPNP&#xA;honbuPL5L+Gq232HW+iH7MlIpgPZlHpt7DivzyFTj/SHyP6vu97K4ny+78fNa+qwMBbktbXcp9OO&#xA;KYcGqTQlD9l+I3+EnLMeWJlR2Pcfxv8ABjkxyA23934+94h+cXlxNJ8yxalAnG2vVANOgdf8z92d&#xA;f2VqPExUeYeI7Z03hZrHKSUaTqSRqDXMucHWgq2qaokqEk75GEKUlNPyl8txaz5imvrmPnaWilaH&#xA;oWYUI+4/jmH2vlEcJh/P2+DtexMBnnE/5m/x6PQKtA8lrIS89u5ieg3PH7LHsOS0bPMZYzEmJ6fj&#xA;9r6cMgkAR1dSZupEY8Bu33nbBsF3K2SBFAkVayRnkGPxNTuKnxGESPJBiOasCCKjcHocgzdirsVa&#xA;eSONS8jBFHVmNB95xJpICva2Go3lDb25WM/7vnrGlPYEF29qLT3y/Fpsk+Qoee37WjJnhHmd/JM0&#xA;8t28MRkvJDdydEi3jh5E0UcVJY77HkxHtmywdmwv1Hi+75frtwc2ulXp2Tiysreytkt7eNY40/ZR&#xA;QoJO5NB4nMyMIx2iBEdwcYykd5Ek+avkkOxV2KuxV2KuxV2KuxV2KqK/u7pl/ZmHNf8AWWgb8Kfj&#xA;kzvH3MBsferZBmpPbRMxcVSQ9XTYn59j9OSEzyYmAardR9QJ18RRX+4/Cfww+k+SPUPNdHcRO3EG&#xA;j9eDAq33HAYEJEgVtz8fCD/fp+P/AFF3b79l+nDDbfuRPfbvVsgzdiqGkhhupnSZFlhjHAo4DKWa&#xA;hNVO2wp95yUojho9WMSeKx0Y75v8jadremraySyRwK4IViZFSu3JOR5LQ02Dcadss0WWeCd4z8Du&#xA;P1jy6eTj6/TQ1EKmOXUc/wAd/wB7ynzB+U3mbRleazIu7Zd6g9BT+YAfeyqM6DT9t457ZBwH5x+f&#xA;6wHmtT2FlhvA8Y+R+X6iVXy3+UnmLWYo7i+mW0tH3HEhmI9iKj9eWZe18MR6Dxe7k14Oxc8z6hwe&#xA;/n8nrHk/yfp2g6c1ras7RM5JJNOdNuTU3NTXvSmaTWayWWVl6PQ6GOGJAN2t8xWSW15DcxKEiuB6&#xA;MgFABIgLIaDxXkD8hnNdpY/UJ9+x/R+n7HodDP0mPdulua5zXYqpw/Dyj/kPw/6p6f0yUu9jHuXe&#xA;oDJ6SBpZjuIowXenjxWpA9zgAJNDcsiQBZ2CZWvl7U56G4K2cfddpJfw+Bfvb5Zm4uz5y+r0/af1&#xA;fe4mTWRH07/d+v7k5sdC02zYSJH6lwvS4lPN/oJ2X/YgZscWlx49wN+/r+Pc4WTUTnzOyPzIaVFv&#xA;3l0q/swjm3+s1Qv4V/DJjaPvYHc+5WyDN2KuxV2KuxV2KuxV2KuxV2KqV0rGPmgq8R5qB1NOo+la&#xA;jJwO9d7GY29yorKyhlNVYVBHcHIEUyBbxV2KrZIo5F4yKGHWhFd8IkRyQQDzQkMU3qSTRPyUEpGk&#xA;hLbL1o32hVq+OWykKALVEG7Cv9aCbTqYv8o7p/wQ6fTTIcF8t2fHXPZfJKqRNL9pQKinfwp88iI2&#xA;aZE0LUo5I7eNY5GrMasyqCzFmNWIUb0rkyDI2OTEERFHm5xcToycRFGwo3P4mIOx2BoPvPyxFRPe&#xA;VNnyW2kKFQZayTxkqzvuajuB0XkN9sOSXdsCiEe/mo32nW5Jlg5W93KwUTQHgxY93A+F6Cp+IHMc&#xA;YIk3y8x+KPxtuOUgVz9/4+5yHU7NFRo1vIEFA0VI5QAKD4GPBvchl+WRMsg5+r7D+r7R7mQEDy9P&#xA;3Kd69pq1lPZxSBbrjzjikBjkV0IZGZGAbjyA3pvlWXhywMRz/Fbe9njvHIS6MYjlV4hIfgFKsG24&#xA;06g/Lvmht3CrawXd5T6nA0yn/dx+CLwrzP2v9jXLsWGeT6Rt39Px7ra8mWMPqP60yj8sFWjmvpy6&#xA;khZIYSY1AbYVevNvipuOPyzZYOzQR6zfkNh+v7nAy64j6RX4+X3p/a2lrax+lbRJDH14oAoJ8TTq&#xA;czYY4xFRFBxZTMjZNquTYuxVpmVVLMaKoqSewGIFqSp2qsI+bijynmwPUV6D6FoMnM713MYDb3qu&#xA;QZOxV2KuxV2KuxV2KuxV2KuxV2KqNt8Bkg7Rmqf6jbj7jUfRk570WEdtlbIM3Yqp3MjJEeH941Fj&#xA;/wBZtgfo6nJQFndjI0F0caxxqi/ZUAD6MBNm0gUKXYEoG+sYjFzTnH6brK6RMVDhTUggd/xrl+LK&#xA;bo73tu05MYqwi4o4kX90oCtvUd/evfKZEnm2gAcl+BKif3d0D+zMOJ/11FR961+7J84+5hyl73D9&#xA;5dE/swjiP9dhU/ctPvx5R9685e5WyDNRurW0uY+NzGsiL8QLD7J/mB/ZPuMjKAlsRaRMx5JVpfln&#xA;TIedzKr3LzSPPGtyxlEYc8gAGrv3qd698xodn4scid5b3vvXu/F+bfLW5JxH8O3Tb5/ik7zLcdbJ&#xA;GskbI32WBB+nCDRtBFiltvIzxDn/AHi1WT/WXY/f1wzFFETYVMiydiqjc/GY4O0hq/8AqLufvNB9&#xA;OThtZYS32VsgzdirsVdirsVdirsVdirsVdirsVdiqjP8Ekc3YHg/+q+34NT8cnHcEMJbEFWyDN2K&#xA;qP8AeXX+TAP+HYfwX9eT5R9/4/HuYc5e5WyDN2KuxVRtfgDQH/dRov8AqHdfu6fRk57797CG23cr&#xA;ZBmhLudXhdIAZp13RU6B0NQGb7I3675bjjR32DVOVjbcutJ1SFEnBhnbd1foXc1IVvsnfpvjkjZ2&#xA;3CwlQ32KLyptUbr4wsA/3aaN/qDdvv6fTk4bb9zCe+3erZBm7FXYqo/3d1/kzj/h1H8V/Vk+cfd+&#xA;Px72HKXvVsgzdiqjB8ckk3Yngn+qm34tX8MnLYAMI7klWyDN2KuxV2KuxV2KuxV2KuxV2KuxV2Kt&#xA;OiujI26sCrD2O2EGjaCLU7Z2aIB/7xCUf5rtX6euGYo7IidlSR1jRnbZVBJ+QwAWaSTQtTtkZYgX&#xA;FJHPOTv8Tb0+jphmbOyIjZVyLJ2KrZJI415OwVfEmmEAnkgkDmhJZpPWSWGMhWpG8jjiPiPwmn2j&#xA;RvbvlsYiqJajI3YV/q3PedzL/kfZT/gR1/2ROQ465bM+C+e6sAAAAKAbADIM3EAggioOxBxVR+rc&#xA;N4HMX+R9pP8AgT0/2JGT4757sOCuWyhFNJ6zyzRkqtY0kQch8J+I0+0Kt7dsnKIqgWAkbsouOSOR&#xA;eSMGXxBrlRBHNtBB5LsCXYqpXKM0RKCsiHnH2+Jd6fT0yUDR3YyGypG6yIrrurAEfI4CKNJBsWp3&#xA;LssRCf3jkInzbav0dcMBZ3RI7KiIqIqLsqgKo9htgJs2kCm8CXYq7FXYq7FXYq7FXYq7FXYq7FXY&#xA;q7FVE/u7ofyzCn+zUfxX9WT5x9zDlL3un+OWOHsT6j/6qHb72p+OMdgSstyArZBmpPcxKxQEvIP9&#xA;1p8Tb+NOn05IQJ3YmQa/0qTwgX6Gf/mkfjh9I8/x+O5HqPkujtokbnTlJ/vxjyb6CenyGAzJ2SIg&#xA;LpY1kjaNujAg0674ImjaSLFLbeRniBb7Yqr0/mU0OGYooibCpkWTsVU7iRkiJX7ZoqV/mY0GSgLL&#xA;GRoLoo1jjWNeigAV67YJGzaQKFLZLaJ2504yf78U8W+kjr8jhEyNkGIK3/So/CdfoV/+aT+GH0ny&#xA;/H470eoebaXMTMEJKSH/AHW/wtt4V6/RgMCN0iQVciyUYPglkh7A+on+q53+5q/hk5bgFhHYkOH7&#xA;y6P8sIp/s2H8F/Xjyj715y9ytkGbsVdirsVdirsVdirsVdirsVdirsVdirsVUrlC8Lcac1+JCenJ&#xA;dxkoGixmLCFsb5bpXuLdDIJDxVm+BVVNgCTv1qdgeuXZMfDsdqaseTi3CJ9CV/76QkfyR1Rfv+0f&#xA;v+jKuIDkGzhJ5lVSNI14ooVR2AoMiSTzZAAcm8CXYq7FVEfu7oj9mcVH+uoofvX9WT5x9zDlL3q2&#xA;QZuxVRP7y6A/ZgFT/rsKD7l/Xk+Ufew5y9ytkGbsVdirTxpIvF1DKexFRhBI5IIB5qXoSp/cyED+&#xA;SSrr9/2h9/0ZLiB5hjwkcihr6+W1VLi4QxiM8WZfjVlfYgEb9aHcDpluPHxbDe2vJk4dyirZCkK8&#xA;qc2+JyOnJtzlMzZbYCgq5Fk7FXYq7FXYq7FXYq7FXYq7FXYq7FXYq7FXYqpPbQueXHi9KB1+FqfM&#xA;ZITIYmALVLqPuJl96K//ADSfww+k+SPUPNtLmJm4ElJP5HHE/RXr9GAwI3SJBVyLJ2KuxVSuUZoq&#xA;oKyIeaDxI7fSNslA77sZjZUR1dFdTVWAKn2O+AijSQbc7qiM7GiqCWPsN8QLNKTSnbIyxVcUkc83&#xA;HgT2+gbYZnfZEBsq5Fk7FXYqpPcxK3AEvJ/Ig5H6adPpyQgTuxMg1S6k7iFfajP/AM0j8cPpHmj1&#xA;HybS2hQ8uPJ6ULt8TU+ZwGZKRABVyLJ2KuxV2KuxV2KuxV2KuxV2KuxV2KuxV2KuxV2KuxV2KtOi&#xA;OvF1DKeqsKj8cIJHJBFqXoSJ/cyED+R/jX8fiH3/AEZLiB5hjwkci76yU/v4zGP5x8SfeNx9IGPB&#xA;fIrxVzVVZWUMpDKdwRuDkCKZgt4qo2/wPJD2U80/1XJNPoav0UyctwCwjtYdcfG8cPZjzf8A1UIN&#xA;Ppan0VxjsCVlvQVsgzaZlVSzEKo3JOwGIFqSpfWS/wDcRmQfzn4U+87n6AcnwVzLDivk70JH/vpC&#xA;R/InwL+HxH7/AKMeIDkF4SeZVUREXiihVHRVFB+GRJJ5sgKbwJdirsVdirsVdirsVdirsVdirsVd&#xA;irsVdirsVdirsVdirsVdirsVdirsVUmtYyxdKxOdyybVPuPsn6RkxM9d2JgPc1yuo/tKJl/mT4W/&#xA;4Emn4/RjUT5IsjzU5J4i6TI3xR7SIahgjkAkqaEUNDkhE1XegyHN0c8Qd5nb4pNo0FSxRCQCFFSa&#xA;mpxMTVdyiQ5qnK6k+yohX+Z/ib/gQafj9GRqI802T5Nraxhg71lcbhn3ofYfZH0DEzPTZIgPeq5B&#xA;k7FXYq7FXYq7FXYq7FXYq7FXYq7FXYq7FXYq7FXYq7FXYq7FXYq7FXYq7FXYq7FXYq7FVO4toLiM&#xA;xzIGUgj3Fdtj2yUJmJsMZQEhRdb20FvGI4UCqAB7mm2574zmZGysYCIoKmRZOxV2KuxV2KuxV2Ku&#xA;xV2KuxV2KuxV2KuxV2KuxV2KuxV2KuxV2KuxV2KuxV2KuxV2KuxV2KuxV2KuxV2KuxV2KuxV2Kux&#xA;V2KuxV2KuxV2KuxV2KuxV2KuxV2KuxV2KuxV2KuxV2KuxV2KuxV2KuxV2KuxV2KuxV2KuxV2KuxV&#xA;2KuxV2KuxV2KuxV2KuxV2KuxV2KuxV2KuxV2KuxV2KuxV2KuxV2KuxV2KuxV2KuxV2KuxV2KuxV2&#xA;KuxV2KuxV2KuxV2KuxV2KuxV2KuxV2KuxV2KuxV2KuxV2KuxV2KuxV2KuxV2KuxV2KuxV2KuxV2K&#xA;uxV2KuxV2KuxV2KuxV2KuxV2KuxV2KuxV2Kv/9k=</xmpGImg:image>
               </rdf:li>
            </rdf:Alt>
         </xmp:Thumbnails>
         <xmpTPg:MaxPageSize rdf:parseType="Resource">
            <stDim:w>1000.000000</stDim:w>
            <stDim:h>1000.000000</stDim:h>
            <stDim:unit>Pixels</stDim:unit>
         </xmpTPg:MaxPageSize>
         <xmpTPg:NPages>1</xmpTPg:NPages>
         <xmpTPg:HasVisibleTransparency>True</xmpTPg:HasVisibleTransparency>
         <xmpTPg:HasVisibleOverprint>False</xmpTPg:HasVisibleOverprint>
         <xmpTPg:PlateNames>
            <rdf:Seq>
               <rdf:li>Cyan</rdf:li>
               <rdf:li>Magenta</rdf:li>
               <rdf:li>Yellow</rdf:li>
            </rdf:Seq>
         </xmpTPg:PlateNames>
         <xmpTPg:SwatchGroups>
            <rdf:Seq>
               <rdf:li rdf:parseType="Resource">
                  <xmpG:groupName>Default Swatch Group</xmpG:groupName>
                  <xmpG:groupType>0</xmpG:groupType>
               </rdf:li>
            </rdf:Seq>
         </xmpTPg:SwatchGroups>
         <dc:format>image/svg+xml</dc:format>
      </rdf:Description>
   </rdf:RDF>
</x:xmpmeta>
                                                                                                    
                                                                                                    
                                                                                                    
                                                                                                    
                                                                                                    
                                                                                                    
                                                                                                    
                                                                                                    
                                                                                                    
                                                                                                    
                                                                                                    
                                                                                                    
                                                                                                    
                                                                                                    
                                                                                                    
                                                                                                    
                                                                                                    
                                                                                                    
                                                                                                    
                                                                                                    
                           
<?xpacket end="w"?>
  </metadata>
</svg>